<ttFont>
    <TTGlyph name=".notdef" xMin="193" yMin="0" xMax="1034" yMax="1462">
      <contour>
        <pt x="193" y="1462" on="1"/>
        <pt x="1034" y="1462" on="1"/>
        <pt x="1034" y="0" on="1"/>
        <pt x="193" y="0" on="1"/>
      </contour>
      <contour>
        <pt x="297" y="104" on="1"/>
        <pt x="930" y="104" on="1"/>
        <pt x="930" y="1358" on="1"/>
        <pt x="297" y="1358" on="1"/>
      </contour>
    </TTGlyph>
    <TTGlyph name="afii301" xMin="-299" yMin="-338" xMax="299" yMax="1613">
      <contour>
        <pt x="74" y="1323" on="1"/>
        <pt x="299" y="1103" on="1"/>
        <pt x="224" y="1030" on="1"/>
        <pt x="54" y="1199" on="1"/>
        <pt x="54" y="-338" on="1"/>
        <pt x="-54" y="-338" on="1"/>
        <pt x="-54" y="1199" on="1"/>
        <pt x="-224" y="1030" on="1"/>
        <pt x="-299" y="1103" on="1"/>
        <pt x="-74" y="1323" on="1"/>
        <pt x="-299" y="1540" on="1"/>
        <pt x="-224" y="1613" on="1"/>
        <pt x="0" y="1393" on="1"/>
        <pt x="224" y="1613" on="1"/>
        <pt x="299" y="1539" on="1"/>
      </contour>
    </TTGlyph>
    <TTGlyph name="afii61664" xMin="-54" yMin="-339" xMax="54" yMax="1613">
      <contour>
        <pt x="-54" y="-339" on="1"/>
        <pt x="-54" y="1613" on="1"/>
        <pt x="54" y="1613" on="1"/>
        <pt x="54" y="-339" on="1"/>
      </contour>
    </TTGlyph>
    <TTGlyph name="asciicircum" xMin="78" yMin="547" xMax="1094" yMax="1473">
      <contour>
        <pt x="78" y="547" on="1"/>
        <pt x="512" y="1473" on="1"/>
        <pt x="614" y="1473" on="1"/>
        <pt x="1094" y="547" on="1"/>
        <pt x="934" y="547" on="1"/>
        <pt x="565" y="1282" on="1"/>
        <pt x="238" y="547" on="1"/>
      </contour>
    </TTGlyph>
    <TTGlyph name="asciitilde" xMin="102" yMin="534" xMax="1067" yMax="802">
      <contour>
        <pt x="102" y="534" on="1"/>
        <pt x="102" y="694" on="1"/>
        <pt x="203" y="802" on="0"/>
        <pt x="348" y="802" on="1"/>
        <pt x="418" y="802" on="0"/>
        <pt x="541" y="770" on="0"/>
        <pt x="618" y="737" on="1"/>
        <pt x="685" y="708" on="0"/>
        <pt x="784" y="681" on="0"/>
        <pt x="831" y="681" on="1"/>
        <pt x="886" y="681" on="0"/>
        <pt x="1011" y="745" on="0"/>
        <pt x="1067" y="802" on="1"/>
        <pt x="1067" y="644" on="1"/>
        <pt x="964" y="534" on="0"/>
        <pt x="821" y="534" on="1"/>
        <pt x="750" y="534" on="0"/>
        <pt x="627" y="566" on="0"/>
        <pt x="551" y="599" on="1"/>
        <pt x="482" y="629" on="0"/>
        <pt x="384" y="655" on="0"/>
        <pt x="336" y="655" on="1"/>
        <pt x="284" y="655" on="0"/>
        <pt x="156" y="589" on="0"/>
      </contour>
    </TTGlyph>
    <TTGlyph name="asterisk" xMin="114" yMin="662" xMax="1070" yMax="1583">
      <contour>
        <pt x="689" y="1583" on="1"/>
        <pt x="648" y="1190" on="1"/>
        <pt x="1042" y="1301" on="1"/>
        <pt x="1070" y="1112" on="1"/>
        <pt x="694" y="1082" on="1"/>
        <pt x="937" y="758" on="1"/>
        <pt x="761" y="662" on="1"/>
        <pt x="587" y="1020" on="1"/>
        <pt x="429" y="662" on="1"/>
        <pt x="247" y="758" on="1"/>
        <pt x="487" y="1082" on="1"/>
        <pt x="114" y="1112" on="1"/>
        <pt x="143" y="1301" on="1"/>
        <pt x="532" y="1190" on="1"/>
        <pt x="489" y="1583" on="1"/>
      </contour>
    </TTGlyph>
    <TTGlyph name="backslash" xMin="60" yMin="-739" xMax="832" yMax="1583">
      <contour>
        <pt x="237" y="1583" on="1"/>
        <pt x="832" y="-739" on="1"/>
        <pt x="654" y="-739" on="1"/>
        <pt x="60" y="1583" on="1"/>
      </contour>
    </TTGlyph>
    <TTGlyph name="bar" xMin="481" yMin="-739" xMax="647" yMax="1583">
      <contour>
        <pt x="481" y="1583" on="1"/>
        <pt x="647" y="1583" on="1"/>
        <pt x="647" y="-739" on="1"/>
        <pt x="481" y="-739" on="1"/>
      </contour>
    </TTGlyph>
    <TTGlyph name="braceleft" xMin="57" yMin="-739" xMax="713" yMax="1583">
      <contour>
        <pt x="57" y="495" on="1"/>
        <pt x="183" y="496" on="0"/>
        <pt x="307" y="587" on="0"/>
        <pt x="307" y="686" on="1"/>
        <pt x="307" y="1260" on="1"/>
        <pt x="307" y="1414" on="0"/>
        <pt x="522" y="1583" on="0"/>
        <pt x="713" y="1583" on="1"/>
        <pt x="713" y="1436" on="1"/>
        <pt x="485" y="1430" on="0"/>
        <pt x="485" y="1243" on="1"/>
        <pt x="485" y="677" on="1"/>
        <pt x="485" y="466" on="0"/>
        <pt x="262" y="428" on="1"/>
        <pt x="262" y="415" on="1"/>
        <pt x="485" y="378" on="0"/>
        <pt x="485" y="165" on="1"/>
        <pt x="485" y="-401" on="1"/>
        <pt x="485" y="-589" on="0"/>
        <pt x="713" y="-591" on="1"/>
        <pt x="713" y="-739" on="1"/>
        <pt x="516" y="-738" on="0"/>
        <pt x="307" y="-571" on="0"/>
        <pt x="307" y="-413" on="1"/>
        <pt x="307" y="153" on="1"/>
        <pt x="307" y="251" on="0"/>
        <pt x="187" y="346" on="0"/>
        <pt x="57" y="346" on="1"/>
      </contour>
    </TTGlyph>
    <TTGlyph name="braceright" xMin="65" yMin="-739" xMax="721" yMax="1583">
      <contour>
        <pt x="721" y="349" on="1"/>
        <pt x="590" y="347" on="0"/>
        <pt x="471" y="255" on="0"/>
        <pt x="471" y="158" on="1"/>
        <pt x="471" y="-416" on="1"/>
        <pt x="471" y="-570" on="0"/>
        <pt x="256" y="-739" on="0"/>
        <pt x="65" y="-739" on="1"/>
        <pt x="65" y="-592" on="1"/>
        <pt x="293" y="-586" on="0"/>
        <pt x="293" y="-399" on="1"/>
        <pt x="293" y="167" on="1"/>
        <pt x="293" y="378" on="0"/>
        <pt x="516" y="416" on="1"/>
        <pt x="516" y="429" on="1"/>
        <pt x="293" y="466" on="0"/>
        <pt x="293" y="679" on="1"/>
        <pt x="293" y="1245" on="1"/>
        <pt x="293" y="1340" on="0"/>
        <pt x="181" y="1433" on="0"/>
        <pt x="65" y="1435" on="1"/>
        <pt x="65" y="1583" on="1"/>
        <pt x="267" y="1580" on="0"/>
        <pt x="471" y="1412" on="0"/>
        <pt x="471" y="1257" on="1"/>
        <pt x="471" y="691" on="1"/>
        <pt x="471" y="593" on="0"/>
        <pt x="591" y="498" on="0"/>
        <pt x="721" y="498" on="1"/>
      </contour>
    </TTGlyph>
    <TTGlyph name="bracketleft" xMin="164" yMin="-739" xMax="623" yMax="1583">
      <contour>
        <pt x="623" y="-739" on="1"/>
        <pt x="164" y="-739" on="1"/>
        <pt x="164" y="1583" on="1"/>
        <pt x="623" y="1583" on="1"/>
        <pt x="623" y="1436" on="1"/>
        <pt x="340" y="1436" on="1"/>
        <pt x="340" y="-591" on="1"/>
        <pt x="623" y="-591" on="1"/>
      </contour>
    </TTGlyph>
    <TTGlyph name="bracketright" xMin="81" yMin="-739" xMax="540" yMax="1583">
      <contour>
        <pt x="81" y="-591" on="1"/>
        <pt x="364" y="-591" on="1"/>
        <pt x="364" y="1436" on="1"/>
        <pt x="81" y="1436" on="1"/>
        <pt x="81" y="1583" on="1"/>
        <pt x="540" y="1583" on="1"/>
        <pt x="540" y="-739" on="1"/>
        <pt x="81" y="-739" on="1"/>
      </contour>
    </TTGlyph>
    <TTGlyph name="colon" xMin="147" yMin="-26" xMax="401" yMax="993">
      <contour>
        <pt x="272" y="993" on="1"/>
        <pt x="333" y="993" on="0"/>
        <pt x="401" y="922" on="0"/>
        <pt x="401" y="854" on="1"/>
        <pt x="401" y="786" on="0"/>
        <pt x="330" y="715" on="0"/>
        <pt x="272" y="715" on="1"/>
        <pt x="215" y="715" on="0"/>
        <pt x="147" y="786" on="0"/>
        <pt x="147" y="854" on="1"/>
        <pt x="147" y="922" on="0"/>
        <pt x="212" y="993" on="0"/>
      </contour>
      <contour>
        <pt x="272" y="251" on="1"/>
        <pt x="333" y="251" on="0"/>
        <pt x="401" y="181" on="0"/>
        <pt x="401" y="114" on="1"/>
        <pt x="401" y="46" on="0"/>
        <pt x="331" y="-26" on="0"/>
        <pt x="272" y="-26" on="1"/>
        <pt x="214" y="-26" on="0"/>
        <pt x="147" y="46" on="0"/>
        <pt x="147" y="114" on="1"/>
        <pt x="147" y="180" on="0"/>
        <pt x="212" y="251" on="0"/>
      </contour>
    </TTGlyph>
    <TTGlyph name="comma" xMin="84" yMin="-264" xMax="393" yMax="238">
      <contour>
        <pt x="379" y="238" on="1"/>
        <pt x="393" y="215" on="1"/>
        <pt x="341" y="16" on="0"/>
        <pt x="217" y="-264" on="1"/>
        <pt x="84" y="-264" on="1"/>
        <pt x="155" y="23" on="0"/>
        <pt x="186" y="238" on="1"/>
      </contour>
    </TTGlyph>
    <TTGlyph name="divide" xMin="102" yMin="194" xMax="1067" yMax="1140">
      <contour>
        <pt x="584" y="1140" on="1"/>
        <pt x="639" y="1140" on="0"/>
        <pt x="696" y="1077" on="0"/>
        <pt x="696" y="1017" on="1"/>
        <pt x="696" y="957" on="0"/>
        <pt x="635" y="892" on="0"/>
        <pt x="584" y="892" on="1"/>
        <pt x="531" y="892" on="0"/>
        <pt x="469" y="956" on="0"/>
        <pt x="469" y="1017" on="1"/>
        <pt x="469" y="1140" on="0"/>
      </contour>
      <contour>
        <pt x="102" y="595" on="1"/>
        <pt x="102" y="741" on="1"/>
        <pt x="1067" y="741" on="1"/>
        <pt x="1067" y="595" on="1"/>
      </contour>
      <contour>
        <pt x="584" y="442" on="1"/>
        <pt x="639" y="442" on="0"/>
        <pt x="696" y="379" on="0"/>
        <pt x="696" y="319" on="1"/>
        <pt x="696" y="259" on="0"/>
        <pt x="635" y="194" on="0"/>
        <pt x="584" y="194" on="1"/>
        <pt x="531" y="194" on="0"/>
        <pt x="469" y="258" on="0"/>
        <pt x="469" y="319" on="1"/>
        <pt x="469" y="442" on="0"/>
      </contour>
    </TTGlyph>
    <TTGlyph name="eight" xMin="100" yMin="-20" xMax="1069" yMax="1354">
      <contour>
        <pt x="743" y="710" on="1"/>
        <pt x="914" y="640" on="0"/>
        <pt x="1069" y="463" on="0"/>
        <pt x="1069" y="347" on="1"/>
        <pt x="1069" y="180" on="0"/>
        <pt x="810" y="-20" on="0"/>
        <pt x="590" y="-20" on="1"/>
        <pt x="354" y="-20" on="0"/>
        <pt x="100" y="169" on="0"/>
        <pt x="100" y="341" on="1"/>
        <pt x="100" y="460" on="0"/>
        <pt x="251" y="639" on="0"/>
        <pt x="403" y="700" on="1"/>
        <pt x="268" y="768" on="0"/>
        <pt x="147" y="930" on="0"/>
        <pt x="147" y="1037" on="1"/>
        <pt x="147" y="1182" on="0"/>
        <pt x="388" y="1354" on="0"/>
        <pt x="584" y="1354" on="1"/>
        <pt x="785" y="1354" on="0"/>
        <pt x="1022" y="1183" on="0"/>
        <pt x="1022" y="1036" on="1"/>
        <pt x="1022" y="931" on="0"/>
        <pt x="887" y="772" on="0"/>
      </contour>
      <contour>
        <pt x="592" y="780" on="1"/>
        <pt x="728" y="828" on="0"/>
        <pt x="848" y="946" on="0"/>
        <pt x="848" y="1025" on="1"/>
        <pt x="848" y="1111" on="0"/>
        <pt x="706" y="1208" on="0"/>
        <pt x="582" y="1208" on="1"/>
        <pt x="461" y="1208" on="0"/>
        <pt x="320" y="1109" on="0"/>
        <pt x="320" y="1025" on="1"/>
        <pt x="320" y="947" on="0"/>
        <pt x="438" y="834" on="0"/>
      </contour>
      <contour>
        <pt x="553" y="626" on="1"/>
        <pt x="406" y="571" on="0"/>
        <pt x="272" y="436" on="0"/>
        <pt x="272" y="343" on="1"/>
        <pt x="272" y="240" on="0"/>
        <pt x="438" y="123" on="0"/>
        <pt x="586" y="123" on="1"/>
        <pt x="731" y="123" on="0"/>
        <pt x="897" y="245" on="0"/>
        <pt x="897" y="348" on="1"/>
        <pt x="897" y="431" on="0"/>
        <pt x="749" y="559" on="0"/>
        <pt x="587" y="615" on="1"/>
      </contour>
    </TTGlyph>
    <TTGlyph name="ellipsis" xMin="147" yMin="-26" xMax="1473" yMax="251">
      <contour>
        <pt x="272" y="251" on="1"/>
        <pt x="333" y="251" on="0"/>
        <pt x="401" y="181" on="0"/>
        <pt x="401" y="114" on="1"/>
        <pt x="401" y="46" on="0"/>
        <pt x="331" y="-26" on="0"/>
        <pt x="272" y="-26" on="1"/>
        <pt x="214" y="-26" on="0"/>
        <pt x="147" y="46" on="0"/>
        <pt x="147" y="114" on="1"/>
        <pt x="147" y="180" on="0"/>
        <pt x="212" y="251" on="0"/>
      </contour>
      <contour>
        <pt x="809" y="251" on="1"/>
        <pt x="870" y="251" on="0"/>
        <pt x="936" y="180" on="0"/>
        <pt x="936" y="114" on="1"/>
        <pt x="936" y="47" on="0"/>
        <pt x="868" y="-26" on="0"/>
        <pt x="809" y="-26" on="1"/>
        <pt x="749" y="-26" on="0"/>
        <pt x="684" y="47" on="0"/>
        <pt x="684" y="114" on="1"/>
        <pt x="684" y="180" on="0"/>
        <pt x="747" y="251" on="0"/>
      </contour>
      <contour>
        <pt x="1343" y="251" on="1"/>
        <pt x="1406" y="251" on="0"/>
        <pt x="1473" y="180" on="0"/>
        <pt x="1473" y="114" on="1"/>
        <pt x="1473" y="47" on="0"/>
        <pt x="1404" y="-26" on="0"/>
        <pt x="1343" y="-26" on="1"/>
        <pt x="1285" y="-26" on="0"/>
        <pt x="1219" y="47" on="0"/>
        <pt x="1219" y="114" on="1"/>
        <pt x="1219" y="180" on="0"/>
        <pt x="1283" y="251" on="0"/>
      </contour>
    </TTGlyph>
    <TTGlyph name="emdash" xMin="82" yMin="439" xMax="1966" yMax="599">
      <contour>
        <pt x="82" y="439" on="1"/>
        <pt x="82" y="599" on="1"/>
        <pt x="1966" y="599" on="1"/>
        <pt x="1966" y="439" on="1"/>
      </contour>
    </TTGlyph>
    <TTGlyph name="endash" xMin="82" yMin="439" xMax="942" yMax="599">
      <contour>
        <pt x="82" y="439" on="1"/>
        <pt x="82" y="599" on="1"/>
        <pt x="942" y="599" on="1"/>
        <pt x="942" y="439" on="1"/>
      </contour>
    </TTGlyph>
    <TTGlyph name="equal" xMin="115" yMin="390" xMax="1053" yMax="943">
      <contour>
        <pt x="115" y="798" on="1"/>
        <pt x="115" y="943" on="1"/>
        <pt x="1053" y="943" on="1"/>
        <pt x="1053" y="798" on="1"/>
      </contour>
      <contour>
        <pt x="115" y="390" on="1"/>
        <pt x="115" y="536" on="1"/>
        <pt x="1053" y="536" on="1"/>
        <pt x="1053" y="390" on="1"/>
      </contour>
    </TTGlyph>
    <TTGlyph name="exclam" xMin="177" yMin="-26" xMax="431" yMax="1346">
      <contour>
        <pt x="364" y="412" on="1"/>
        <pt x="247" y="412" on="1"/>
        <pt x="196" y="1346" on="1"/>
        <pt x="415" y="1346" on="1"/>
      </contour>
      <contour>
        <pt x="304" y="251" on="1"/>
        <pt x="364" y="251" on="0"/>
        <pt x="431" y="180" on="0"/>
        <pt x="431" y="114" on="1"/>
        <pt x="431" y="47" on="0"/>
        <pt x="362" y="-26" on="0"/>
        <pt x="304" y="-26" on="1"/>
        <pt x="245" y="-26" on="0"/>
        <pt x="177" y="46" on="0"/>
        <pt x="177" y="114" on="1"/>
        <pt x="177" y="181" on="0"/>
        <pt x="243" y="251" on="0"/>
      </contour>
    </TTGlyph>
    <TTGlyph name="five" xMin="129" yMin="-20" xMax="1055" yMax="1333">
      <contour>
        <pt x="129" y="59" on="1"/>
        <pt x="129" y="229" on="1"/>
        <pt x="203" y="185" on="0"/>
        <pt x="416" y="133" on="0"/>
        <pt x="514" y="133" on="1"/>
        <pt x="686" y="133" on="0"/>
        <pt x="874" y="276" on="0"/>
        <pt x="874" y="411" on="1"/>
        <pt x="874" y="541" on="0"/>
        <pt x="690" y="672" on="0"/>
        <pt x="507" y="672" on="1"/>
        <pt x="393" y="672" on="0"/>
        <pt x="254" y="642" on="1"/>
        <pt x="164" y="699" on="1"/>
        <pt x="219" y="1333" on="1"/>
        <pt x="952" y="1333" on="1"/>
        <pt x="952" y="1169" on="1"/>
        <pt x="367" y="1169" on="1"/>
        <pt x="335" y="803" on="1"/>
        <pt x="443" y="824" on="0"/>
        <pt x="558" y="824" on="1"/>
        <pt x="789" y="824" on="0"/>
        <pt x="1055" y="612" on="0"/>
        <pt x="1055" y="428" on="1"/>
        <pt x="1055" y="218" on="0"/>
        <pt x="764" y="-20" on="0"/>
        <pt x="508" y="-20" on="1"/>
        <pt x="391" y="-20" on="0"/>
        <pt x="193" y="21" on="0"/>
      </contour>
    </TTGlyph>
    <TTGlyph name="four" xMin="43" yMin="0" xMax="1130" yMax="1341">
      <contour>
        <pt x="1130" y="298" on="1"/>
        <pt x="914" y="298" on="1"/>
        <pt x="914" y="0" on="1"/>
        <pt x="743" y="0" on="1"/>
        <pt x="743" y="298" on="1"/>
        <pt x="43" y="298" on="1"/>
        <pt x="43" y="451" on="1"/>
        <pt x="731" y="1341" on="1"/>
        <pt x="914" y="1341" on="1"/>
        <pt x="914" y="451" on="1"/>
        <pt x="1130" y="451" on="1"/>
      </contour>
      <contour>
        <pt x="743" y="460" on="1"/>
        <pt x="743" y="864" on="1"/>
        <pt x="743" y="968" on="0"/>
        <pt x="754" y="1149" on="1"/>
        <pt x="745" y="1149" on="1"/>
        <pt x="695" y="1059" on="0"/>
        <pt x="634" y="981" on="1"/>
        <pt x="225" y="460" on="1"/>
      </contour>
    </TTGlyph>
    <TTGlyph name="glyph00101" xMin="34" yMin="-541" xMax="1179" yMax="1485">
      <component glyphName="glyph00666" x="0" y="0" flags="0x200"/>
      <component glyphName="glyph00762" x="0" y="0" flags="0x0"/>
      <component glyphName="glyph00724" x="230" y="0" flags="0x0"/>
    </TTGlyph>
    <TTGlyph name="glyph00102" xMin="34" yMin="-50" xMax="1156" yMax="1717">
      <component glyphName="glyph00666" x="0" y="0" flags="0x200"/>
      <component glyphName="uni0C4D" x="912" y="0" flags="0x0"/>
    </TTGlyph>
    <TTGlyph name="glyph00103" xMin="60" yMin="-257" xMax="1673" yMax="1717">
      <contour>
        <pt x="695" y="103" on="1"/>
        <pt x="623" y="38" on="0"/>
        <pt x="455" y="-26" on="0"/>
        <pt x="359" y="-26" on="1"/>
        <pt x="214" y="-26" on="0"/>
        <pt x="60" y="101" on="0"/>
        <pt x="60" y="207" on="1"/>
        <pt x="60" y="305" on="0"/>
        <pt x="210" y="427" on="0"/>
        <pt x="338" y="427" on="1"/>
        <pt x="414" y="427" on="0"/>
        <pt x="567" y="372" on="0"/>
        <pt x="662" y="310" on="1"/>
        <pt x="696" y="390" on="0"/>
        <pt x="696" y="499" on="1"/>
        <pt x="696" y="682" on="0"/>
        <pt x="623" y="782" on="1"/>
        <pt x="626" y="761" on="0"/>
        <pt x="626" y="740" on="1"/>
        <pt x="626" y="626" on="0"/>
        <pt x="476" y="489" on="0"/>
        <pt x="352" y="489" on="1"/>
        <pt x="232" y="489" on="0"/>
        <pt x="73" y="635" on="0"/>
        <pt x="73" y="754" on="1"/>
        <pt x="73" y="870" on="0"/>
        <pt x="249" y="1023" on="0"/>
        <pt x="392" y="1023" on="1"/>
        <pt x="540" y="1023" on="0"/>
        <pt x="751" y="888" on="0"/>
        <pt x="862" y="645" on="0"/>
        <pt x="862" y="510" on="1"/>
        <pt x="862" y="352" on="0"/>
        <pt x="790" y="224" on="1"/>
        <pt x="860" y="177" on="0"/>
        <pt x="988" y="135" on="0"/>
        <pt x="1065" y="135" on="1"/>
        <pt x="1184" y="135" on="0"/>
        <pt x="1304" y="269" on="0"/>
        <pt x="1304" y="394" on="1"/>
        <pt x="1304" y="542" on="0"/>
        <pt x="1156" y="773" on="0"/>
        <pt x="989" y="869" on="1"/>
        <pt x="851" y="875" on="0"/>
        <pt x="701" y="1000" on="0"/>
        <pt x="701" y="1105" on="1"/>
        <pt x="701" y="1162" on="0"/>
        <pt x="750" y="1248" on="0"/>
        <pt x="800" y="1285" on="1"/>
        <pt x="685" y="1360" on="0"/>
        <pt x="685" y="1483" on="1"/>
        <pt x="685" y="1567" on="0"/>
        <pt x="780" y="1673" on="0"/>
        <pt x="934" y="1717" on="0"/>
        <pt x="1079" y="1717" on="1"/>
        <pt x="1673" y="1717" on="1"/>
        <pt x="1673" y="1563" on="1"/>
        <pt x="1051" y="1563" on="1"/>
        <pt x="963" y="1563" on="0"/>
        <pt x="894" y="1546" on="0"/>
        <pt x="855" y="1506" on="0"/>
        <pt x="855" y="1469" on="1"/>
        <pt x="855" y="1432" on="0"/>
        <pt x="889" y="1388" on="0"/>
        <pt x="958" y="1368" on="0"/>
        <pt x="1050" y="1368" on="1"/>
        <pt x="1331" y="1368" on="1"/>
        <pt x="1331" y="1214" on="1"/>
        <pt x="1042" y="1214" on="1"/>
        <pt x="939" y="1214" on="0"/>
        <pt x="871" y="1162" on="0"/>
        <pt x="871" y="1118" on="1"/>
        <pt x="871" y="1075" on="0"/>
        <pt x="935" y="1023" on="0"/>
        <pt x="1036" y="1023" on="1"/>
        <pt x="1250" y="924" on="0"/>
        <pt x="1474" y="602" on="0"/>
        <pt x="1474" y="405" on="1"/>
        <pt x="1474" y="205" on="0"/>
        <pt x="1250" y="-26" on="0"/>
        <pt x="1060" y="-26" on="1"/>
        <pt x="964" y="-26" on="0"/>
        <pt x="797" y="33" on="0"/>
      </contour>
      <contour>
        <pt x="466" y="873" on="1"/>
        <pt x="428" y="884" on="0"/>
        <pt x="384" y="884" on="1"/>
        <pt x="312" y="884" on="0"/>
        <pt x="229" y="813" on="0"/>
        <pt x="229" y="756" on="1"/>
        <pt x="229" y="696" on="0"/>
        <pt x="296" y="630" on="0"/>
        <pt x="357" y="630" on="1"/>
        <pt x="425" y="630" on="0"/>
        <pt x="498" y="697" on="0"/>
        <pt x="498" y="760" on="1"/>
        <pt x="498" y="819" on="0"/>
      </contour>
      <contour>
        <pt x="573" y="191" on="1"/>
        <pt x="500" y="242" on="0"/>
        <pt x="392" y="282" on="0"/>
        <pt x="335" y="282" on="1"/>
        <pt x="277" y="282" on="0"/>
        <pt x="215" y="240" on="0"/>
        <pt x="215" y="205" on="1"/>
        <pt x="215" y="170" on="0"/>
        <pt x="293" y="127" on="0"/>
        <pt x="361" y="127" on="1"/>
        <pt x="426" y="127" on="0"/>
        <pt x="532" y="159" on="0"/>
      </contour>
      <contour>
        <pt x="610" y="-257" on="1"/>
        <pt x="625" y="33" on="1"/>
        <pt x="779" y="33" on="1"/>
        <pt x="794" y="-257" on="1"/>
      </contour>
      <contour>
        <pt x="773" y="-50" on="1"/>
      </contour>
    </TTGlyph>
    <TTGlyph name="glyph00104" xMin="82" yMin="-50" xMax="1195" yMax="1717">
      <component glyphName="glyph00668" x="0" y="0" flags="0x200"/>
      <component glyphName="uni0C4D" x="951" y="0" flags="0x0"/>
    </TTGlyph>
    <TTGlyph name="glyph00105" xMin="60" yMin="-257" xMax="2166" yMax="1717">
      <component glyphName="glyph00669" x="0" y="0" flags="0x200"/>
      <component glyphName="uni0C4D" x="911" y="0" flags="0x0"/>
    </TTGlyph>
    <TTGlyph name="glyph00106" xMin="73" yMin="-50" xMax="1662" yMax="1717">
      <component glyphName="uni0C19" x="0" y="0" flags="0x200"/>
      <component glyphName="uni0C4D" x="1418" y="0" flags="0x0"/>
    </TTGlyph>
    <TTGlyph name="glyph00107" xMin="52" yMin="-50" xMax="1507" yMax="1717">
      <contour>
        <pt x="885" y="1563" on="1"/>
        <pt x="797" y="1563" on="0"/>
        <pt x="728" y="1546" on="0"/>
        <pt x="689" y="1506" on="0"/>
        <pt x="689" y="1469" on="1"/>
        <pt x="689" y="1432" on="0"/>
        <pt x="723" y="1388" on="0"/>
        <pt x="792" y="1368" on="0"/>
        <pt x="884" y="1368" on="1"/>
        <pt x="1165" y="1368" on="1"/>
        <pt x="1165" y="1214" on="1"/>
        <pt x="876" y="1214" on="1"/>
        <pt x="773" y="1214" on="0"/>
        <pt x="705" y="1162" on="0"/>
        <pt x="705" y="1118" on="1"/>
        <pt x="705" y="1087" on="0"/>
        <pt x="740" y="1042" on="0"/>
        <pt x="797" y="1023" on="0"/>
        <pt x="860" y="1023" on="1"/>
        <pt x="947" y="1023" on="1"/>
        <pt x="1205" y="954" on="0"/>
        <pt x="1483" y="625" on="0"/>
        <pt x="1483" y="397" on="1"/>
        <pt x="1483" y="198" on="0"/>
        <pt x="1281" y="-26" on="0"/>
        <pt x="1113" y="-26" on="1"/>
        <pt x="998" y="-26" on="0"/>
        <pt x="855" y="51" on="0"/>
        <pt x="788" y="150" on="1"/>
        <pt x="734" y="63" on="0"/>
        <pt x="586" y="-26" on="0"/>
        <pt x="467" y="-26" on="1"/>
        <pt x="320" y="-26" on="0"/>
        <pt x="136" y="152" on="0"/>
        <pt x="136" y="295" on="1"/>
        <pt x="136" y="358" on="0"/>
        <pt x="197" y="484" on="0"/>
        <pt x="254" y="528" on="1"/>
        <pt x="52" y="528" on="1"/>
        <pt x="52" y="680" on="1"/>
        <pt x="531" y="680" on="1"/>
        <pt x="531" y="535" on="1"/>
        <pt x="301" y="481" on="0"/>
        <pt x="301" y="305" on="1"/>
        <pt x="301" y="227" on="0"/>
        <pt x="395" y="135" on="0"/>
        <pt x="478" y="135" on="1"/>
        <pt x="575" y="135" on="0"/>
        <pt x="698" y="261" on="0"/>
        <pt x="708" y="376" on="1"/>
        <pt x="867" y="376" on="1"/>
        <pt x="875" y="263" on="0"/>
        <pt x="1002" y="135" on="0"/>
        <pt x="1096" y="135" on="1"/>
        <pt x="1204" y="135" on="0"/>
        <pt x="1313" y="264" on="0"/>
        <pt x="1313" y="394" on="1"/>
        <pt x="1313" y="575" on="0"/>
        <pt x="1079" y="828" on="0"/>
        <pt x="883" y="869" on="1"/>
        <pt x="849" y="869" on="1"/>
        <pt x="703" y="869" on="0"/>
        <pt x="535" y="994" on="0"/>
        <pt x="535" y="1105" on="1"/>
        <pt x="535" y="1162" on="0"/>
        <pt x="584" y="1248" on="0"/>
        <pt x="634" y="1285" on="1"/>
        <pt x="519" y="1360" on="0"/>
        <pt x="519" y="1483" on="1"/>
        <pt x="519" y="1567" on="0"/>
        <pt x="614" y="1673" on="0"/>
        <pt x="768" y="1717" on="0"/>
        <pt x="913" y="1717" on="1"/>
        <pt x="1507" y="1717" on="1"/>
        <pt x="1507" y="1563" on="1"/>
      </contour>
      <contour>
        <pt x="778" y="-50" on="1"/>
      </contour>
    </TTGlyph>
    <TTGlyph name="glyph00108" xMin="52" yMin="-257" xMax="1507" yMax="1717">
      <contour>
        <pt x="885" y="1563" on="1"/>
        <pt x="797" y="1563" on="0"/>
        <pt x="728" y="1546" on="0"/>
        <pt x="689" y="1506" on="0"/>
        <pt x="689" y="1469" on="1"/>
        <pt x="689" y="1432" on="0"/>
        <pt x="723" y="1388" on="0"/>
        <pt x="792" y="1368" on="0"/>
        <pt x="884" y="1368" on="1"/>
        <pt x="1165" y="1368" on="1"/>
        <pt x="1165" y="1214" on="1"/>
        <pt x="876" y="1214" on="1"/>
        <pt x="773" y="1214" on="0"/>
        <pt x="705" y="1162" on="0"/>
        <pt x="705" y="1118" on="1"/>
        <pt x="705" y="1087" on="0"/>
        <pt x="740" y="1042" on="0"/>
        <pt x="797" y="1023" on="0"/>
        <pt x="860" y="1023" on="1"/>
        <pt x="947" y="1023" on="1"/>
        <pt x="1205" y="954" on="0"/>
        <pt x="1483" y="625" on="0"/>
        <pt x="1483" y="397" on="1"/>
        <pt x="1483" y="198" on="0"/>
        <pt x="1281" y="-26" on="0"/>
        <pt x="1113" y="-26" on="1"/>
        <pt x="998" y="-26" on="0"/>
        <pt x="855" y="51" on="0"/>
        <pt x="788" y="150" on="1"/>
        <pt x="734" y="63" on="0"/>
        <pt x="586" y="-26" on="0"/>
        <pt x="467" y="-26" on="1"/>
        <pt x="320" y="-26" on="0"/>
        <pt x="136" y="152" on="0"/>
        <pt x="136" y="295" on="1"/>
        <pt x="136" y="358" on="0"/>
        <pt x="197" y="484" on="0"/>
        <pt x="254" y="528" on="1"/>
        <pt x="52" y="528" on="1"/>
        <pt x="52" y="680" on="1"/>
        <pt x="531" y="680" on="1"/>
        <pt x="531" y="535" on="1"/>
        <pt x="301" y="481" on="0"/>
        <pt x="301" y="305" on="1"/>
        <pt x="301" y="227" on="0"/>
        <pt x="395" y="135" on="0"/>
        <pt x="478" y="135" on="1"/>
        <pt x="575" y="135" on="0"/>
        <pt x="698" y="261" on="0"/>
        <pt x="708" y="376" on="1"/>
        <pt x="867" y="376" on="1"/>
        <pt x="875" y="263" on="0"/>
        <pt x="1002" y="135" on="0"/>
        <pt x="1096" y="135" on="1"/>
        <pt x="1204" y="135" on="0"/>
        <pt x="1313" y="264" on="0"/>
        <pt x="1313" y="394" on="1"/>
        <pt x="1313" y="575" on="0"/>
        <pt x="1079" y="828" on="0"/>
        <pt x="883" y="869" on="1"/>
        <pt x="849" y="869" on="1"/>
        <pt x="703" y="869" on="0"/>
        <pt x="535" y="994" on="0"/>
        <pt x="535" y="1105" on="1"/>
        <pt x="535" y="1162" on="0"/>
        <pt x="584" y="1248" on="0"/>
        <pt x="634" y="1285" on="1"/>
        <pt x="519" y="1360" on="0"/>
        <pt x="519" y="1483" on="1"/>
        <pt x="519" y="1567" on="0"/>
        <pt x="614" y="1673" on="0"/>
        <pt x="768" y="1717" on="0"/>
        <pt x="913" y="1717" on="1"/>
        <pt x="1507" y="1717" on="1"/>
        <pt x="1507" y="1563" on="1"/>
      </contour>
      <contour>
        <pt x="696" y="-257" on="1"/>
        <pt x="711" y="33" on="1"/>
        <pt x="865" y="33" on="1"/>
        <pt x="880" y="-257" on="1"/>
      </contour>
      <contour>
        <pt x="778" y="-50" on="1"/>
      </contour>
    </TTGlyph>
    <TTGlyph name="glyph00109" xMin="73" yMin="-50" xMax="1662" yMax="1717">
      <contour>
        <pt x="1004" y="869" on="1"/>
        <pt x="858" y="869" on="0"/>
        <pt x="690" y="994" on="0"/>
        <pt x="690" y="1105" on="1"/>
        <pt x="690" y="1162" on="0"/>
        <pt x="739" y="1248" on="0"/>
        <pt x="789" y="1285" on="1"/>
        <pt x="674" y="1360" on="0"/>
        <pt x="674" y="1483" on="1"/>
        <pt x="674" y="1567" on="0"/>
        <pt x="769" y="1673" on="0"/>
        <pt x="923" y="1717" on="0"/>
        <pt x="1068" y="1717" on="1"/>
        <pt x="1662" y="1717" on="1"/>
        <pt x="1662" y="1563" on="1"/>
        <pt x="1040" y="1563" on="1"/>
        <pt x="952" y="1563" on="0"/>
        <pt x="883" y="1546" on="0"/>
        <pt x="844" y="1506" on="0"/>
        <pt x="844" y="1469" on="1"/>
        <pt x="844" y="1432" on="0"/>
        <pt x="878" y="1388" on="0"/>
        <pt x="947" y="1368" on="0"/>
        <pt x="1039" y="1368" on="1"/>
        <pt x="1320" y="1368" on="1"/>
        <pt x="1320" y="1214" on="1"/>
        <pt x="1031" y="1214" on="1"/>
        <pt x="928" y="1214" on="0"/>
        <pt x="860" y="1162" on="0"/>
        <pt x="860" y="1118" on="1"/>
        <pt x="860" y="1087" on="0"/>
        <pt x="895" y="1042" on="0"/>
        <pt x="952" y="1023" on="0"/>
        <pt x="1015" y="1023" on="1"/>
        <pt x="1046" y="1023" on="1"/>
        <pt x="1135" y="1023" on="0"/>
        <pt x="1245" y="1001" on="0"/>
        <pt x="1328" y="941" on="0"/>
        <pt x="1379" y="846" on="0"/>
        <pt x="1379" y="772" on="1"/>
        <pt x="1379" y="658" on="0"/>
        <pt x="1201" y="516" on="0"/>
        <pt x="1048" y="516" on="1"/>
        <pt x="846" y="516" on="0"/>
        <pt x="706" y="627" on="1"/>
        <pt x="657" y="530" on="0"/>
        <pt x="465" y="460" on="1"/>
        <pt x="339" y="413" on="0"/>
        <pt x="252" y="327" on="0"/>
        <pt x="252" y="268" on="1"/>
        <pt x="252" y="205" on="0"/>
        <pt x="340" y="135" on="0"/>
        <pt x="423" y="135" on="1"/>
        <pt x="540" y="135" on="0"/>
        <pt x="677" y="256" on="0"/>
        <pt x="688" y="376" on="1"/>
        <pt x="847" y="376" on="1"/>
        <pt x="855" y="260" on="0"/>
        <pt x="978" y="135" on="0"/>
        <pt x="1080" y="135" on="1"/>
        <pt x="1171" y="135" on="0"/>
        <pt x="1267" y="215" on="0"/>
        <pt x="1267" y="291" on="1"/>
        <pt x="1267" y="368" on="0"/>
        <pt x="1217" y="453" on="1"/>
        <pt x="1368" y="516" on="1"/>
        <pt x="1401" y="465" on="0"/>
        <pt x="1437" y="337" on="0"/>
        <pt x="1437" y="276" on="1"/>
        <pt x="1437" y="134" on="0"/>
        <pt x="1250" y="-26" on="0"/>
        <pt x="1086" y="-26" on="1"/>
        <pt x="972" y="-26" on="0"/>
        <pt x="822" y="60" on="0"/>
        <pt x="768" y="150" on="1"/>
        <pt x="706" y="62" on="0"/>
        <pt x="553" y="-26" on="0"/>
        <pt x="420" y="-26" on="1"/>
        <pt x="262" y="-26" on="0"/>
        <pt x="84" y="139" on="0"/>
        <pt x="84" y="267" on="1"/>
        <pt x="84" y="383" on="0"/>
        <pt x="224" y="533" on="0"/>
        <pt x="388" y="591" on="1"/>
        <pt x="500" y="631" on="0"/>
        <pt x="570" y="707" on="0"/>
        <pt x="570" y="759" on="1"/>
        <pt x="570" y="815" on="0"/>
        <pt x="492" y="874" on="0"/>
        <pt x="415" y="874" on="1"/>
        <pt x="327" y="874" on="0"/>
        <pt x="241" y="807" on="0"/>
        <pt x="241" y="748" on="1"/>
        <pt x="241" y="709" on="0"/>
        <pt x="262" y="662" on="1"/>
        <pt x="109" y="618" on="1"/>
        <pt x="73" y="683" on="0"/>
        <pt x="73" y="767" on="1"/>
        <pt x="73" y="880" on="0"/>
        <pt x="252" y="1023" on="0"/>
        <pt x="415" y="1023" on="1"/>
        <pt x="552" y="1023" on="0"/>
        <pt x="720" y="902" on="0"/>
        <pt x="735" y="790" on="1"/>
        <pt x="793" y="734" on="0"/>
        <pt x="963" y="670" on="0"/>
        <pt x="1052" y="670" on="1"/>
        <pt x="1214" y="670" on="0"/>
        <pt x="1214" y="771" on="1"/>
        <pt x="1214" y="803" on="0"/>
        <pt x="1182" y="846" on="0"/>
        <pt x="1117" y="869" on="0"/>
        <pt x="1049" y="869" on="1"/>
      </contour>
      <contour>
        <pt x="748" y="-50" on="1"/>
      </contour>
    </TTGlyph>
    <TTGlyph name="glyph00110" xMin="72" yMin="-257" xMax="2633" yMax="1717">
      <component glyphName="glyph00678" x="0" y="0" flags="0x200"/>
      <component glyphName="uni0C4D" x="941" y="0" flags="0x0"/>
    </TTGlyph>
    <TTGlyph name="glyph00111" xMin="60" yMin="-199" xMax="2202" yMax="1717">
      <component glyphName="uni0C1E" x="0" y="0" flags="0x200"/>
      <component glyphName="uni0C4D" x="1958" y="0" flags="0x0"/>
    </TTGlyph>
    <TTGlyph name="glyph00112" xMin="78" yMin="-50" xMax="1704" yMax="1717">
      <contour>
        <pt x="575" y="1288" on="1"/>
        <pt x="563" y="1018" on="1"/>
        <pt x="667" y="1001" on="0"/>
        <pt x="780" y="867" on="0"/>
        <pt x="780" y="764" on="1"/>
        <pt x="780" y="628" on="0"/>
        <pt x="616" y="481" on="0"/>
        <pt x="462" y="481" on="1"/>
        <pt x="345" y="481" on="0"/>
        <pt x="241" y="548" on="1"/>
        <pt x="239" y="522" on="0"/>
        <pt x="239" y="496" on="1"/>
        <pt x="239" y="474" on="1"/>
        <pt x="239" y="307" on="0"/>
        <pt x="362" y="135" on="0"/>
        <pt x="485" y="135" on="1"/>
        <pt x="593" y="135" on="0"/>
        <pt x="719" y="255" on="0"/>
        <pt x="730" y="376" on="1"/>
        <pt x="889" y="376" on="1"/>
        <pt x="898" y="262" on="0"/>
        <pt x="1021" y="135" on="0"/>
        <pt x="1117" y="135" on="1"/>
        <pt x="1226" y="135" on="0"/>
        <pt x="1335" y="264" on="0"/>
        <pt x="1335" y="394" on="1"/>
        <pt x="1335" y="707" on="0"/>
        <pt x="1000" y="871" on="1"/>
        <pt x="870" y="881" on="0"/>
        <pt x="732" y="1008" on="0"/>
        <pt x="732" y="1105" on="1"/>
        <pt x="732" y="1162" on="0"/>
        <pt x="781" y="1248" on="0"/>
        <pt x="831" y="1285" on="1"/>
        <pt x="716" y="1360" on="0"/>
        <pt x="716" y="1483" on="1"/>
        <pt x="716" y="1567" on="0"/>
        <pt x="811" y="1673" on="0"/>
        <pt x="965" y="1717" on="0"/>
        <pt x="1110" y="1717" on="1"/>
        <pt x="1704" y="1717" on="1"/>
        <pt x="1704" y="1563" on="1"/>
        <pt x="1082" y="1563" on="1"/>
        <pt x="994" y="1563" on="0"/>
        <pt x="925" y="1546" on="0"/>
        <pt x="886" y="1506" on="0"/>
        <pt x="886" y="1469" on="1"/>
        <pt x="886" y="1432" on="0"/>
        <pt x="920" y="1388" on="0"/>
        <pt x="989" y="1368" on="0"/>
        <pt x="1081" y="1368" on="1"/>
        <pt x="1362" y="1368" on="1"/>
        <pt x="1362" y="1214" on="1"/>
        <pt x="1073" y="1214" on="1"/>
        <pt x="970" y="1214" on="0"/>
        <pt x="902" y="1162" on="0"/>
        <pt x="902" y="1118" on="1"/>
        <pt x="902" y="1076" on="0"/>
        <pt x="965" y="1023" on="0"/>
        <pt x="1066" y="1023" on="1"/>
        <pt x="1280" y="924" on="0"/>
        <pt x="1505" y="602" on="0"/>
        <pt x="1505" y="405" on="1"/>
        <pt x="1505" y="202" on="0"/>
        <pt x="1306" y="-26" on="0"/>
        <pt x="1134" y="-26" on="1"/>
        <pt x="1015" y="-26" on="0"/>
        <pt x="867" y="61" on="0"/>
        <pt x="810" y="150" on="1"/>
        <pt x="758" y="65" on="0"/>
        <pt x="607" y="-26" on="0"/>
        <pt x="485" y="-26" on="1"/>
        <pt x="297" y="-26" on="0"/>
        <pt x="78" y="254" on="0"/>
        <pt x="78" y="476" on="1"/>
        <pt x="78" y="688" on="0"/>
        <pt x="250" y="969" on="0"/>
        <pt x="404" y="1011" on="1"/>
        <pt x="391" y="1288" on="1"/>
      </contour>
      <contour>
        <pt x="267" y="685" on="1"/>
        <pt x="349" y="625" on="0"/>
        <pt x="452" y="625" on="1"/>
        <pt x="535" y="625" on="0"/>
        <pt x="618" y="693" on="0"/>
        <pt x="618" y="756" on="1"/>
        <pt x="618" y="814" on="0"/>
        <pt x="554" y="878" on="0"/>
        <pt x="497" y="878" on="1"/>
        <pt x="420" y="878" on="0"/>
        <pt x="298" y="778" on="0"/>
      </contour>
      <contour>
        <pt x="789" y="-50" on="1"/>
      </contour>
    </TTGlyph>
    <TTGlyph name="glyph00113" xMin="72" yMin="-50" xMax="1215" yMax="1717">
      <component glyphName="glyph00683" x="0" y="0" flags="0x200"/>
      <component glyphName="uni0C4D" x="941" y="0" flags="0x0"/>
    </TTGlyph>
    <TTGlyph name="glyph00114" xMin="72" yMin="-50" xMax="1516" yMax="1717">
      <component glyphName="glyph00684" x="0" y="0" flags="0x200"/>
      <component glyphName="uni0C4D" x="1126" y="0" flags="0x0"/>
    </TTGlyph>
    <TTGlyph name="glyph00115" xMin="72" yMin="-257" xMax="1516" yMax="1717">
      <component glyphName="glyph00685" x="0" y="0" flags="0x200"/>
      <component glyphName="uni0C4D" x="1126" y="0" flags="0x0"/>
    </TTGlyph>
    <TTGlyph name="glyph00116" xMin="68" yMin="-50" xMax="1871" yMax="1717">
      <component glyphName="uni0C23" x="0" y="0" flags="0x200"/>
      <component glyphName="uni0C4D" x="1627" y="0" flags="0x0"/>
    </TTGlyph>
    <TTGlyph name="glyph00117" xMin="73" yMin="-50" xMax="1624" yMax="1717">
      <contour>
        <pt x="1002" y="1563" on="1"/>
        <pt x="914" y="1563" on="0"/>
        <pt x="845" y="1546" on="0"/>
        <pt x="806" y="1506" on="0"/>
        <pt x="806" y="1469" on="1"/>
        <pt x="806" y="1432" on="0"/>
        <pt x="840" y="1388" on="0"/>
        <pt x="909" y="1368" on="0"/>
        <pt x="1001" y="1368" on="1"/>
        <pt x="1282" y="1368" on="1"/>
        <pt x="1282" y="1214" on="1"/>
        <pt x="993" y="1214" on="1"/>
        <pt x="890" y="1214" on="0"/>
        <pt x="822" y="1162" on="0"/>
        <pt x="822" y="1118" on="1"/>
        <pt x="822" y="1087" on="0"/>
        <pt x="857" y="1042" on="0"/>
        <pt x="914" y="1023" on="0"/>
        <pt x="977" y="1023" on="1"/>
        <pt x="998" y="1023" on="1"/>
        <pt x="1027" y="1023" on="0"/>
        <pt x="1226" y="978" on="0"/>
        <pt x="1417" y="855" on="0"/>
        <pt x="1521" y="658" on="0"/>
        <pt x="1521" y="529" on="1"/>
        <pt x="1521" y="259" on="0"/>
        <pt x="1156" y="-26" on="0"/>
        <pt x="807" y="-26" on="1"/>
        <pt x="457" y="-26" on="0"/>
        <pt x="73" y="251" on="0"/>
        <pt x="73" y="486" on="1"/>
        <pt x="73" y="665" on="0"/>
        <pt x="283" y="894" on="0"/>
        <pt x="447" y="894" on="1"/>
        <pt x="574" y="894" on="0"/>
        <pt x="721" y="756" on="0"/>
        <pt x="721" y="642" on="1"/>
        <pt x="721" y="515" on="0"/>
        <pt x="548" y="367" on="0"/>
        <pt x="397" y="367" on="1"/>
        <pt x="303" y="367" on="0"/>
        <pt x="234" y="401" on="1"/>
        <pt x="277" y="272" on="0"/>
        <pt x="568" y="135" on="0"/>
        <pt x="796" y="135" on="1"/>
        <pt x="1045" y="135" on="0"/>
        <pt x="1335" y="296" on="0"/>
        <pt x="1368" y="450" on="1"/>
        <pt x="1279" y="367" on="0"/>
        <pt x="1152" y="367" on="1"/>
        <pt x="1031" y="367" on="0"/>
        <pt x="882" y="504" on="0"/>
        <pt x="882" y="618" on="1"/>
        <pt x="882" y="719" on="0"/>
        <pt x="1020" y="857" on="0"/>
        <pt x="1139" y="862" on="1"/>
        <pt x="1130" y="865" on="0"/>
        <pt x="1106" y="869" on="1"/>
        <pt x="1012" y="869" on="1"/>
        <pt x="876" y="869" on="0"/>
        <pt x="730" y="923" on="0"/>
        <pt x="652" y="1028" on="0"/>
        <pt x="652" y="1105" on="1"/>
        <pt x="652" y="1162" on="0"/>
        <pt x="701" y="1248" on="0"/>
        <pt x="751" y="1285" on="1"/>
        <pt x="636" y="1360" on="0"/>
        <pt x="636" y="1483" on="1"/>
        <pt x="636" y="1567" on="0"/>
        <pt x="731" y="1673" on="0"/>
        <pt x="885" y="1717" on="0"/>
        <pt x="1030" y="1717" on="1"/>
        <pt x="1624" y="1717" on="1"/>
        <pt x="1624" y="1563" on="1"/>
      </contour>
      <contour>
        <pt x="224" y="551" on="1"/>
        <pt x="290" y="510" on="0"/>
        <pt x="372" y="510" on="1"/>
        <pt x="558" y="510" on="0"/>
        <pt x="558" y="641" on="1"/>
        <pt x="558" y="694" on="0"/>
        <pt x="494" y="749" on="0"/>
        <pt x="437" y="749" on="1"/>
        <pt x="355" y="749" on="0"/>
        <pt x="242" y="645" on="0"/>
      </contour>
      <contour>
        <pt x="1359" y="635" on="1"/>
        <pt x="1331" y="689" on="0"/>
        <pt x="1237" y="749" on="0"/>
        <pt x="1180" y="749" on="1"/>
        <pt x="1120" y="749" on="0"/>
        <pt x="1044" y="686" on="0"/>
        <pt x="1044" y="629" on="1"/>
        <pt x="1044" y="574" on="0"/>
        <pt x="1115" y="510" on="0"/>
        <pt x="1179" y="510" on="1"/>
        <pt x="1244" y="510" on="0"/>
        <pt x="1340" y="576" on="0"/>
      </contour>
      <contour>
        <pt x="797" y="-50" on="1"/>
      </contour>
    </TTGlyph>
    <TTGlyph name="glyph00118" xMin="72" yMin="-257" xMax="1446" yMax="1717">
      <component glyphName="glyph00687" x="0" y="0" flags="0x200"/>
      <component glyphName="uni0C4D" x="1074" y="0" flags="0x0"/>
    </TTGlyph>
    <TTGlyph name="glyph00119" xMin="72" yMin="-50" xMax="1446" yMax="1717">
      <component glyphName="glyph00688" x="0" y="0" flags="0x200"/>
      <component glyphName="uni0C4D" x="1074" y="0" flags="0x0"/>
    </TTGlyph>
    <TTGlyph name="glyph00120" xMin="72" yMin="-257" xMax="1446" yMax="1717">
      <component glyphName="glyph00689" x="0" y="0" flags="0x200"/>
      <component glyphName="uni0C4D" x="1074" y="0" flags="0x0"/>
    </TTGlyph>
    <TTGlyph name="glyph00121" xMin="60" yMin="-50" xMax="1364" yMax="1717">
      <contour>
        <pt x="768" y="869" on="1"/>
        <pt x="670" y="869" on="1"/>
        <pt x="524" y="869" on="0"/>
        <pt x="356" y="994" on="0"/>
        <pt x="356" y="1105" on="1"/>
        <pt x="356" y="1162" on="0"/>
        <pt x="405" y="1248" on="0"/>
        <pt x="455" y="1285" on="1"/>
        <pt x="340" y="1360" on="0"/>
        <pt x="340" y="1483" on="1"/>
        <pt x="340" y="1567" on="0"/>
        <pt x="435" y="1673" on="0"/>
        <pt x="589" y="1717" on="0"/>
        <pt x="734" y="1717" on="1"/>
        <pt x="1328" y="1717" on="1"/>
        <pt x="1328" y="1563" on="1"/>
        <pt x="706" y="1563" on="1"/>
        <pt x="618" y="1563" on="0"/>
        <pt x="549" y="1546" on="0"/>
        <pt x="510" y="1506" on="0"/>
        <pt x="510" y="1469" on="1"/>
        <pt x="510" y="1432" on="0"/>
        <pt x="544" y="1388" on="0"/>
        <pt x="613" y="1368" on="0"/>
        <pt x="705" y="1368" on="1"/>
        <pt x="986" y="1368" on="1"/>
        <pt x="986" y="1214" on="1"/>
        <pt x="697" y="1214" on="1"/>
        <pt x="594" y="1214" on="0"/>
        <pt x="526" y="1162" on="0"/>
        <pt x="526" y="1118" on="1"/>
        <pt x="526" y="1087" on="0"/>
        <pt x="561" y="1042" on="0"/>
        <pt x="618" y="1023" on="0"/>
        <pt x="681" y="1023" on="1"/>
        <pt x="815" y="1023" on="1"/>
        <pt x="1072" y="959" on="0"/>
        <pt x="1364" y="625" on="0"/>
        <pt x="1364" y="397" on="1"/>
        <pt x="1364" y="198" on="0"/>
        <pt x="1155" y="-26" on="0"/>
        <pt x="966" y="-26" on="1"/>
        <pt x="840" y="-26" on="0"/>
        <pt x="656" y="93" on="0"/>
        <pt x="524" y="272" on="1"/>
        <pt x="451" y="370" on="0"/>
        <pt x="382" y="429" on="0"/>
        <pt x="336" y="429" on="1"/>
        <pt x="289" y="429" on="0"/>
        <pt x="228" y="353" on="0"/>
        <pt x="228" y="293" on="1"/>
        <pt x="228" y="226" on="0"/>
        <pt x="273" y="101" on="0"/>
        <pt x="325" y="29" on="1"/>
        <pt x="159" y="-27" on="1"/>
        <pt x="107" y="57" on="0"/>
        <pt x="60" y="209" on="0"/>
        <pt x="60" y="292" on="1"/>
        <pt x="60" y="418" on="0"/>
        <pt x="217" y="586" on="0"/>
        <pt x="337" y="586" on="1"/>
        <pt x="407" y="586" on="0"/>
        <pt x="509" y="542" on="0"/>
        <pt x="591" y="464" on="0"/>
        <pt x="671" y="358" on="1"/>
        <pt x="781" y="212" on="0"/>
        <pt x="901" y="135" on="0"/>
        <pt x="978" y="135" on="1"/>
        <pt x="1081" y="135" on="0"/>
        <pt x="1194" y="268" on="0"/>
        <pt x="1194" y="395" on="1"/>
        <pt x="1194" y="570" on="0"/>
        <pt x="981" y="807" on="0"/>
      </contour>
      <contour>
        <pt x="718" y="-50" on="1"/>
      </contour>
    </TTGlyph>
    <TTGlyph name="glyph00122" xMin="60" yMin="-50" xMax="1384" yMax="1717">
      <component glyphName="glyph00692" x="0" y="0" flags="0x200"/>
      <component glyphName="uni0C4D" x="911" y="0" flags="0x0"/>
    </TTGlyph>
    <TTGlyph name="glyph00123" xMin="60" yMin="-257" xMax="1384" yMax="1717">
      <component glyphName="glyph00695" x="0" y="0" flags="0x200"/>
      <component glyphName="uni0C4D" x="911" y="0" flags="0x0"/>
    </TTGlyph>
    <TTGlyph name="glyph00124" xMin="73" yMin="-50" xMax="1662" yMax="1717">
      <contour>
        <pt x="1040" y="1563" on="1"/>
        <pt x="952" y="1563" on="0"/>
        <pt x="883" y="1546" on="0"/>
        <pt x="844" y="1506" on="0"/>
        <pt x="844" y="1469" on="1"/>
        <pt x="844" y="1432" on="0"/>
        <pt x="878" y="1388" on="0"/>
        <pt x="947" y="1368" on="0"/>
        <pt x="1039" y="1368" on="1"/>
        <pt x="1320" y="1368" on="1"/>
        <pt x="1320" y="1214" on="1"/>
        <pt x="1031" y="1214" on="1"/>
        <pt x="928" y="1214" on="0"/>
        <pt x="860" y="1162" on="0"/>
        <pt x="860" y="1118" on="1"/>
        <pt x="860" y="1076" on="0"/>
        <pt x="923" y="1023" on="0"/>
        <pt x="1024" y="1023" on="1"/>
        <pt x="1238" y="924" on="0"/>
        <pt x="1463" y="602" on="0"/>
        <pt x="1463" y="405" on="1"/>
        <pt x="1463" y="202" on="0"/>
        <pt x="1264" y="-26" on="0"/>
        <pt x="1092" y="-26" on="1"/>
        <pt x="973" y="-26" on="0"/>
        <pt x="825" y="61" on="0"/>
        <pt x="768" y="150" on="1"/>
        <pt x="706" y="62" on="0"/>
        <pt x="553" y="-26" on="0"/>
        <pt x="420" y="-26" on="1"/>
        <pt x="262" y="-26" on="0"/>
        <pt x="84" y="139" on="0"/>
        <pt x="84" y="267" on="1"/>
        <pt x="84" y="383" on="0"/>
        <pt x="224" y="533" on="0"/>
        <pt x="388" y="591" on="1"/>
        <pt x="500" y="631" on="0"/>
        <pt x="570" y="707" on="0"/>
        <pt x="570" y="759" on="1"/>
        <pt x="570" y="815" on="0"/>
        <pt x="492" y="874" on="0"/>
        <pt x="415" y="874" on="1"/>
        <pt x="327" y="874" on="0"/>
        <pt x="241" y="807" on="0"/>
        <pt x="241" y="748" on="1"/>
        <pt x="241" y="709" on="0"/>
        <pt x="262" y="662" on="1"/>
        <pt x="109" y="618" on="1"/>
        <pt x="73" y="683" on="0"/>
        <pt x="73" y="767" on="1"/>
        <pt x="73" y="880" on="0"/>
        <pt x="252" y="1023" on="0"/>
        <pt x="415" y="1023" on="1"/>
        <pt x="570" y="1023" on="0"/>
        <pt x="737" y="874" on="0"/>
        <pt x="737" y="758" on="1"/>
        <pt x="737" y="653" on="0"/>
        <pt x="617" y="516" on="0"/>
        <pt x="465" y="460" on="1"/>
        <pt x="339" y="413" on="0"/>
        <pt x="252" y="327" on="0"/>
        <pt x="252" y="268" on="1"/>
        <pt x="252" y="205" on="0"/>
        <pt x="340" y="135" on="0"/>
        <pt x="423" y="135" on="1"/>
        <pt x="540" y="135" on="0"/>
        <pt x="677" y="256" on="0"/>
        <pt x="688" y="376" on="1"/>
        <pt x="847" y="376" on="1"/>
        <pt x="856" y="262" on="0"/>
        <pt x="979" y="135" on="0"/>
        <pt x="1075" y="135" on="1"/>
        <pt x="1184" y="135" on="0"/>
        <pt x="1293" y="264" on="0"/>
        <pt x="1293" y="394" on="1"/>
        <pt x="1293" y="552" on="0"/>
        <pt x="1127" y="791" on="0"/>
        <pt x="961" y="872" on="1"/>
        <pt x="830" y="881" on="0"/>
        <pt x="690" y="1005" on="0"/>
        <pt x="690" y="1105" on="1"/>
        <pt x="690" y="1162" on="0"/>
        <pt x="739" y="1248" on="0"/>
        <pt x="789" y="1285" on="1"/>
        <pt x="674" y="1360" on="0"/>
        <pt x="674" y="1483" on="1"/>
        <pt x="674" y="1567" on="0"/>
        <pt x="769" y="1673" on="0"/>
        <pt x="923" y="1717" on="0"/>
        <pt x="1068" y="1717" on="1"/>
        <pt x="1662" y="1717" on="1"/>
        <pt x="1662" y="1563" on="1"/>
      </contour>
      <contour>
        <pt x="768" y="-50" on="1"/>
      </contour>
    </TTGlyph>
    <TTGlyph name="glyph00125" xMin="73" yMin="-257" xMax="1662" yMax="1717">
      <contour>
        <pt x="1040" y="1563" on="1"/>
        <pt x="952" y="1563" on="0"/>
        <pt x="883" y="1546" on="0"/>
        <pt x="844" y="1506" on="0"/>
        <pt x="844" y="1469" on="1"/>
        <pt x="844" y="1432" on="0"/>
        <pt x="878" y="1388" on="0"/>
        <pt x="947" y="1368" on="0"/>
        <pt x="1039" y="1368" on="1"/>
        <pt x="1320" y="1368" on="1"/>
        <pt x="1320" y="1214" on="1"/>
        <pt x="1031" y="1214" on="1"/>
        <pt x="928" y="1214" on="0"/>
        <pt x="860" y="1162" on="0"/>
        <pt x="860" y="1118" on="1"/>
        <pt x="860" y="1076" on="0"/>
        <pt x="923" y="1023" on="0"/>
        <pt x="1024" y="1023" on="1"/>
        <pt x="1238" y="924" on="0"/>
        <pt x="1463" y="602" on="0"/>
        <pt x="1463" y="405" on="1"/>
        <pt x="1463" y="202" on="0"/>
        <pt x="1264" y="-26" on="0"/>
        <pt x="1092" y="-26" on="1"/>
        <pt x="973" y="-26" on="0"/>
        <pt x="825" y="61" on="0"/>
        <pt x="768" y="150" on="1"/>
        <pt x="706" y="62" on="0"/>
        <pt x="553" y="-26" on="0"/>
        <pt x="420" y="-26" on="1"/>
        <pt x="262" y="-26" on="0"/>
        <pt x="84" y="139" on="0"/>
        <pt x="84" y="267" on="1"/>
        <pt x="84" y="383" on="0"/>
        <pt x="224" y="533" on="0"/>
        <pt x="388" y="591" on="1"/>
        <pt x="500" y="631" on="0"/>
        <pt x="570" y="707" on="0"/>
        <pt x="570" y="759" on="1"/>
        <pt x="570" y="815" on="0"/>
        <pt x="492" y="874" on="0"/>
        <pt x="415" y="874" on="1"/>
        <pt x="327" y="874" on="0"/>
        <pt x="241" y="807" on="0"/>
        <pt x="241" y="748" on="1"/>
        <pt x="241" y="709" on="0"/>
        <pt x="262" y="662" on="1"/>
        <pt x="109" y="618" on="1"/>
        <pt x="73" y="683" on="0"/>
        <pt x="73" y="767" on="1"/>
        <pt x="73" y="880" on="0"/>
        <pt x="252" y="1023" on="0"/>
        <pt x="415" y="1023" on="1"/>
        <pt x="570" y="1023" on="0"/>
        <pt x="737" y="874" on="0"/>
        <pt x="737" y="758" on="1"/>
        <pt x="737" y="653" on="0"/>
        <pt x="617" y="516" on="0"/>
        <pt x="465" y="460" on="1"/>
        <pt x="339" y="413" on="0"/>
        <pt x="252" y="327" on="0"/>
        <pt x="252" y="268" on="1"/>
        <pt x="252" y="205" on="0"/>
        <pt x="340" y="135" on="0"/>
        <pt x="423" y="135" on="1"/>
        <pt x="540" y="135" on="0"/>
        <pt x="677" y="256" on="0"/>
        <pt x="688" y="376" on="1"/>
        <pt x="847" y="376" on="1"/>
        <pt x="856" y="262" on="0"/>
        <pt x="979" y="135" on="0"/>
        <pt x="1075" y="135" on="1"/>
        <pt x="1184" y="135" on="0"/>
        <pt x="1293" y="264" on="0"/>
        <pt x="1293" y="394" on="1"/>
        <pt x="1293" y="552" on="0"/>
        <pt x="1127" y="791" on="0"/>
        <pt x="961" y="872" on="1"/>
        <pt x="830" y="881" on="0"/>
        <pt x="690" y="1005" on="0"/>
        <pt x="690" y="1105" on="1"/>
        <pt x="690" y="1162" on="0"/>
        <pt x="739" y="1248" on="0"/>
        <pt x="789" y="1285" on="1"/>
        <pt x="674" y="1360" on="0"/>
        <pt x="674" y="1483" on="1"/>
        <pt x="674" y="1567" on="0"/>
        <pt x="769" y="1673" on="0"/>
        <pt x="923" y="1717" on="0"/>
        <pt x="1068" y="1717" on="1"/>
        <pt x="1662" y="1717" on="1"/>
        <pt x="1662" y="1563" on="1"/>
      </contour>
      <contour>
        <pt x="674" y="-257" on="1"/>
        <pt x="689" y="33" on="1"/>
        <pt x="843" y="33" on="1"/>
        <pt x="858" y="-257" on="1"/>
      </contour>
      <contour>
        <pt x="768" y="-50" on="1"/>
      </contour>
    </TTGlyph>
    <TTGlyph name="glyph00126" xMin="60" yMin="-50" xMax="2093" yMax="1717">
      <contour>
        <pt x="1379" y="323" on="1"/>
        <pt x="1459" y="225" on="0"/>
        <pt x="1616" y="135" on="0"/>
        <pt x="1708" y="135" on="1"/>
        <pt x="1813" y="135" on="0"/>
        <pt x="1923" y="268" on="0"/>
        <pt x="1923" y="394" on="1"/>
        <pt x="1923" y="546" on="0"/>
        <pt x="1748" y="780" on="0"/>
        <pt x="1564" y="865" on="1"/>
        <pt x="1640" y="1023" on="1"/>
        <pt x="1851" y="931" on="0"/>
        <pt x="2093" y="603" on="0"/>
        <pt x="2093" y="405" on="1"/>
        <pt x="2093" y="199" on="0"/>
        <pt x="1887" y="-26" on="0"/>
        <pt x="1695" y="-26" on="1"/>
        <pt x="1486" y="-26" on="0"/>
        <pt x="1328" y="154" on="1"/>
        <pt x="1276" y="64" on="0"/>
        <pt x="1105" y="-26" on="0"/>
        <pt x="986" y="-26" on="1"/>
        <pt x="891" y="-26" on="0"/>
        <pt x="737" y="54" on="0"/>
        <pt x="658" y="145" on="1"/>
        <pt x="587" y="48" on="0"/>
        <pt x="451" y="-26" on="0"/>
        <pt x="359" y="-26" on="1"/>
        <pt x="218" y="-26" on="0"/>
        <pt x="60" y="143" on="0"/>
        <pt x="60" y="280" on="1"/>
        <pt x="60" y="410" on="0"/>
        <pt x="224" y="576" on="0"/>
        <pt x="349" y="576" on="1"/>
        <pt x="441" y="576" on="0"/>
        <pt x="590" y="487" on="0"/>
        <pt x="713" y="328" on="1"/>
        <pt x="803" y="210" on="0"/>
        <pt x="920" y="135" on="0"/>
        <pt x="998" y="135" on="1"/>
        <pt x="1103" y="135" on="0"/>
        <pt x="1214" y="269" on="0"/>
        <pt x="1214" y="394" on="1"/>
        <pt x="1214" y="569" on="0"/>
        <pt x="1001" y="807" on="0"/>
        <pt x="788" y="869" on="1"/>
        <pt x="690" y="869" on="1"/>
        <pt x="544" y="869" on="0"/>
        <pt x="376" y="994" on="0"/>
        <pt x="376" y="1105" on="1"/>
        <pt x="376" y="1162" on="0"/>
        <pt x="425" y="1248" on="0"/>
        <pt x="475" y="1285" on="1"/>
        <pt x="360" y="1360" on="0"/>
        <pt x="360" y="1483" on="1"/>
        <pt x="360" y="1567" on="0"/>
        <pt x="455" y="1673" on="0"/>
        <pt x="609" y="1717" on="0"/>
        <pt x="754" y="1717" on="1"/>
        <pt x="1348" y="1717" on="1"/>
        <pt x="1348" y="1563" on="1"/>
        <pt x="726" y="1563" on="1"/>
        <pt x="638" y="1563" on="0"/>
        <pt x="569" y="1546" on="0"/>
        <pt x="530" y="1506" on="0"/>
        <pt x="530" y="1469" on="1"/>
        <pt x="530" y="1432" on="0"/>
        <pt x="564" y="1388" on="0"/>
        <pt x="633" y="1368" on="0"/>
        <pt x="725" y="1368" on="1"/>
        <pt x="1006" y="1368" on="1"/>
        <pt x="1006" y="1214" on="1"/>
        <pt x="717" y="1214" on="1"/>
        <pt x="614" y="1214" on="0"/>
        <pt x="546" y="1162" on="0"/>
        <pt x="546" y="1118" on="1"/>
        <pt x="546" y="1087" on="0"/>
        <pt x="581" y="1042" on="0"/>
        <pt x="638" y="1023" on="0"/>
        <pt x="701" y="1023" on="1"/>
        <pt x="835" y="1023" on="1"/>
        <pt x="1092" y="959" on="0"/>
        <pt x="1384" y="625" on="0"/>
        <pt x="1384" y="397" on="1"/>
        <pt x="1384" y="359" on="0"/>
      </contour>
      <contour>
        <pt x="556" y="272" on="1"/>
        <pt x="484" y="367" on="0"/>
        <pt x="404" y="423" on="0"/>
        <pt x="353" y="423" on="1"/>
        <pt x="293" y="423" on="0"/>
        <pt x="220" y="344" on="0"/>
        <pt x="220" y="277" on="1"/>
        <pt x="220" y="211" on="0"/>
        <pt x="300" y="127" on="0"/>
        <pt x="368" y="127" on="1"/>
        <pt x="434" y="127" on="0"/>
        <pt x="525" y="202" on="0"/>
      </contour>
      <contour>
        <pt x="1083" y="-50" on="1"/>
      </contour>
    </TTGlyph>
    <TTGlyph name="glyph00127" xMin="72" yMin="-50" xMax="2560" yMax="1717">
      <contour>
        <pt x="1795" y="153" on="1"/>
        <pt x="1745" y="63" on="0"/>
        <pt x="1574" y="-26" on="0"/>
        <pt x="1453" y="-26" on="1"/>
        <pt x="1225" y="-26" on="0"/>
        <pt x="1057" y="188" on="1"/>
        <pt x="987" y="84" on="0"/>
        <pt x="755" y="-26" on="0"/>
        <pt x="607" y="-26" on="1"/>
        <pt x="363" y="-26" on="0"/>
        <pt x="72" y="254" on="0"/>
        <pt x="72" y="483" on="1"/>
        <pt x="72" y="641" on="0"/>
        <pt x="208" y="890" on="0"/>
        <pt x="452" y="1023" on="0"/>
        <pt x="607" y="1023" on="1"/>
        <pt x="764" y="1023" on="0"/>
        <pt x="1010" y="890" on="0"/>
        <pt x="1142" y="644" on="0"/>
        <pt x="1142" y="486" on="1"/>
        <pt x="1142" y="409" on="0"/>
        <pt x="1124" y="340" on="1"/>
        <pt x="1205" y="236" on="0"/>
        <pt x="1369" y="135" on="0"/>
        <pt x="1466" y="135" on="1"/>
        <pt x="1571" y="135" on="0"/>
        <pt x="1681" y="268" on="0"/>
        <pt x="1681" y="394" on="1"/>
        <pt x="1681" y="550" on="0"/>
        <pt x="1511" y="789" on="0"/>
        <pt x="1341" y="871" on="1"/>
        <pt x="1204" y="876" on="0"/>
        <pt x="1054" y="1000" on="0"/>
        <pt x="1054" y="1105" on="1"/>
        <pt x="1054" y="1162" on="0"/>
        <pt x="1103" y="1248" on="0"/>
        <pt x="1153" y="1285" on="1"/>
        <pt x="1038" y="1360" on="0"/>
        <pt x="1038" y="1483" on="1"/>
        <pt x="1038" y="1567" on="0"/>
        <pt x="1133" y="1673" on="0"/>
        <pt x="1287" y="1717" on="0"/>
        <pt x="1432" y="1717" on="1"/>
        <pt x="2026" y="1717" on="1"/>
        <pt x="2026" y="1563" on="1"/>
        <pt x="1404" y="1563" on="1"/>
        <pt x="1316" y="1563" on="0"/>
        <pt x="1247" y="1546" on="0"/>
        <pt x="1208" y="1506" on="0"/>
        <pt x="1208" y="1469" on="1"/>
        <pt x="1208" y="1432" on="0"/>
        <pt x="1242" y="1388" on="0"/>
        <pt x="1311" y="1368" on="0"/>
        <pt x="1403" y="1368" on="1"/>
        <pt x="1684" y="1368" on="1"/>
        <pt x="1684" y="1214" on="1"/>
        <pt x="1395" y="1214" on="1"/>
        <pt x="1292" y="1214" on="0"/>
        <pt x="1224" y="1162" on="0"/>
        <pt x="1224" y="1118" on="1"/>
        <pt x="1224" y="1077" on="0"/>
        <pt x="1287" y="1023" on="0"/>
        <pt x="1379" y="1023" on="1"/>
        <pt x="1412" y="1023" on="1"/>
        <pt x="1626" y="924" on="0"/>
        <pt x="1851" y="602" on="0"/>
        <pt x="1851" y="405" on="1"/>
        <pt x="1851" y="363" on="0"/>
        <pt x="1846" y="324" on="1"/>
        <pt x="1926" y="226" on="0"/>
        <pt x="2084" y="135" on="0"/>
        <pt x="2175" y="135" on="1"/>
        <pt x="2280" y="135" on="0"/>
        <pt x="2390" y="268" on="0"/>
        <pt x="2390" y="394" on="1"/>
        <pt x="2390" y="546" on="0"/>
        <pt x="2215" y="780" on="0"/>
        <pt x="2031" y="865" on="1"/>
        <pt x="2107" y="1023" on="1"/>
        <pt x="2318" y="931" on="0"/>
        <pt x="2560" y="603" on="0"/>
        <pt x="2560" y="405" on="1"/>
        <pt x="2560" y="199" on="0"/>
        <pt x="2354" y="-26" on="0"/>
        <pt x="2162" y="-26" on="1"/>
        <pt x="1954" y="-26" on="0"/>
      </contour>
      <contour>
        <pt x="606" y="135" on="1"/>
        <pt x="778" y="135" on="0"/>
        <pt x="973" y="327" on="0"/>
        <pt x="973" y="491" on="1"/>
        <pt x="973" y="659" on="0"/>
        <pt x="778" y="862" on="0"/>
        <pt x="606" y="862" on="1"/>
        <pt x="435" y="862" on="0"/>
        <pt x="240" y="662" on="0"/>
        <pt x="240" y="501" on="1"/>
        <pt x="240" y="333" on="0"/>
        <pt x="433" y="135" on="0"/>
      </contour>
      <contour>
        <pt x="1316" y="-50" on="1"/>
      </contour>
    </TTGlyph>
    <TTGlyph name="glyph00128" xMin="72" yMin="-50" xMax="1215" yMax="1717">
      <component glyphName="glyph00711" x="0" y="0" flags="0x200"/>
      <component glyphName="uni0C4D" x="941" y="0" flags="0x0"/>
    </TTGlyph>
    <TTGlyph name="glyph00129" xMin="73" yMin="-50" xMax="1782" yMax="1717">
      <component glyphName="uni0C31" x="0" y="0" flags="0x200"/>
      <component glyphName="uni0C4D" x="1538" y="0" flags="0x0"/>
    </TTGlyph>
    <TTGlyph name="glyph00130" xMin="72" yMin="-50" xMax="1667" yMax="1717">
      <contour>
        <pt x="1045" y="1563" on="1"/>
        <pt x="957" y="1563" on="0"/>
        <pt x="888" y="1546" on="0"/>
        <pt x="849" y="1506" on="0"/>
        <pt x="849" y="1469" on="1"/>
        <pt x="849" y="1432" on="0"/>
        <pt x="883" y="1388" on="0"/>
        <pt x="952" y="1368" on="0"/>
        <pt x="1044" y="1368" on="1"/>
        <pt x="1325" y="1368" on="1"/>
        <pt x="1325" y="1214" on="1"/>
        <pt x="1036" y="1214" on="1"/>
        <pt x="933" y="1214" on="0"/>
        <pt x="865" y="1162" on="0"/>
        <pt x="865" y="1118" on="1"/>
        <pt x="865" y="1077" on="0"/>
        <pt x="928" y="1023" on="0"/>
        <pt x="1020" y="1023" on="1"/>
        <pt x="1099" y="1023" on="1"/>
        <pt x="1241" y="919" on="0"/>
        <pt x="1380" y="667" on="0"/>
        <pt x="1380" y="513" on="1"/>
        <pt x="1380" y="257" on="0"/>
        <pt x="1047" y="-26" on="0"/>
        <pt x="729" y="-26" on="1"/>
        <pt x="422" y="-26" on="0"/>
        <pt x="72" y="287" on="0"/>
        <pt x="72" y="550" on="1"/>
        <pt x="72" y="767" on="0"/>
        <pt x="289" y="1023" on="0"/>
        <pt x="460" y="1023" on="1"/>
        <pt x="583" y="1023" on="0"/>
        <pt x="731" y="882" on="0"/>
        <pt x="731" y="764" on="1"/>
        <pt x="731" y="631" on="0"/>
        <pt x="565" y="481" on="0"/>
        <pt x="412" y="481" on="1"/>
        <pt x="319" y="481" on="0"/>
        <pt x="233" y="528" on="1"/>
        <pt x="242" y="346" on="0"/>
        <pt x="503" y="135" on="0"/>
        <pt x="723" y="135" on="1"/>
        <pt x="957" y="135" on="0"/>
        <pt x="1209" y="330" on="0"/>
        <pt x="1209" y="518" on="1"/>
        <pt x="1209" y="623" on="0"/>
        <pt x="1108" y="809" on="0"/>
        <pt x="1016" y="869" on="1"/>
        <pt x="1009" y="869" on="1"/>
        <pt x="863" y="869" on="0"/>
        <pt x="695" y="994" on="0"/>
        <pt x="695" y="1105" on="1"/>
        <pt x="695" y="1162" on="0"/>
        <pt x="744" y="1248" on="0"/>
        <pt x="794" y="1285" on="1"/>
        <pt x="679" y="1360" on="0"/>
        <pt x="679" y="1483" on="1"/>
        <pt x="679" y="1567" on="0"/>
        <pt x="774" y="1673" on="0"/>
        <pt x="928" y="1717" on="0"/>
        <pt x="1073" y="1717" on="1"/>
        <pt x="1667" y="1717" on="1"/>
        <pt x="1667" y="1563" on="1"/>
      </contour>
      <contour>
        <pt x="241" y="674" on="1"/>
        <pt x="312" y="625" on="0"/>
        <pt x="402" y="625" on="1"/>
        <pt x="485" y="625" on="0"/>
        <pt x="569" y="693" on="0"/>
        <pt x="569" y="756" on="1"/>
        <pt x="569" y="812" on="0"/>
        <pt x="504" y="878" on="0"/>
        <pt x="450" y="878" on="1"/>
        <pt x="372" y="878" on="0"/>
        <pt x="261" y="773" on="0"/>
      </contour>
      <contour>
        <pt x="726" y="-50" on="1"/>
      </contour>
    </TTGlyph>
    <TTGlyph name="glyph00131" xMin="60" yMin="-50" xMax="1490" yMax="1717">
      <contour>
        <pt x="868" y="1563" on="1"/>
        <pt x="780" y="1563" on="0"/>
        <pt x="711" y="1546" on="0"/>
        <pt x="672" y="1506" on="0"/>
        <pt x="672" y="1469" on="1"/>
        <pt x="672" y="1432" on="0"/>
        <pt x="706" y="1388" on="0"/>
        <pt x="775" y="1368" on="0"/>
        <pt x="867" y="1368" on="1"/>
        <pt x="1148" y="1368" on="1"/>
        <pt x="1148" y="1214" on="1"/>
        <pt x="859" y="1214" on="1"/>
        <pt x="756" y="1214" on="0"/>
        <pt x="688" y="1162" on="0"/>
        <pt x="688" y="1118" on="1"/>
        <pt x="688" y="1087" on="0"/>
        <pt x="723" y="1042" on="0"/>
        <pt x="780" y="1023" on="0"/>
        <pt x="843" y="1023" on="1"/>
        <pt x="926" y="1023" on="1"/>
        <pt x="1089" y="978" on="0"/>
        <pt x="1257" y="793" on="0"/>
        <pt x="1257" y="663" on="1"/>
        <pt x="1257" y="533" on="0"/>
        <pt x="1085" y="364" on="0"/>
        <pt x="916" y="331" on="1"/>
        <pt x="989" y="270" on="0"/>
        <pt x="989" y="193" on="1"/>
        <pt x="989" y="86" on="0"/>
        <pt x="822" y="-26" on="0"/>
        <pt x="673" y="-26" on="1"/>
        <pt x="534" y="-26" on="0"/>
        <pt x="366" y="84" on="0"/>
        <pt x="366" y="189" on="1"/>
        <pt x="366" y="281" on="0"/>
        <pt x="450" y="338" on="1"/>
        <pt x="260" y="366" on="0"/>
        <pt x="60" y="529" on="0"/>
        <pt x="60" y="657" on="1"/>
        <pt x="60" y="761" on="0"/>
        <pt x="232" y="905" on="0"/>
        <pt x="374" y="905" on="1"/>
        <pt x="519" y="905" on="0"/>
        <pt x="680" y="766" on="0"/>
        <pt x="680" y="661" on="1"/>
        <pt x="680" y="539" on="0"/>
        <pt x="545" y="461" on="1"/>
        <pt x="567" y="458" on="0"/>
        <pt x="631" y="454" on="1"/>
        <pt x="695" y="449" on="0"/>
        <pt x="739" y="440" on="1"/>
        <pt x="911" y="453" on="0"/>
        <pt x="1088" y="567" on="0"/>
        <pt x="1088" y="662" on="1"/>
        <pt x="1088" y="735" on="0"/>
        <pt x="993" y="836" on="0"/>
        <pt x="898" y="869" on="1"/>
        <pt x="832" y="869" on="1"/>
        <pt x="686" y="869" on="0"/>
        <pt x="518" y="994" on="0"/>
        <pt x="518" y="1105" on="1"/>
        <pt x="518" y="1162" on="0"/>
        <pt x="567" y="1248" on="0"/>
        <pt x="617" y="1285" on="1"/>
        <pt x="502" y="1360" on="0"/>
        <pt x="502" y="1483" on="1"/>
        <pt x="502" y="1567" on="0"/>
        <pt x="597" y="1673" on="0"/>
        <pt x="751" y="1717" on="0"/>
        <pt x="896" y="1717" on="1"/>
        <pt x="1490" y="1717" on="1"/>
        <pt x="1490" y="1563" on="1"/>
      </contour>
      <contour>
        <pt x="354" y="499" on="1"/>
        <pt x="432" y="521" on="0"/>
        <pt x="518" y="597" on="0"/>
        <pt x="518" y="647" on="1"/>
        <pt x="518" y="699" on="0"/>
        <pt x="443" y="759" on="0"/>
        <pt x="371" y="759" on="1"/>
        <pt x="303" y="759" on="0"/>
        <pt x="223" y="695" on="0"/>
        <pt x="223" y="646" on="1"/>
        <pt x="223" y="609" on="0"/>
        <pt x="245" y="560" on="0"/>
        <pt x="303" y="515" on="0"/>
      </contour>
      <contour>
        <pt x="674" y="311" on="1"/>
        <pt x="526" y="283" on="0"/>
        <pt x="526" y="199" on="1"/>
        <pt x="526" y="157" on="0"/>
        <pt x="607" y="112" on="0"/>
        <pt x="680" y="112" on="1"/>
        <pt x="752" y="112" on="0"/>
        <pt x="829" y="157" on="0"/>
        <pt x="829" y="199" on="1"/>
        <pt x="829" y="242" on="0"/>
        <pt x="749" y="300" on="0"/>
      </contour>
      <contour>
        <pt x="660" y="-50" on="1"/>
      </contour>
    </TTGlyph>
    <TTGlyph name="glyph00132" xMin="60" yMin="-50" xMax="1384" yMax="1717">
      <contour>
        <pt x="726" y="1563" on="1"/>
        <pt x="638" y="1563" on="0"/>
        <pt x="569" y="1546" on="0"/>
        <pt x="530" y="1506" on="0"/>
        <pt x="530" y="1469" on="1"/>
        <pt x="530" y="1432" on="0"/>
        <pt x="564" y="1388" on="0"/>
        <pt x="633" y="1368" on="0"/>
        <pt x="725" y="1368" on="1"/>
        <pt x="1006" y="1368" on="1"/>
        <pt x="1006" y="1214" on="1"/>
        <pt x="717" y="1214" on="1"/>
        <pt x="614" y="1214" on="0"/>
        <pt x="546" y="1162" on="0"/>
        <pt x="546" y="1118" on="1"/>
        <pt x="546" y="1087" on="0"/>
        <pt x="581" y="1042" on="0"/>
        <pt x="638" y="1023" on="0"/>
        <pt x="701" y="1023" on="1"/>
        <pt x="835" y="1023" on="1"/>
        <pt x="1092" y="959" on="0"/>
        <pt x="1384" y="625" on="0"/>
        <pt x="1384" y="397" on="1"/>
        <pt x="1384" y="200" on="0"/>
        <pt x="1175" y="-26" on="0"/>
        <pt x="986" y="-26" on="1"/>
        <pt x="891" y="-26" on="0"/>
        <pt x="737" y="54" on="0"/>
        <pt x="658" y="145" on="1"/>
        <pt x="587" y="48" on="0"/>
        <pt x="451" y="-26" on="0"/>
        <pt x="359" y="-26" on="1"/>
        <pt x="218" y="-26" on="0"/>
        <pt x="60" y="143" on="0"/>
        <pt x="60" y="280" on="1"/>
        <pt x="60" y="410" on="0"/>
        <pt x="224" y="576" on="0"/>
        <pt x="349" y="576" on="1"/>
        <pt x="441" y="576" on="0"/>
        <pt x="590" y="487" on="0"/>
        <pt x="713" y="328" on="1"/>
        <pt x="803" y="210" on="0"/>
        <pt x="920" y="135" on="0"/>
        <pt x="998" y="135" on="1"/>
        <pt x="1103" y="135" on="0"/>
        <pt x="1214" y="269" on="0"/>
        <pt x="1214" y="394" on="1"/>
        <pt x="1214" y="569" on="0"/>
        <pt x="1001" y="807" on="0"/>
        <pt x="788" y="869" on="1"/>
        <pt x="690" y="869" on="1"/>
        <pt x="544" y="869" on="0"/>
        <pt x="376" y="994" on="0"/>
        <pt x="376" y="1105" on="1"/>
        <pt x="376" y="1162" on="0"/>
        <pt x="425" y="1248" on="0"/>
        <pt x="475" y="1285" on="1"/>
        <pt x="360" y="1360" on="0"/>
        <pt x="360" y="1483" on="1"/>
        <pt x="360" y="1567" on="0"/>
        <pt x="455" y="1673" on="0"/>
        <pt x="609" y="1717" on="0"/>
        <pt x="754" y="1717" on="1"/>
        <pt x="1348" y="1717" on="1"/>
        <pt x="1348" y="1563" on="1"/>
      </contour>
      <contour>
        <pt x="556" y="272" on="1"/>
        <pt x="484" y="367" on="0"/>
        <pt x="404" y="423" on="0"/>
        <pt x="353" y="423" on="1"/>
        <pt x="293" y="423" on="0"/>
        <pt x="220" y="344" on="0"/>
        <pt x="220" y="277" on="1"/>
        <pt x="220" y="211" on="0"/>
        <pt x="300" y="127" on="0"/>
        <pt x="368" y="127" on="1"/>
        <pt x="434" y="127" on="0"/>
        <pt x="525" y="202" on="0"/>
      </contour>
      <contour>
        <pt x="728" y="-50" on="1"/>
      </contour>
    </TTGlyph>
    <TTGlyph name="glyph00133" xMin="60" yMin="-50" xMax="1310" yMax="1717">
      <contour>
        <pt x="688" y="1563" on="1"/>
        <pt x="600" y="1563" on="0"/>
        <pt x="531" y="1546" on="0"/>
        <pt x="492" y="1506" on="0"/>
        <pt x="492" y="1469" on="1"/>
        <pt x="492" y="1432" on="0"/>
        <pt x="526" y="1388" on="0"/>
        <pt x="595" y="1368" on="0"/>
        <pt x="687" y="1368" on="1"/>
        <pt x="968" y="1368" on="1"/>
        <pt x="968" y="1214" on="1"/>
        <pt x="679" y="1214" on="1"/>
        <pt x="576" y="1214" on="0"/>
        <pt x="508" y="1162" on="0"/>
        <pt x="508" y="1118" on="1"/>
        <pt x="508" y="1087" on="0"/>
        <pt x="543" y="1042" on="0"/>
        <pt x="600" y="1023" on="0"/>
        <pt x="663" y="1023" on="1"/>
        <pt x="810" y="1023" on="1"/>
        <pt x="893" y="994" on="0"/>
        <pt x="997" y="868" on="0"/>
        <pt x="997" y="798" on="1"/>
        <pt x="997" y="737" on="0"/>
        <pt x="947" y="629" on="0"/>
        <pt x="898" y="582" on="1"/>
        <pt x="981" y="519" on="0"/>
        <pt x="1064" y="356" on="0"/>
        <pt x="1064" y="255" on="1"/>
        <pt x="1064" y="124" on="0"/>
        <pt x="890" y="-26" on="0"/>
        <pt x="739" y="-26" on="1"/>
        <pt x="590" y="-26" on="0"/>
        <pt x="425" y="123" on="0"/>
        <pt x="425" y="243" on="1"/>
        <pt x="425" y="325" on="0"/>
        <pt x="523" y="469" on="0"/>
        <pt x="649" y="556" on="1"/>
        <pt x="605" y="570" on="0"/>
        <pt x="509" y="585" on="0"/>
        <pt x="458" y="585" on="1"/>
        <pt x="339" y="585" on="0"/>
        <pt x="228" y="506" on="0"/>
        <pt x="228" y="418" on="1"/>
        <pt x="228" y="360" on="0"/>
        <pt x="261" y="288" on="1"/>
        <pt x="104" y="244" on="1"/>
        <pt x="84" y="287" on="0"/>
        <pt x="60" y="393" on="0"/>
        <pt x="60" y="436" on="1"/>
        <pt x="60" y="575" on="0"/>
        <pt x="256" y="734" on="0"/>
        <pt x="445" y="734" on="1"/>
        <pt x="537" y="734" on="0"/>
        <pt x="702" y="696" on="0"/>
        <pt x="775" y="658" on="1"/>
        <pt x="806" y="688" on="0"/>
        <pt x="833" y="739" on="0"/>
        <pt x="833" y="769" on="1"/>
        <pt x="833" y="839" on="0"/>
        <pt x="767" y="869" on="1"/>
        <pt x="652" y="869" on="1"/>
        <pt x="506" y="869" on="0"/>
        <pt x="338" y="994" on="0"/>
        <pt x="338" y="1105" on="1"/>
        <pt x="338" y="1162" on="0"/>
        <pt x="387" y="1248" on="0"/>
        <pt x="437" y="1285" on="1"/>
        <pt x="322" y="1360" on="0"/>
        <pt x="322" y="1483" on="1"/>
        <pt x="322" y="1567" on="0"/>
        <pt x="417" y="1673" on="0"/>
        <pt x="571" y="1717" on="0"/>
        <pt x="716" y="1717" on="1"/>
        <pt x="1310" y="1717" on="1"/>
        <pt x="1310" y="1563" on="1"/>
      </contour>
      <contour>
        <pt x="781" y="488" on="1"/>
        <pt x="669" y="408" on="0"/>
        <pt x="590" y="304" on="0"/>
        <pt x="590" y="250" on="1"/>
        <pt x="590" y="193" on="0"/>
        <pt x="668" y="128" on="0"/>
        <pt x="742" y="128" on="1"/>
        <pt x="818" y="128" on="0"/>
        <pt x="899" y="199" on="0"/>
        <pt x="899" y="266" on="1"/>
        <pt x="899" y="331" on="0"/>
        <pt x="840" y="442" on="0"/>
      </contour>
      <contour>
        <pt x="563" y="-50" on="1"/>
      </contour>
    </TTGlyph>
    <TTGlyph name="glyph00134" xMin="60" yMin="-257" xMax="1575" yMax="1717">
      <component glyphName="glyph00717" x="0" y="0" flags="0x200"/>
      <component glyphName="uni0C4D" x="911" y="0" flags="0x0"/>
    </TTGlyph>
    <TTGlyph name="glyph00135" xMin="60" yMin="-50" xMax="1437" yMax="1717">
      <component glyphName="glyph00720" x="0" y="0" flags="0x200"/>
      <component glyphName="uni0C4D" x="911" y="0" flags="0x0"/>
    </TTGlyph>
    <TTGlyph name="glyph00136" xMin="60" yMin="-50" xMax="2116" yMax="1717">
      <component glyphName="glyph00723" x="0" y="0" flags="0x200"/>
      <component glyphName="uni0C4D" x="911" y="0" flags="0x0"/>
    </TTGlyph>
    <TTGlyph name="glyph00137" xMin="34" yMin="-541" xMax="1179" yMax="1717">
      <component glyphName="glyph00666" x="0" y="0" flags="0x200"/>
      <component glyphName="uni0C4D" x="912" y="0" flags="0x0"/>
      <component glyphName="glyph00762" x="0" y="0" flags="0x0"/>
    </TTGlyph>
    <TTGlyph name="glyph00138" xMin="34" yMin="-50" xMax="1743" yMax="1023">
      <contour>
        <pt x="211" y="344" on="1"/>
        <pt x="244" y="233" on="0"/>
        <pt x="406" y="135" on="0"/>
        <pt x="544" y="135" on="1"/>
        <pt x="687" y="135" on="0"/>
        <pt x="834" y="212" on="0"/>
        <pt x="834" y="281" on="1"/>
        <pt x="834" y="354" on="0"/>
        <pt x="727" y="425" on="0"/>
        <pt x="607" y="434" on="1"/>
        <pt x="473" y="444" on="1"/>
        <pt x="301" y="457" on="0"/>
        <pt x="143" y="529" on="0"/>
        <pt x="73" y="645" on="0"/>
        <pt x="73" y="730" on="1"/>
        <pt x="73" y="766" on="0"/>
        <pt x="102" y="842" on="0"/>
        <pt x="131" y="869" on="1"/>
        <pt x="68" y="869" on="1"/>
        <pt x="68" y="1023" on="1"/>
        <pt x="1309" y="1023" on="1"/>
        <pt x="1426" y="1023" on="0"/>
        <pt x="1567" y="998" on="0"/>
        <pt x="1681" y="924" on="0"/>
        <pt x="1743" y="805" on="0"/>
        <pt x="1743" y="717" on="1"/>
        <pt x="1743" y="594" on="0"/>
        <pt x="1586" y="448" on="0"/>
        <pt x="1454" y="448" on="1"/>
        <pt x="1323" y="448" on="0"/>
        <pt x="1173" y="595" on="0"/>
        <pt x="1173" y="704" on="1"/>
        <pt x="1173" y="793" on="0"/>
        <pt x="1217" y="869" on="1"/>
        <pt x="915" y="869" on="1"/>
        <pt x="960" y="819" on="0"/>
        <pt x="989" y="737" on="1"/>
        <pt x="813" y="692" on="1"/>
        <pt x="785" y="786" on="0"/>
        <pt x="652" y="867" on="0"/>
        <pt x="528" y="869" on="1"/>
        <pt x="498" y="869" on="1"/>
        <pt x="382" y="869" on="0"/>
        <pt x="243" y="801" on="0"/>
        <pt x="243" y="732" on="1"/>
        <pt x="243" y="666" on="0"/>
        <pt x="357" y="610" on="0"/>
        <pt x="471" y="602" on="1"/>
        <pt x="628" y="591" on="1"/>
        <pt x="829" y="577" on="0"/>
        <pt x="1004" y="420" on="0"/>
        <pt x="1004" y="289" on="1"/>
        <pt x="1004" y="135" on="0"/>
        <pt x="769" y="-26" on="0"/>
        <pt x="539" y="-26" on="1"/>
        <pt x="333" y="-26" on="0"/>
        <pt x="70" y="142" on="0"/>
        <pt x="34" y="296" on="1"/>
      </contour>
      <contour>
        <pt x="1375" y="869" on="1"/>
        <pt x="1323" y="800" on="0"/>
        <pt x="1323" y="720" on="1"/>
        <pt x="1323" y="658" on="0"/>
        <pt x="1398" y="583" on="0"/>
        <pt x="1461" y="583" on="1"/>
        <pt x="1523" y="583" on="0"/>
        <pt x="1593" y="655" on="0"/>
        <pt x="1593" y="715" on="1"/>
        <pt x="1593" y="793" on="0"/>
        <pt x="1501" y="869" on="0"/>
        <pt x="1402" y="869" on="1"/>
      </contour>
      <contour>
        <pt x="532" y="-50" on="1"/>
      </contour>
      <contour>
        <pt x="1065" y="-50" on="1"/>
      </contour>
    </TTGlyph>
    <TTGlyph name="glyph00139" xMin="60" yMin="-257" xMax="2176" yMax="1023">
      <contour>
        <pt x="1742" y="1023" on="1"/>
        <pt x="1859" y="1023" on="0"/>
        <pt x="2000" y="998" on="0"/>
        <pt x="2114" y="924" on="0"/>
        <pt x="2176" y="805" on="0"/>
        <pt x="2176" y="717" on="1"/>
        <pt x="2176" y="594" on="0"/>
        <pt x="2019" y="448" on="0"/>
        <pt x="1887" y="448" on="1"/>
        <pt x="1756" y="448" on="0"/>
        <pt x="1606" y="595" on="0"/>
        <pt x="1606" y="704" on="1"/>
        <pt x="1606" y="793" on="0"/>
        <pt x="1650" y="869" on="1"/>
        <pt x="1239" y="869" on="1"/>
        <pt x="1355" y="781" on="0"/>
        <pt x="1474" y="543" on="0"/>
        <pt x="1474" y="405" on="1"/>
        <pt x="1474" y="205" on="0"/>
        <pt x="1250" y="-26" on="0"/>
        <pt x="1060" y="-26" on="1"/>
        <pt x="964" y="-26" on="0"/>
        <pt x="797" y="33" on="0"/>
        <pt x="695" y="103" on="1"/>
        <pt x="623" y="38" on="0"/>
        <pt x="455" y="-26" on="0"/>
        <pt x="359" y="-26" on="1"/>
        <pt x="214" y="-26" on="0"/>
        <pt x="60" y="101" on="0"/>
        <pt x="60" y="207" on="1"/>
        <pt x="60" y="305" on="0"/>
        <pt x="210" y="427" on="0"/>
        <pt x="338" y="427" on="1"/>
        <pt x="414" y="427" on="0"/>
        <pt x="567" y="372" on="0"/>
        <pt x="662" y="310" on="1"/>
        <pt x="696" y="390" on="0"/>
        <pt x="696" y="499" on="1"/>
        <pt x="696" y="682" on="0"/>
        <pt x="623" y="782" on="1"/>
        <pt x="626" y="761" on="0"/>
        <pt x="626" y="740" on="1"/>
        <pt x="626" y="626" on="0"/>
        <pt x="476" y="489" on="0"/>
        <pt x="352" y="489" on="1"/>
        <pt x="232" y="489" on="0"/>
        <pt x="73" y="635" on="0"/>
        <pt x="73" y="754" on="1"/>
        <pt x="73" y="870" on="0"/>
        <pt x="249" y="1023" on="0"/>
        <pt x="392" y="1023" on="1"/>
        <pt x="540" y="1023" on="0"/>
        <pt x="751" y="888" on="0"/>
        <pt x="862" y="645" on="0"/>
        <pt x="862" y="510" on="1"/>
        <pt x="862" y="352" on="0"/>
        <pt x="790" y="224" on="1"/>
        <pt x="860" y="177" on="0"/>
        <pt x="988" y="135" on="0"/>
        <pt x="1065" y="135" on="1"/>
        <pt x="1184" y="135" on="0"/>
        <pt x="1304" y="269" on="0"/>
        <pt x="1304" y="394" on="1"/>
        <pt x="1304" y="690" on="0"/>
        <pt x="963" y="869" on="1"/>
        <pt x="836" y="869" on="1"/>
        <pt x="836" y="1023" on="1"/>
      </contour>
      <contour>
        <pt x="466" y="873" on="1"/>
        <pt x="428" y="884" on="0"/>
        <pt x="384" y="884" on="1"/>
        <pt x="312" y="884" on="0"/>
        <pt x="229" y="813" on="0"/>
        <pt x="229" y="756" on="1"/>
        <pt x="229" y="696" on="0"/>
        <pt x="296" y="630" on="0"/>
        <pt x="357" y="630" on="1"/>
        <pt x="425" y="630" on="0"/>
        <pt x="498" y="697" on="0"/>
        <pt x="498" y="760" on="1"/>
        <pt x="498" y="819" on="0"/>
      </contour>
      <contour>
        <pt x="1808" y="869" on="1"/>
        <pt x="1756" y="800" on="0"/>
        <pt x="1756" y="720" on="1"/>
        <pt x="1756" y="658" on="0"/>
        <pt x="1831" y="583" on="0"/>
        <pt x="1894" y="583" on="1"/>
        <pt x="1956" y="583" on="0"/>
        <pt x="2026" y="655" on="0"/>
        <pt x="2026" y="715" on="1"/>
        <pt x="2026" y="793" on="0"/>
        <pt x="1934" y="869" on="0"/>
        <pt x="1835" y="869" on="1"/>
      </contour>
      <contour>
        <pt x="573" y="191" on="1"/>
        <pt x="500" y="242" on="0"/>
        <pt x="392" y="282" on="0"/>
        <pt x="335" y="282" on="1"/>
        <pt x="277" y="282" on="0"/>
        <pt x="215" y="240" on="0"/>
        <pt x="215" y="205" on="1"/>
        <pt x="215" y="170" on="0"/>
        <pt x="293" y="127" on="0"/>
        <pt x="361" y="127" on="1"/>
        <pt x="426" y="127" on="0"/>
        <pt x="532" y="159" on="0"/>
      </contour>
      <contour>
        <pt x="610" y="-257" on="1"/>
        <pt x="625" y="33" on="1"/>
        <pt x="779" y="33" on="1"/>
        <pt x="794" y="-257" on="1"/>
      </contour>
      <contour>
        <pt x="773" y="-50" on="1"/>
      </contour>
      <contour>
        <pt x="1547" y="-50" on="1"/>
      </contour>
    </TTGlyph>
    <TTGlyph name="glyph00140" xMin="75" yMin="-50" xMax="1847" yMax="1023">
      <contour>
        <pt x="781" y="59" on="1"/>
        <pt x="880" y="199" on="0"/>
        <pt x="941" y="392" on="0"/>
        <pt x="941" y="499" on="1"/>
        <pt x="941" y="679" on="0"/>
        <pt x="763" y="869" on="0"/>
        <pt x="591" y="869" on="1"/>
        <pt x="434" y="869" on="0"/>
        <pt x="252" y="673" on="0"/>
        <pt x="252" y="501" on="1"/>
        <pt x="252" y="383" on="0"/>
        <pt x="327" y="173" on="0"/>
        <pt x="412" y="59" on="1"/>
        <pt x="241" y="-16" on="1"/>
        <pt x="82" y="232" on="0"/>
        <pt x="82" y="501" on="1"/>
        <pt x="82" y="610" on="0"/>
        <pt x="157" y="801" on="0"/>
        <pt x="229" y="869" on="1"/>
        <pt x="75" y="869" on="1"/>
        <pt x="75" y="1023" on="1"/>
        <pt x="1413" y="1023" on="1"/>
        <pt x="1530" y="1023" on="0"/>
        <pt x="1671" y="998" on="0"/>
        <pt x="1785" y="924" on="0"/>
        <pt x="1847" y="805" on="0"/>
        <pt x="1847" y="717" on="1"/>
        <pt x="1847" y="594" on="0"/>
        <pt x="1690" y="448" on="0"/>
        <pt x="1558" y="448" on="1"/>
        <pt x="1427" y="448" on="0"/>
        <pt x="1277" y="595" on="0"/>
        <pt x="1277" y="704" on="1"/>
        <pt x="1277" y="793" on="0"/>
        <pt x="1321" y="869" on="1"/>
        <pt x="981" y="869" on="1"/>
        <pt x="1111" y="740" on="0"/>
        <pt x="1111" y="523" on="1"/>
        <pt x="1111" y="380" on="0"/>
        <pt x="1041" y="128" on="0"/>
        <pt x="951" y="-16" on="1"/>
      </contour>
      <contour>
        <pt x="1479" y="869" on="1"/>
        <pt x="1427" y="800" on="0"/>
        <pt x="1427" y="720" on="1"/>
        <pt x="1427" y="658" on="0"/>
        <pt x="1502" y="583" on="0"/>
        <pt x="1565" y="583" on="1"/>
        <pt x="1627" y="583" on="0"/>
        <pt x="1697" y="655" on="0"/>
        <pt x="1697" y="715" on="1"/>
        <pt x="1697" y="793" on="0"/>
        <pt x="1605" y="869" on="0"/>
        <pt x="1506" y="869" on="1"/>
      </contour>
      <contour>
        <pt x="596" y="-50" on="1"/>
      </contour>
      <contour>
        <pt x="1193" y="-50" on="1"/>
      </contour>
    </TTGlyph>
    <TTGlyph name="glyph00141" xMin="60" yMin="-257" xMax="2795" yMax="1485">
      <component glyphName="glyph00671" x="0" y="0" flags="0x200"/>
      <component glyphName="glyph00724" x="156" y="0" flags="0x0"/>
    </TTGlyph>
    <TTGlyph name="glyph00142" xMin="73" yMin="-50" xMax="2093" yMax="1098">
      <component glyphName="uni0C19" x="0" y="0" flags="0x0"/>
      <component glyphName="glyph00725" x="0" y="0" flags="0x0"/>
    </TTGlyph>
    <TTGlyph name="glyph00143" xMin="52" yMin="-50" xMax="2229" yMax="1023">
      <contour>
        <pt x="531" y="680" on="1"/>
        <pt x="531" y="535" on="1"/>
        <pt x="301" y="481" on="0"/>
        <pt x="301" y="305" on="1"/>
        <pt x="301" y="227" on="0"/>
        <pt x="395" y="135" on="0"/>
        <pt x="478" y="135" on="1"/>
        <pt x="575" y="135" on="0"/>
        <pt x="698" y="261" on="0"/>
        <pt x="708" y="376" on="1"/>
        <pt x="867" y="376" on="1"/>
        <pt x="875" y="263" on="0"/>
        <pt x="1002" y="135" on="0"/>
        <pt x="1096" y="135" on="1"/>
        <pt x="1204" y="135" on="0"/>
        <pt x="1313" y="264" on="0"/>
        <pt x="1313" y="394" on="1"/>
        <pt x="1313" y="571" on="0"/>
        <pt x="1072" y="822" on="0"/>
        <pt x="876" y="869" on="1"/>
        <pt x="428" y="869" on="1"/>
        <pt x="428" y="1023" on="1"/>
        <pt x="1795" y="1023" on="1"/>
        <pt x="1912" y="1023" on="0"/>
        <pt x="2053" y="998" on="0"/>
        <pt x="2167" y="924" on="0"/>
        <pt x="2229" y="805" on="0"/>
        <pt x="2229" y="717" on="1"/>
        <pt x="2229" y="594" on="0"/>
        <pt x="2072" y="448" on="0"/>
        <pt x="1940" y="448" on="1"/>
        <pt x="1809" y="448" on="0"/>
        <pt x="1659" y="595" on="0"/>
        <pt x="1659" y="704" on="1"/>
        <pt x="1659" y="793" on="0"/>
        <pt x="1703" y="869" on="1"/>
        <pt x="1236" y="869" on="1"/>
        <pt x="1349" y="796" on="0"/>
        <pt x="1483" y="547" on="0"/>
        <pt x="1483" y="397" on="1"/>
        <pt x="1483" y="198" on="0"/>
        <pt x="1281" y="-26" on="0"/>
        <pt x="1113" y="-26" on="1"/>
        <pt x="998" y="-26" on="0"/>
        <pt x="855" y="51" on="0"/>
        <pt x="788" y="150" on="1"/>
        <pt x="734" y="63" on="0"/>
        <pt x="586" y="-26" on="0"/>
        <pt x="467" y="-26" on="1"/>
        <pt x="320" y="-26" on="0"/>
        <pt x="136" y="152" on="0"/>
        <pt x="136" y="295" on="1"/>
        <pt x="136" y="358" on="0"/>
        <pt x="197" y="484" on="0"/>
        <pt x="254" y="528" on="1"/>
        <pt x="52" y="528" on="1"/>
        <pt x="52" y="680" on="1"/>
      </contour>
      <contour>
        <pt x="1861" y="869" on="1"/>
        <pt x="1809" y="800" on="0"/>
        <pt x="1809" y="720" on="1"/>
        <pt x="1809" y="658" on="0"/>
        <pt x="1884" y="583" on="0"/>
        <pt x="1947" y="583" on="1"/>
        <pt x="2009" y="583" on="0"/>
        <pt x="2079" y="655" on="0"/>
        <pt x="2079" y="715" on="1"/>
        <pt x="2079" y="793" on="0"/>
        <pt x="1987" y="869" on="0"/>
        <pt x="1888" y="869" on="1"/>
      </contour>
      <contour>
        <pt x="778" y="-50" on="1"/>
      </contour>
      <contour>
        <pt x="1556" y="-50" on="1"/>
      </contour>
    </TTGlyph>
    <TTGlyph name="glyph00144" xMin="52" yMin="-257" xMax="2229" yMax="1023">
      <contour>
        <pt x="531" y="680" on="1"/>
        <pt x="531" y="535" on="1"/>
        <pt x="301" y="481" on="0"/>
        <pt x="301" y="305" on="1"/>
        <pt x="301" y="227" on="0"/>
        <pt x="395" y="135" on="0"/>
        <pt x="478" y="135" on="1"/>
        <pt x="575" y="135" on="0"/>
        <pt x="698" y="261" on="0"/>
        <pt x="708" y="376" on="1"/>
        <pt x="867" y="376" on="1"/>
        <pt x="875" y="263" on="0"/>
        <pt x="1002" y="135" on="0"/>
        <pt x="1096" y="135" on="1"/>
        <pt x="1204" y="135" on="0"/>
        <pt x="1313" y="264" on="0"/>
        <pt x="1313" y="394" on="1"/>
        <pt x="1313" y="571" on="0"/>
        <pt x="1072" y="822" on="0"/>
        <pt x="876" y="869" on="1"/>
        <pt x="428" y="869" on="1"/>
        <pt x="428" y="1023" on="1"/>
        <pt x="1795" y="1023" on="1"/>
        <pt x="1912" y="1023" on="0"/>
        <pt x="2053" y="998" on="0"/>
        <pt x="2167" y="924" on="0"/>
        <pt x="2229" y="805" on="0"/>
        <pt x="2229" y="717" on="1"/>
        <pt x="2229" y="594" on="0"/>
        <pt x="2072" y="448" on="0"/>
        <pt x="1940" y="448" on="1"/>
        <pt x="1809" y="448" on="0"/>
        <pt x="1659" y="595" on="0"/>
        <pt x="1659" y="704" on="1"/>
        <pt x="1659" y="793" on="0"/>
        <pt x="1703" y="869" on="1"/>
        <pt x="1236" y="869" on="1"/>
        <pt x="1349" y="796" on="0"/>
        <pt x="1483" y="547" on="0"/>
        <pt x="1483" y="397" on="1"/>
        <pt x="1483" y="198" on="0"/>
        <pt x="1281" y="-26" on="0"/>
        <pt x="1113" y="-26" on="1"/>
        <pt x="998" y="-26" on="0"/>
        <pt x="855" y="51" on="0"/>
        <pt x="788" y="150" on="1"/>
        <pt x="734" y="63" on="0"/>
        <pt x="586" y="-26" on="0"/>
        <pt x="467" y="-26" on="1"/>
        <pt x="320" y="-26" on="0"/>
        <pt x="136" y="152" on="0"/>
        <pt x="136" y="295" on="1"/>
        <pt x="136" y="358" on="0"/>
        <pt x="197" y="484" on="0"/>
        <pt x="254" y="528" on="1"/>
        <pt x="52" y="528" on="1"/>
        <pt x="52" y="680" on="1"/>
      </contour>
      <contour>
        <pt x="1861" y="869" on="1"/>
        <pt x="1809" y="800" on="0"/>
        <pt x="1809" y="720" on="1"/>
        <pt x="1809" y="658" on="0"/>
        <pt x="1884" y="583" on="0"/>
        <pt x="1947" y="583" on="1"/>
        <pt x="2009" y="583" on="0"/>
        <pt x="2079" y="655" on="0"/>
        <pt x="2079" y="715" on="1"/>
        <pt x="2079" y="793" on="0"/>
        <pt x="1987" y="869" on="0"/>
        <pt x="1888" y="869" on="1"/>
      </contour>
      <contour>
        <pt x="696" y="-257" on="1"/>
        <pt x="711" y="33" on="1"/>
        <pt x="865" y="33" on="1"/>
        <pt x="880" y="-257" on="1"/>
      </contour>
      <contour>
        <pt x="778" y="-50" on="1"/>
      </contour>
      <contour>
        <pt x="1556" y="-50" on="1"/>
      </contour>
    </TTGlyph>
    <TTGlyph name="glyph00145" xMin="73" yMin="-50" xMax="2113" yMax="1023">
      <contour>
        <pt x="1368" y="516" on="1"/>
        <pt x="1401" y="465" on="0"/>
        <pt x="1437" y="337" on="0"/>
        <pt x="1437" y="276" on="1"/>
        <pt x="1437" y="134" on="0"/>
        <pt x="1250" y="-26" on="0"/>
        <pt x="1086" y="-26" on="1"/>
        <pt x="972" y="-26" on="0"/>
        <pt x="822" y="60" on="0"/>
        <pt x="768" y="150" on="1"/>
        <pt x="706" y="62" on="0"/>
        <pt x="553" y="-26" on="0"/>
        <pt x="420" y="-26" on="1"/>
        <pt x="262" y="-26" on="0"/>
        <pt x="84" y="139" on="0"/>
        <pt x="84" y="267" on="1"/>
        <pt x="84" y="383" on="0"/>
        <pt x="224" y="533" on="0"/>
        <pt x="388" y="591" on="1"/>
        <pt x="500" y="631" on="0"/>
        <pt x="570" y="707" on="0"/>
        <pt x="570" y="759" on="1"/>
        <pt x="570" y="815" on="0"/>
        <pt x="492" y="874" on="0"/>
        <pt x="415" y="874" on="1"/>
        <pt x="327" y="874" on="0"/>
        <pt x="241" y="807" on="0"/>
        <pt x="241" y="748" on="1"/>
        <pt x="241" y="709" on="0"/>
        <pt x="262" y="662" on="1"/>
        <pt x="109" y="618" on="1"/>
        <pt x="73" y="683" on="0"/>
        <pt x="73" y="767" on="1"/>
        <pt x="73" y="880" on="0"/>
        <pt x="252" y="1023" on="0"/>
        <pt x="415" y="1023" on="1"/>
        <pt x="552" y="1023" on="0"/>
        <pt x="720" y="902" on="0"/>
        <pt x="735" y="790" on="1"/>
        <pt x="793" y="734" on="0"/>
        <pt x="963" y="670" on="0"/>
        <pt x="1052" y="670" on="1"/>
        <pt x="1209" y="670" on="0"/>
        <pt x="1209" y="771" on="1"/>
        <pt x="1209" y="836" on="0"/>
        <pt x="1137" y="869" on="1"/>
        <pt x="925" y="869" on="1"/>
        <pt x="925" y="1023" on="1"/>
        <pt x="1679" y="1023" on="1"/>
        <pt x="1796" y="1023" on="0"/>
        <pt x="1937" y="998" on="0"/>
        <pt x="2051" y="924" on="0"/>
        <pt x="2113" y="805" on="0"/>
        <pt x="2113" y="717" on="1"/>
        <pt x="2113" y="594" on="0"/>
        <pt x="1956" y="448" on="0"/>
        <pt x="1824" y="448" on="1"/>
        <pt x="1693" y="448" on="0"/>
        <pt x="1543" y="595" on="0"/>
        <pt x="1543" y="704" on="1"/>
        <pt x="1543" y="793" on="0"/>
        <pt x="1587" y="869" on="1"/>
        <pt x="1358" y="869" on="1"/>
        <pt x="1379" y="825" on="0"/>
        <pt x="1379" y="772" on="1"/>
        <pt x="1379" y="658" on="0"/>
        <pt x="1201" y="516" on="0"/>
        <pt x="1048" y="516" on="1"/>
        <pt x="846" y="516" on="0"/>
        <pt x="706" y="627" on="1"/>
        <pt x="657" y="530" on="0"/>
        <pt x="465" y="460" on="1"/>
        <pt x="339" y="413" on="0"/>
        <pt x="252" y="327" on="0"/>
        <pt x="252" y="268" on="1"/>
        <pt x="252" y="205" on="0"/>
        <pt x="340" y="135" on="0"/>
        <pt x="423" y="135" on="1"/>
        <pt x="540" y="135" on="0"/>
        <pt x="677" y="256" on="0"/>
        <pt x="688" y="376" on="1"/>
        <pt x="847" y="376" on="1"/>
        <pt x="855" y="260" on="0"/>
        <pt x="978" y="135" on="0"/>
        <pt x="1080" y="135" on="1"/>
        <pt x="1171" y="135" on="0"/>
        <pt x="1267" y="215" on="0"/>
        <pt x="1267" y="291" on="1"/>
        <pt x="1267" y="368" on="0"/>
        <pt x="1217" y="453" on="1"/>
      </contour>
      <contour>
        <pt x="1745" y="869" on="1"/>
        <pt x="1693" y="800" on="0"/>
        <pt x="1693" y="720" on="1"/>
        <pt x="1693" y="658" on="0"/>
        <pt x="1768" y="583" on="0"/>
        <pt x="1831" y="583" on="1"/>
        <pt x="1893" y="583" on="0"/>
        <pt x="1963" y="655" on="0"/>
        <pt x="1963" y="715" on="1"/>
        <pt x="1963" y="793" on="0"/>
        <pt x="1871" y="869" on="0"/>
        <pt x="1772" y="869" on="1"/>
      </contour>
      <contour>
        <pt x="748" y="-50" on="1"/>
      </contour>
      <contour>
        <pt x="1497" y="-50" on="1"/>
      </contour>
    </TTGlyph>
    <TTGlyph name="glyph00146" xMin="72" yMin="-257" xMax="3262" yMax="1485">
      <component glyphName="glyph00680" x="0" y="0" flags="0x200"/>
      <component glyphName="glyph00724" x="294" y="0" flags="0x0"/>
    </TTGlyph>
    <TTGlyph name="glyph00147" xMin="60" yMin="-199" xMax="2648" yMax="1098">
      <component glyphName="uni0C1E" x="0" y="0" flags="0x0"/>
      <component glyphName="glyph00725" x="555" y="0" flags="0x0"/>
    </TTGlyph>
    <TTGlyph name="glyph00148" xMin="78" yMin="-50" xMax="2207" yMax="1288">
      <contour>
        <pt x="1773" y="1023" on="1"/>
        <pt x="1890" y="1023" on="0"/>
        <pt x="2031" y="998" on="0"/>
        <pt x="2145" y="924" on="0"/>
        <pt x="2207" y="805" on="0"/>
        <pt x="2207" y="717" on="1"/>
        <pt x="2207" y="594" on="0"/>
        <pt x="2050" y="448" on="0"/>
        <pt x="1918" y="448" on="1"/>
        <pt x="1787" y="448" on="0"/>
        <pt x="1637" y="595" on="0"/>
        <pt x="1637" y="704" on="1"/>
        <pt x="1637" y="793" on="0"/>
        <pt x="1681" y="869" on="1"/>
        <pt x="1270" y="869" on="1"/>
        <pt x="1386" y="780" on="0"/>
        <pt x="1505" y="544" on="0"/>
        <pt x="1505" y="405" on="1"/>
        <pt x="1505" y="202" on="0"/>
        <pt x="1306" y="-26" on="0"/>
        <pt x="1134" y="-26" on="1"/>
        <pt x="1015" y="-26" on="0"/>
        <pt x="867" y="61" on="0"/>
        <pt x="810" y="150" on="1"/>
        <pt x="758" y="65" on="0"/>
        <pt x="607" y="-26" on="0"/>
        <pt x="485" y="-26" on="1"/>
        <pt x="297" y="-26" on="0"/>
        <pt x="78" y="254" on="0"/>
        <pt x="78" y="476" on="1"/>
        <pt x="78" y="688" on="0"/>
        <pt x="250" y="969" on="0"/>
        <pt x="404" y="1011" on="1"/>
        <pt x="391" y="1288" on="1"/>
        <pt x="575" y="1288" on="1"/>
        <pt x="563" y="1018" on="1"/>
        <pt x="667" y="1001" on="0"/>
        <pt x="780" y="867" on="0"/>
        <pt x="780" y="764" on="1"/>
        <pt x="780" y="628" on="0"/>
        <pt x="616" y="481" on="0"/>
        <pt x="462" y="481" on="1"/>
        <pt x="345" y="481" on="0"/>
        <pt x="241" y="548" on="1"/>
        <pt x="239" y="522" on="0"/>
        <pt x="239" y="496" on="1"/>
        <pt x="239" y="474" on="1"/>
        <pt x="239" y="307" on="0"/>
        <pt x="362" y="135" on="0"/>
        <pt x="485" y="135" on="1"/>
        <pt x="593" y="135" on="0"/>
        <pt x="719" y="255" on="0"/>
        <pt x="730" y="376" on="1"/>
        <pt x="889" y="376" on="1"/>
        <pt x="898" y="262" on="0"/>
        <pt x="1021" y="135" on="0"/>
        <pt x="1117" y="135" on="1"/>
        <pt x="1226" y="135" on="0"/>
        <pt x="1335" y="264" on="0"/>
        <pt x="1335" y="394" on="1"/>
        <pt x="1335" y="544" on="0"/>
        <pt x="1166" y="782" on="0"/>
        <pt x="998" y="869" on="1"/>
        <pt x="848" y="869" on="1"/>
        <pt x="848" y="1023" on="1"/>
      </contour>
      <contour>
        <pt x="267" y="685" on="1"/>
        <pt x="349" y="625" on="0"/>
        <pt x="452" y="625" on="1"/>
        <pt x="535" y="625" on="0"/>
        <pt x="618" y="693" on="0"/>
        <pt x="618" y="756" on="1"/>
        <pt x="618" y="814" on="0"/>
        <pt x="554" y="878" on="0"/>
        <pt x="497" y="878" on="1"/>
        <pt x="420" y="878" on="0"/>
        <pt x="298" y="778" on="0"/>
      </contour>
      <contour>
        <pt x="1839" y="869" on="1"/>
        <pt x="1787" y="800" on="0"/>
        <pt x="1787" y="720" on="1"/>
        <pt x="1787" y="658" on="0"/>
        <pt x="1862" y="583" on="0"/>
        <pt x="1925" y="583" on="1"/>
        <pt x="1987" y="583" on="0"/>
        <pt x="2057" y="655" on="0"/>
        <pt x="2057" y="715" on="1"/>
        <pt x="2057" y="793" on="0"/>
        <pt x="1965" y="869" on="0"/>
        <pt x="1866" y="869" on="1"/>
      </contour>
      <contour>
        <pt x="789" y="-50" on="1"/>
      </contour>
      <contour>
        <pt x="1578" y="-50" on="1"/>
      </contour>
    </TTGlyph>
    <TTGlyph name="glyph00149" xMin="72" yMin="-50" xMax="1875" yMax="1023">
      <contour>
        <pt x="1441" y="1023" on="1"/>
        <pt x="1558" y="1023" on="0"/>
        <pt x="1699" y="998" on="0"/>
        <pt x="1813" y="924" on="0"/>
        <pt x="1875" y="805" on="0"/>
        <pt x="1875" y="717" on="1"/>
        <pt x="1875" y="594" on="0"/>
        <pt x="1718" y="448" on="0"/>
        <pt x="1586" y="448" on="1"/>
        <pt x="1455" y="448" on="0"/>
        <pt x="1305" y="595" on="0"/>
        <pt x="1305" y="704" on="1"/>
        <pt x="1305" y="793" on="0"/>
        <pt x="1349" y="869" on="1"/>
        <pt x="987" y="869" on="1"/>
        <pt x="1142" y="729" on="0"/>
        <pt x="1142" y="486" on="1"/>
        <pt x="1142" y="335" on="0"/>
        <pt x="1010" y="102" on="0"/>
        <pt x="767" y="-26" on="0"/>
        <pt x="607" y="-26" on="1"/>
        <pt x="363" y="-26" on="0"/>
        <pt x="72" y="254" on="0"/>
        <pt x="72" y="483" on="1"/>
        <pt x="72" y="728" on="0"/>
        <pt x="231" y="869" on="1"/>
        <pt x="75" y="869" on="1"/>
        <pt x="75" y="1023" on="1"/>
      </contour>
      <contour>
        <pt x="606" y="135" on="1"/>
        <pt x="779" y="135" on="0"/>
        <pt x="973" y="330" on="0"/>
        <pt x="973" y="494" on="1"/>
        <pt x="973" y="663" on="0"/>
        <pt x="778" y="869" on="0"/>
        <pt x="606" y="869" on="1"/>
        <pt x="435" y="869" on="0"/>
        <pt x="240" y="666" on="0"/>
        <pt x="240" y="505" on="1"/>
        <pt x="240" y="335" on="0"/>
        <pt x="433" y="135" on="0"/>
      </contour>
      <contour>
        <pt x="608" y="622" on="1"/>
        <pt x="660" y="622" on="0"/>
        <pt x="717" y="560" on="0"/>
        <pt x="717" y="503" on="1"/>
        <pt x="717" y="444" on="0"/>
        <pt x="659" y="381" on="0"/>
        <pt x="608" y="381" on="1"/>
        <pt x="554" y="381" on="0"/>
        <pt x="497" y="444" on="0"/>
        <pt x="497" y="503" on="1"/>
        <pt x="497" y="622" on="0"/>
      </contour>
      <contour>
        <pt x="1507" y="869" on="1"/>
        <pt x="1455" y="800" on="0"/>
        <pt x="1455" y="720" on="1"/>
        <pt x="1455" y="658" on="0"/>
        <pt x="1530" y="583" on="0"/>
        <pt x="1593" y="583" on="1"/>
        <pt x="1655" y="583" on="0"/>
        <pt x="1725" y="655" on="0"/>
        <pt x="1725" y="715" on="1"/>
        <pt x="1725" y="793" on="0"/>
        <pt x="1633" y="869" on="0"/>
        <pt x="1534" y="869" on="1"/>
      </contour>
      <contour>
        <pt x="607" y="-50" on="1"/>
      </contour>
      <contour>
        <pt x="1215" y="-50" on="1"/>
      </contour>
    </TTGlyph>
    <TTGlyph name="glyph00150" xMin="72" yMin="-50" xMax="2049" yMax="1023">
      <contour>
        <pt x="1615" y="1023" on="1"/>
        <pt x="1732" y="1023" on="0"/>
        <pt x="1873" y="998" on="0"/>
        <pt x="1987" y="924" on="0"/>
        <pt x="2049" y="805" on="0"/>
        <pt x="2049" y="717" on="1"/>
        <pt x="2049" y="594" on="0"/>
        <pt x="1892" y="448" on="0"/>
        <pt x="1760" y="448" on="1"/>
        <pt x="1629" y="448" on="0"/>
        <pt x="1479" y="595" on="0"/>
        <pt x="1479" y="704" on="1"/>
        <pt x="1479" y="793" on="0"/>
        <pt x="1523" y="869" on="1"/>
        <pt x="1315" y="869" on="1"/>
        <pt x="1215" y="731" on="1"/>
        <pt x="1102" y="804" on="0"/>
        <pt x="901" y="867" on="0"/>
        <pt x="785" y="869" on="1"/>
        <pt x="772" y="869" on="1"/>
        <pt x="524" y="869" on="0"/>
        <pt x="241" y="619" on="0"/>
        <pt x="241" y="396" on="1"/>
        <pt x="241" y="135" on="0"/>
        <pt x="430" y="135" on="1"/>
        <pt x="521" y="135" on="0"/>
        <pt x="633" y="260" on="0"/>
        <pt x="643" y="376" on="1"/>
        <pt x="802" y="376" on="1"/>
        <pt x="811" y="229" on="0"/>
        <pt x="900" y="175" on="1"/>
        <pt x="879" y="229" on="0"/>
        <pt x="879" y="289" on="1"/>
        <pt x="879" y="403" on="0"/>
        <pt x="1035" y="543" on="0"/>
        <pt x="1166" y="543" on="1"/>
        <pt x="1293" y="543" on="0"/>
        <pt x="1456" y="391" on="0"/>
        <pt x="1456" y="276" on="1"/>
        <pt x="1456" y="133" on="0"/>
        <pt x="1274" y="-26" on="0"/>
        <pt x="1119" y="-26" on="1"/>
        <pt x="976" y="-26" on="0"/>
        <pt x="782" y="58" on="0"/>
        <pt x="722" y="150" on="1"/>
        <pt x="674" y="65" on="0"/>
        <pt x="528" y="-26" on="0"/>
        <pt x="406" y="-26" on="1"/>
        <pt x="256" y="-26" on="0"/>
        <pt x="72" y="201" on="0"/>
        <pt x="72" y="393" on="1"/>
        <pt x="72" y="551" on="0"/>
        <pt x="190" y="797" on="0"/>
        <pt x="302" y="869" on="1"/>
        <pt x="75" y="869" on="1"/>
        <pt x="75" y="1023" on="1"/>
      </contour>
      <contour>
        <pt x="1681" y="869" on="1"/>
        <pt x="1629" y="800" on="0"/>
        <pt x="1629" y="720" on="1"/>
        <pt x="1629" y="658" on="0"/>
        <pt x="1704" y="583" on="0"/>
        <pt x="1767" y="583" on="1"/>
        <pt x="1829" y="583" on="0"/>
        <pt x="1899" y="655" on="0"/>
        <pt x="1899" y="715" on="1"/>
        <pt x="1899" y="793" on="0"/>
        <pt x="1807" y="869" on="0"/>
        <pt x="1708" y="869" on="1"/>
      </contour>
      <contour>
        <pt x="1059" y="131" on="1"/>
        <pt x="1091" y="128" on="0"/>
        <pt x="1126" y="128" on="1"/>
        <pt x="1211" y="128" on="0"/>
        <pt x="1292" y="199" on="0"/>
        <pt x="1292" y="264" on="1"/>
        <pt x="1292" y="322" on="0"/>
        <pt x="1223" y="385" on="0"/>
        <pt x="1158" y="385" on="1"/>
        <pt x="1093" y="385" on="0"/>
        <pt x="1022" y="317" on="0"/>
        <pt x="1022" y="253" on="1"/>
        <pt x="1022" y="188" on="0"/>
      </contour>
      <contour>
        <pt x="758" y="-50" on="1"/>
      </contour>
      <contour>
        <pt x="1516" y="-50" on="1"/>
      </contour>
    </TTGlyph>
    <TTGlyph name="glyph00151" xMin="72" yMin="-257" xMax="2049" yMax="1023">
      <contour>
        <pt x="1615" y="1023" on="1"/>
        <pt x="1732" y="1023" on="0"/>
        <pt x="1873" y="998" on="0"/>
        <pt x="1987" y="924" on="0"/>
        <pt x="2049" y="805" on="0"/>
        <pt x="2049" y="717" on="1"/>
        <pt x="2049" y="594" on="0"/>
        <pt x="1892" y="448" on="0"/>
        <pt x="1760" y="448" on="1"/>
        <pt x="1629" y="448" on="0"/>
        <pt x="1479" y="595" on="0"/>
        <pt x="1479" y="704" on="1"/>
        <pt x="1479" y="793" on="0"/>
        <pt x="1523" y="869" on="1"/>
        <pt x="1315" y="869" on="1"/>
        <pt x="1215" y="731" on="1"/>
        <pt x="1102" y="804" on="0"/>
        <pt x="901" y="867" on="0"/>
        <pt x="785" y="869" on="1"/>
        <pt x="772" y="869" on="1"/>
        <pt x="524" y="869" on="0"/>
        <pt x="241" y="619" on="0"/>
        <pt x="241" y="396" on="1"/>
        <pt x="241" y="135" on="0"/>
        <pt x="430" y="135" on="1"/>
        <pt x="521" y="135" on="0"/>
        <pt x="633" y="260" on="0"/>
        <pt x="643" y="376" on="1"/>
        <pt x="802" y="376" on="1"/>
        <pt x="811" y="229" on="0"/>
        <pt x="900" y="175" on="1"/>
        <pt x="879" y="229" on="0"/>
        <pt x="879" y="289" on="1"/>
        <pt x="879" y="403" on="0"/>
        <pt x="1035" y="543" on="0"/>
        <pt x="1166" y="543" on="1"/>
        <pt x="1293" y="543" on="0"/>
        <pt x="1456" y="391" on="0"/>
        <pt x="1456" y="276" on="1"/>
        <pt x="1456" y="133" on="0"/>
        <pt x="1274" y="-26" on="0"/>
        <pt x="1119" y="-26" on="1"/>
        <pt x="976" y="-26" on="0"/>
        <pt x="782" y="58" on="0"/>
        <pt x="722" y="150" on="1"/>
        <pt x="674" y="65" on="0"/>
        <pt x="528" y="-26" on="0"/>
        <pt x="406" y="-26" on="1"/>
        <pt x="256" y="-26" on="0"/>
        <pt x="72" y="201" on="0"/>
        <pt x="72" y="393" on="1"/>
        <pt x="72" y="551" on="0"/>
        <pt x="190" y="797" on="0"/>
        <pt x="302" y="869" on="1"/>
        <pt x="75" y="869" on="1"/>
        <pt x="75" y="1023" on="1"/>
      </contour>
      <contour>
        <pt x="1681" y="869" on="1"/>
        <pt x="1629" y="800" on="0"/>
        <pt x="1629" y="720" on="1"/>
        <pt x="1629" y="658" on="0"/>
        <pt x="1704" y="583" on="0"/>
        <pt x="1767" y="583" on="1"/>
        <pt x="1829" y="583" on="0"/>
        <pt x="1899" y="655" on="0"/>
        <pt x="1899" y="715" on="1"/>
        <pt x="1899" y="793" on="0"/>
        <pt x="1807" y="869" on="0"/>
        <pt x="1708" y="869" on="1"/>
      </contour>
      <contour>
        <pt x="1059" y="131" on="1"/>
        <pt x="1091" y="128" on="0"/>
        <pt x="1126" y="128" on="1"/>
        <pt x="1211" y="128" on="0"/>
        <pt x="1292" y="199" on="0"/>
        <pt x="1292" y="264" on="1"/>
        <pt x="1292" y="322" on="0"/>
        <pt x="1223" y="385" on="0"/>
        <pt x="1158" y="385" on="1"/>
        <pt x="1093" y="385" on="0"/>
        <pt x="1022" y="317" on="0"/>
        <pt x="1022" y="253" on="1"/>
        <pt x="1022" y="188" on="0"/>
      </contour>
      <contour>
        <pt x="631" y="-257" on="1"/>
        <pt x="646" y="33" on="1"/>
        <pt x="800" y="33" on="1"/>
        <pt x="815" y="-257" on="1"/>
      </contour>
      <contour>
        <pt x="758" y="-50" on="1"/>
      </contour>
      <contour>
        <pt x="1516" y="-50" on="1"/>
      </contour>
    </TTGlyph>
    <TTGlyph name="glyph00152" xMin="68" yMin="-50" xMax="2356" yMax="1023">
      <contour>
        <pt x="1922" y="1023" on="1"/>
        <pt x="2039" y="1023" on="0"/>
        <pt x="2180" y="998" on="0"/>
        <pt x="2294" y="924" on="0"/>
        <pt x="2356" y="805" on="0"/>
        <pt x="2356" y="717" on="1"/>
        <pt x="2356" y="594" on="0"/>
        <pt x="2199" y="448" on="0"/>
        <pt x="2067" y="448" on="1"/>
        <pt x="1936" y="448" on="0"/>
        <pt x="1786" y="595" on="0"/>
        <pt x="1786" y="704" on="1"/>
        <pt x="1786" y="793" on="0"/>
        <pt x="1830" y="869" on="1"/>
        <pt x="1489" y="869" on="1"/>
        <pt x="1551" y="811" on="0"/>
        <pt x="1619" y="608" on="0"/>
        <pt x="1619" y="483" on="1"/>
        <pt x="1619" y="238" on="0"/>
        <pt x="1403" y="-26" on="0"/>
        <pt x="1203" y="-26" on="1"/>
        <pt x="1060" y="-26" on="0"/>
        <pt x="897" y="124" on="0"/>
        <pt x="897" y="254" on="1"/>
        <pt x="897" y="383" on="0"/>
        <pt x="1059" y="536" on="0"/>
        <pt x="1205" y="536" on="1"/>
        <pt x="1349" y="536" on="0"/>
        <pt x="1450" y="452" on="1"/>
        <pt x="1450" y="489" on="1"/>
        <pt x="1450" y="661" on="0"/>
        <pt x="1298" y="869" on="0"/>
        <pt x="1175" y="869" on="1"/>
        <pt x="1081" y="869" on="0"/>
        <pt x="957" y="751" on="0"/>
        <pt x="941" y="651" on="1"/>
        <pt x="782" y="651" on="1"/>
        <pt x="754" y="757" on="0"/>
        <pt x="591" y="870" on="0"/>
        <pt x="464" y="870" on="1"/>
        <pt x="367" y="870" on="0"/>
        <pt x="258" y="794" on="0"/>
        <pt x="258" y="725" on="1"/>
        <pt x="258" y="654" on="0"/>
        <pt x="384" y="576" on="0"/>
        <pt x="508" y="576" on="1"/>
        <pt x="618" y="576" on="1"/>
        <pt x="618" y="423" on="1"/>
        <pt x="474" y="423" on="1"/>
        <pt x="355" y="423" on="0"/>
        <pt x="247" y="347" on="0"/>
        <pt x="247" y="269" on="1"/>
        <pt x="247" y="204" on="0"/>
        <pt x="334" y="127" on="0"/>
        <pt x="413" y="127" on="1"/>
        <pt x="486" y="127" on="0"/>
        <pt x="603" y="200" on="0"/>
        <pt x="662" y="279" on="1"/>
        <pt x="799" y="176" on="1"/>
        <pt x="709" y="66" on="0"/>
        <pt x="524" y="-26" on="0"/>
        <pt x="402" y="-26" on="1"/>
        <pt x="244" y="-26" on="0"/>
        <pt x="68" y="124" on="0"/>
        <pt x="68" y="250" on="1"/>
        <pt x="68" y="339" on="0"/>
        <pt x="158" y="467" on="0"/>
        <pt x="246" y="499" on="1"/>
        <pt x="167" y="533" on="0"/>
        <pt x="84" y="655" on="0"/>
        <pt x="84" y="735" on="1"/>
        <pt x="84" y="812" on="0"/>
        <pt x="138" y="869" on="1"/>
        <pt x="75" y="869" on="1"/>
        <pt x="75" y="1023" on="1"/>
      </contour>
      <contour>
        <pt x="1988" y="869" on="1"/>
        <pt x="1936" y="800" on="0"/>
        <pt x="1936" y="720" on="1"/>
        <pt x="1936" y="658" on="0"/>
        <pt x="2011" y="583" on="0"/>
        <pt x="2074" y="583" on="1"/>
        <pt x="2136" y="583" on="0"/>
        <pt x="2206" y="655" on="0"/>
        <pt x="2206" y="715" on="1"/>
        <pt x="2206" y="793" on="0"/>
        <pt x="2114" y="869" on="0"/>
        <pt x="2015" y="869" on="1"/>
      </contour>
      <contour>
        <pt x="858" y="810" on="1"/>
        <pt x="875" y="839" on="0"/>
        <pt x="901" y="869" on="1"/>
        <pt x="805" y="869" on="1"/>
        <pt x="837" y="837" on="0"/>
      </contour>
      <contour>
        <pt x="1425" y="277" on="1"/>
        <pt x="1335" y="392" on="0"/>
        <pt x="1212" y="392" on="1"/>
        <pt x="1145" y="392" on="0"/>
        <pt x="1065" y="318" on="0"/>
        <pt x="1065" y="259" on="1"/>
        <pt x="1065" y="193" on="0"/>
        <pt x="1139" y="121" on="0"/>
        <pt x="1210" y="121" on="1"/>
        <pt x="1291" y="121" on="0"/>
        <pt x="1398" y="199" on="0"/>
      </contour>
      <contour>
        <pt x="846" y="-50" on="1"/>
      </contour>
      <contour>
        <pt x="1692" y="-50" on="1"/>
      </contour>
    </TTGlyph>
    <TTGlyph name="glyph00153" xMin="73" yMin="-50" xMax="2218" yMax="1098">
      <contour>
        <pt x="1784" y="1098" on="1"/>
        <pt x="1901" y="1098" on="0"/>
        <pt x="2042" y="1073" on="0"/>
        <pt x="2156" y="999" on="0"/>
        <pt x="2218" y="880" on="0"/>
        <pt x="2218" y="792" on="1"/>
        <pt x="2218" y="669" on="0"/>
        <pt x="2061" y="523" on="0"/>
        <pt x="1929" y="523" on="1"/>
        <pt x="1798" y="523" on="0"/>
        <pt x="1648" y="670" on="0"/>
        <pt x="1648" y="779" on="1"/>
        <pt x="1648" y="868" on="0"/>
        <pt x="1692" y="944" on="1"/>
        <pt x="1221" y="944" on="1"/>
        <pt x="1374" y="871" on="0"/>
        <pt x="1521" y="656" on="0"/>
        <pt x="1521" y="498" on="1"/>
        <pt x="1521" y="255" on="0"/>
        <pt x="1152" y="-26" on="0"/>
        <pt x="807" y="-26" on="1"/>
        <pt x="457" y="-26" on="0"/>
        <pt x="73" y="251" on="0"/>
        <pt x="73" y="486" on="1"/>
        <pt x="73" y="665" on="0"/>
        <pt x="283" y="894" on="0"/>
        <pt x="447" y="894" on="1"/>
        <pt x="574" y="894" on="0"/>
        <pt x="721" y="756" on="0"/>
        <pt x="721" y="642" on="1"/>
        <pt x="721" y="515" on="0"/>
        <pt x="548" y="367" on="0"/>
        <pt x="397" y="367" on="1"/>
        <pt x="303" y="367" on="0"/>
        <pt x="234" y="401" on="1"/>
        <pt x="277" y="272" on="0"/>
        <pt x="568" y="135" on="0"/>
        <pt x="796" y="135" on="1"/>
        <pt x="1045" y="135" on="0"/>
        <pt x="1335" y="296" on="0"/>
        <pt x="1368" y="450" on="1"/>
        <pt x="1279" y="367" on="0"/>
        <pt x="1152" y="367" on="1"/>
        <pt x="1031" y="367" on="0"/>
        <pt x="882" y="504" on="0"/>
        <pt x="882" y="618" on="1"/>
        <pt x="882" y="712" on="0"/>
        <pt x="990" y="845" on="0"/>
        <pt x="1091" y="870" on="1"/>
        <pt x="1019" y="912" on="0"/>
        <pt x="898" y="944" on="1"/>
        <pt x="449" y="944" on="1"/>
        <pt x="449" y="1098" on="1"/>
      </contour>
      <contour>
        <pt x="224" y="551" on="1"/>
        <pt x="290" y="510" on="0"/>
        <pt x="372" y="510" on="1"/>
        <pt x="558" y="510" on="0"/>
        <pt x="558" y="641" on="1"/>
        <pt x="558" y="694" on="0"/>
        <pt x="494" y="749" on="0"/>
        <pt x="437" y="749" on="1"/>
        <pt x="355" y="749" on="0"/>
        <pt x="242" y="645" on="0"/>
      </contour>
      <contour>
        <pt x="1359" y="635" on="1"/>
        <pt x="1331" y="689" on="0"/>
        <pt x="1237" y="749" on="0"/>
        <pt x="1180" y="749" on="1"/>
        <pt x="1120" y="749" on="0"/>
        <pt x="1044" y="686" on="0"/>
        <pt x="1044" y="629" on="1"/>
        <pt x="1044" y="574" on="0"/>
        <pt x="1115" y="510" on="0"/>
        <pt x="1179" y="510" on="1"/>
        <pt x="1244" y="510" on="0"/>
        <pt x="1340" y="576" on="0"/>
      </contour>
      <contour>
        <pt x="1850" y="944" on="1"/>
        <pt x="1798" y="875" on="0"/>
        <pt x="1798" y="795" on="1"/>
        <pt x="1798" y="733" on="0"/>
        <pt x="1873" y="658" on="0"/>
        <pt x="1936" y="658" on="1"/>
        <pt x="1998" y="658" on="0"/>
        <pt x="2068" y="730" on="0"/>
        <pt x="2068" y="790" on="1"/>
        <pt x="2068" y="868" on="0"/>
        <pt x="1976" y="944" on="0"/>
        <pt x="1877" y="944" on="1"/>
      </contour>
      <contour>
        <pt x="797" y="-50" on="1"/>
      </contour>
      <contour>
        <pt x="1594" y="-50" on="1"/>
      </contour>
    </TTGlyph>
    <TTGlyph name="glyph00154" xMin="72" yMin="-257" xMax="2090" yMax="1023">
      <contour>
        <pt x="280" y="869" on="1"/>
        <pt x="75" y="869" on="1"/>
        <pt x="75" y="1023" on="1"/>
        <pt x="1656" y="1023" on="1"/>
        <pt x="1773" y="1023" on="0"/>
        <pt x="1914" y="998" on="0"/>
        <pt x="2028" y="924" on="0"/>
        <pt x="2090" y="805" on="0"/>
        <pt x="2090" y="717" on="1"/>
        <pt x="2090" y="594" on="0"/>
        <pt x="1933" y="448" on="0"/>
        <pt x="1801" y="448" on="1"/>
        <pt x="1670" y="448" on="0"/>
        <pt x="1520" y="595" on="0"/>
        <pt x="1520" y="704" on="1"/>
        <pt x="1520" y="793" on="0"/>
        <pt x="1564" y="869" on="1"/>
        <pt x="1171" y="869" on="1"/>
        <pt x="1269" y="796" on="0"/>
        <pt x="1373" y="561" on="0"/>
        <pt x="1373" y="410" on="1"/>
        <pt x="1373" y="204" on="0"/>
        <pt x="1192" y="-26" on="0"/>
        <pt x="1033" y="-26" on="1"/>
        <pt x="924" y="-26" on="0"/>
        <pt x="780" y="56" on="0"/>
        <pt x="722" y="150" on="1"/>
        <pt x="674" y="65" on="0"/>
        <pt x="528" y="-26" on="0"/>
        <pt x="406" y="-26" on="1"/>
        <pt x="254" y="-26" on="0"/>
        <pt x="72" y="208" on="0"/>
        <pt x="72" y="410" on="1"/>
        <pt x="72" y="557" on="0"/>
        <pt x="178" y="795" on="0"/>
      </contour>
      <contour>
        <pt x="643" y="346" on="1"/>
        <pt x="802" y="346" on="1"/>
        <pt x="820" y="245" on="0"/>
        <pt x="933" y="135" on="0"/>
        <pt x="1015" y="135" on="1"/>
        <pt x="1112" y="135" on="0"/>
        <pt x="1204" y="273" on="0"/>
        <pt x="1204" y="412" on="1"/>
        <pt x="1204" y="623" on="0"/>
        <pt x="963" y="869" on="0"/>
        <pt x="745" y="869" on="1"/>
        <pt x="714" y="869" on="1"/>
        <pt x="493" y="869" on="0"/>
        <pt x="241" y="627" on="0"/>
        <pt x="241" y="417" on="1"/>
        <pt x="241" y="274" on="0"/>
        <pt x="333" y="135" on="0"/>
        <pt x="430" y="135" on="1"/>
        <pt x="594" y="135" on="0"/>
      </contour>
      <contour>
        <pt x="725" y="667" on="1"/>
        <pt x="777" y="667" on="0"/>
        <pt x="834" y="605" on="0"/>
        <pt x="834" y="548" on="1"/>
        <pt x="834" y="489" on="0"/>
        <pt x="776" y="426" on="0"/>
        <pt x="725" y="426" on="1"/>
        <pt x="671" y="426" on="0"/>
        <pt x="614" y="489" on="0"/>
        <pt x="614" y="548" on="1"/>
        <pt x="614" y="667" on="0"/>
      </contour>
      <contour>
        <pt x="1722" y="869" on="1"/>
        <pt x="1670" y="800" on="0"/>
        <pt x="1670" y="720" on="1"/>
        <pt x="1670" y="658" on="0"/>
        <pt x="1745" y="583" on="0"/>
        <pt x="1808" y="583" on="1"/>
        <pt x="1870" y="583" on="0"/>
        <pt x="1940" y="655" on="0"/>
        <pt x="1940" y="715" on="1"/>
        <pt x="1940" y="793" on="0"/>
        <pt x="1848" y="869" on="0"/>
        <pt x="1749" y="869" on="1"/>
      </contour>
      <contour>
        <pt x="631" y="-257" on="1"/>
        <pt x="646" y="33" on="1"/>
        <pt x="800" y="33" on="1"/>
        <pt x="815" y="-257" on="1"/>
      </contour>
      <contour>
        <pt x="723" y="-50" on="1"/>
      </contour>
      <contour>
        <pt x="1446" y="-50" on="1"/>
      </contour>
    </TTGlyph>
    <TTGlyph name="glyph00155" xMin="72" yMin="-50" xMax="2090" yMax="1023">
      <contour>
        <pt x="280" y="869" on="1"/>
        <pt x="75" y="869" on="1"/>
        <pt x="75" y="1023" on="1"/>
        <pt x="1656" y="1023" on="1"/>
        <pt x="1773" y="1023" on="0"/>
        <pt x="1914" y="998" on="0"/>
        <pt x="2028" y="924" on="0"/>
        <pt x="2090" y="805" on="0"/>
        <pt x="2090" y="717" on="1"/>
        <pt x="2090" y="594" on="0"/>
        <pt x="1933" y="448" on="0"/>
        <pt x="1801" y="448" on="1"/>
        <pt x="1670" y="448" on="0"/>
        <pt x="1520" y="595" on="0"/>
        <pt x="1520" y="704" on="1"/>
        <pt x="1520" y="793" on="0"/>
        <pt x="1564" y="869" on="1"/>
        <pt x="1171" y="869" on="1"/>
        <pt x="1269" y="796" on="0"/>
        <pt x="1373" y="561" on="0"/>
        <pt x="1373" y="410" on="1"/>
        <pt x="1373" y="204" on="0"/>
        <pt x="1192" y="-26" on="0"/>
        <pt x="1033" y="-26" on="1"/>
        <pt x="924" y="-26" on="0"/>
        <pt x="780" y="56" on="0"/>
        <pt x="722" y="150" on="1"/>
        <pt x="674" y="65" on="0"/>
        <pt x="528" y="-26" on="0"/>
        <pt x="406" y="-26" on="1"/>
        <pt x="254" y="-26" on="0"/>
        <pt x="72" y="208" on="0"/>
        <pt x="72" y="410" on="1"/>
        <pt x="72" y="557" on="0"/>
        <pt x="178" y="795" on="0"/>
      </contour>
      <contour>
        <pt x="643" y="346" on="1"/>
        <pt x="802" y="346" on="1"/>
        <pt x="820" y="245" on="0"/>
        <pt x="933" y="135" on="0"/>
        <pt x="1015" y="135" on="1"/>
        <pt x="1112" y="135" on="0"/>
        <pt x="1204" y="273" on="0"/>
        <pt x="1204" y="412" on="1"/>
        <pt x="1204" y="623" on="0"/>
        <pt x="963" y="869" on="0"/>
        <pt x="745" y="869" on="1"/>
        <pt x="714" y="869" on="1"/>
        <pt x="493" y="869" on="0"/>
        <pt x="241" y="627" on="0"/>
        <pt x="241" y="417" on="1"/>
        <pt x="241" y="274" on="0"/>
        <pt x="333" y="135" on="0"/>
        <pt x="430" y="135" on="1"/>
        <pt x="594" y="135" on="0"/>
      </contour>
      <contour>
        <pt x="1722" y="869" on="1"/>
        <pt x="1670" y="800" on="0"/>
        <pt x="1670" y="720" on="1"/>
        <pt x="1670" y="658" on="0"/>
        <pt x="1745" y="583" on="0"/>
        <pt x="1808" y="583" on="1"/>
        <pt x="1870" y="583" on="0"/>
        <pt x="1940" y="655" on="0"/>
        <pt x="1940" y="715" on="1"/>
        <pt x="1940" y="793" on="0"/>
        <pt x="1848" y="869" on="0"/>
        <pt x="1749" y="869" on="1"/>
      </contour>
      <contour>
        <pt x="723" y="-50" on="1"/>
      </contour>
      <contour>
        <pt x="1446" y="-50" on="1"/>
      </contour>
    </TTGlyph>
    <TTGlyph name="glyph00156" xMin="72" yMin="-257" xMax="2090" yMax="1023">
      <contour>
        <pt x="280" y="869" on="1"/>
        <pt x="75" y="869" on="1"/>
        <pt x="75" y="1023" on="1"/>
        <pt x="1656" y="1023" on="1"/>
        <pt x="1773" y="1023" on="0"/>
        <pt x="1914" y="998" on="0"/>
        <pt x="2028" y="924" on="0"/>
        <pt x="2090" y="805" on="0"/>
        <pt x="2090" y="717" on="1"/>
        <pt x="2090" y="594" on="0"/>
        <pt x="1933" y="448" on="0"/>
        <pt x="1801" y="448" on="1"/>
        <pt x="1670" y="448" on="0"/>
        <pt x="1520" y="595" on="0"/>
        <pt x="1520" y="704" on="1"/>
        <pt x="1520" y="793" on="0"/>
        <pt x="1564" y="869" on="1"/>
        <pt x="1171" y="869" on="1"/>
        <pt x="1269" y="796" on="0"/>
        <pt x="1373" y="561" on="0"/>
        <pt x="1373" y="410" on="1"/>
        <pt x="1373" y="204" on="0"/>
        <pt x="1192" y="-26" on="0"/>
        <pt x="1033" y="-26" on="1"/>
        <pt x="924" y="-26" on="0"/>
        <pt x="780" y="56" on="0"/>
        <pt x="722" y="150" on="1"/>
        <pt x="674" y="65" on="0"/>
        <pt x="528" y="-26" on="0"/>
        <pt x="406" y="-26" on="1"/>
        <pt x="254" y="-26" on="0"/>
        <pt x="72" y="208" on="0"/>
        <pt x="72" y="410" on="1"/>
        <pt x="72" y="557" on="0"/>
        <pt x="178" y="795" on="0"/>
      </contour>
      <contour>
        <pt x="643" y="346" on="1"/>
        <pt x="802" y="346" on="1"/>
        <pt x="820" y="245" on="0"/>
        <pt x="933" y="135" on="0"/>
        <pt x="1015" y="135" on="1"/>
        <pt x="1112" y="135" on="0"/>
        <pt x="1204" y="273" on="0"/>
        <pt x="1204" y="412" on="1"/>
        <pt x="1204" y="623" on="0"/>
        <pt x="963" y="869" on="0"/>
        <pt x="745" y="869" on="1"/>
        <pt x="714" y="869" on="1"/>
        <pt x="493" y="869" on="0"/>
        <pt x="241" y="627" on="0"/>
        <pt x="241" y="417" on="1"/>
        <pt x="241" y="274" on="0"/>
        <pt x="333" y="135" on="0"/>
        <pt x="430" y="135" on="1"/>
        <pt x="594" y="135" on="0"/>
      </contour>
      <contour>
        <pt x="1722" y="869" on="1"/>
        <pt x="1670" y="800" on="0"/>
        <pt x="1670" y="720" on="1"/>
        <pt x="1670" y="658" on="0"/>
        <pt x="1745" y="583" on="0"/>
        <pt x="1808" y="583" on="1"/>
        <pt x="1870" y="583" on="0"/>
        <pt x="1940" y="655" on="0"/>
        <pt x="1940" y="715" on="1"/>
        <pt x="1940" y="793" on="0"/>
        <pt x="1848" y="869" on="0"/>
        <pt x="1749" y="869" on="1"/>
      </contour>
      <contour>
        <pt x="631" y="-257" on="1"/>
        <pt x="646" y="33" on="1"/>
        <pt x="800" y="33" on="1"/>
        <pt x="815" y="-257" on="1"/>
      </contour>
      <contour>
        <pt x="723" y="-50" on="1"/>
      </contour>
      <contour>
        <pt x="1446" y="-50" on="1"/>
      </contour>
    </TTGlyph>
    <TTGlyph name="glyph00157" xMin="60" yMin="-50" xMax="2110" yMax="1023">
      <contour>
        <pt x="768" y="869" on="1"/>
        <pt x="199" y="869" on="1"/>
        <pt x="199" y="1023" on="1"/>
        <pt x="1676" y="1023" on="1"/>
        <pt x="1793" y="1023" on="0"/>
        <pt x="1934" y="998" on="0"/>
        <pt x="2048" y="924" on="0"/>
        <pt x="2110" y="805" on="0"/>
        <pt x="2110" y="717" on="1"/>
        <pt x="2110" y="594" on="0"/>
        <pt x="1953" y="448" on="0"/>
        <pt x="1821" y="448" on="1"/>
        <pt x="1690" y="448" on="0"/>
        <pt x="1540" y="595" on="0"/>
        <pt x="1540" y="704" on="1"/>
        <pt x="1540" y="793" on="0"/>
        <pt x="1584" y="869" on="1"/>
        <pt x="1122" y="869" on="1"/>
        <pt x="1233" y="795" on="0"/>
        <pt x="1364" y="542" on="0"/>
        <pt x="1364" y="397" on="1"/>
        <pt x="1364" y="198" on="0"/>
        <pt x="1155" y="-26" on="0"/>
        <pt x="966" y="-26" on="1"/>
        <pt x="840" y="-26" on="0"/>
        <pt x="656" y="93" on="0"/>
        <pt x="524" y="272" on="1"/>
        <pt x="451" y="370" on="0"/>
        <pt x="382" y="429" on="0"/>
        <pt x="336" y="429" on="1"/>
        <pt x="289" y="429" on="0"/>
        <pt x="228" y="353" on="0"/>
        <pt x="228" y="293" on="1"/>
        <pt x="228" y="226" on="0"/>
        <pt x="273" y="101" on="0"/>
        <pt x="325" y="29" on="1"/>
        <pt x="159" y="-27" on="1"/>
        <pt x="107" y="57" on="0"/>
        <pt x="60" y="209" on="0"/>
        <pt x="60" y="292" on="1"/>
        <pt x="60" y="418" on="0"/>
        <pt x="217" y="586" on="0"/>
        <pt x="337" y="586" on="1"/>
        <pt x="407" y="586" on="0"/>
        <pt x="509" y="542" on="0"/>
        <pt x="591" y="464" on="0"/>
        <pt x="671" y="358" on="1"/>
        <pt x="781" y="212" on="0"/>
        <pt x="901" y="135" on="0"/>
        <pt x="978" y="135" on="1"/>
        <pt x="1081" y="135" on="0"/>
        <pt x="1194" y="268" on="0"/>
        <pt x="1194" y="395" on="1"/>
        <pt x="1194" y="563" on="0"/>
        <pt x="973" y="809" on="0"/>
      </contour>
      <contour>
        <pt x="1742" y="869" on="1"/>
        <pt x="1690" y="800" on="0"/>
        <pt x="1690" y="720" on="1"/>
        <pt x="1690" y="658" on="0"/>
        <pt x="1765" y="583" on="0"/>
        <pt x="1828" y="583" on="1"/>
        <pt x="1890" y="583" on="0"/>
        <pt x="1960" y="655" on="0"/>
        <pt x="1960" y="715" on="1"/>
        <pt x="1960" y="793" on="0"/>
        <pt x="1868" y="869" on="0"/>
        <pt x="1769" y="869" on="1"/>
      </contour>
      <contour>
        <pt x="718" y="-50" on="1"/>
      </contour>
      <contour>
        <pt x="1437" y="-50" on="1"/>
      </contour>
    </TTGlyph>
    <TTGlyph name="glyph00158" xMin="60" yMin="-50" xMax="2110" yMax="1459">
      <component glyphName="glyph00693" x="0" y="0" flags="0x0"/>
      <component glyphName="glyph00726" x="0" y="0" flags="0x0"/>
    </TTGlyph>
    <TTGlyph name="glyph00159" xMin="60" yMin="-257" xMax="2110" yMax="1459">
      <component glyphName="glyph00696" x="0" y="0" flags="0x0"/>
      <component glyphName="glyph00726" x="0" y="0" flags="0x0"/>
    </TTGlyph>
    <TTGlyph name="glyph00160" xMin="73" yMin="-50" xMax="2165" yMax="1023">
      <contour>
        <pt x="1731" y="1023" on="1"/>
        <pt x="1848" y="1023" on="0"/>
        <pt x="1989" y="998" on="0"/>
        <pt x="2103" y="924" on="0"/>
        <pt x="2165" y="805" on="0"/>
        <pt x="2165" y="717" on="1"/>
        <pt x="2165" y="594" on="0"/>
        <pt x="2008" y="448" on="0"/>
        <pt x="1876" y="448" on="1"/>
        <pt x="1745" y="448" on="0"/>
        <pt x="1595" y="595" on="0"/>
        <pt x="1595" y="704" on="1"/>
        <pt x="1595" y="793" on="0"/>
        <pt x="1639" y="869" on="1"/>
        <pt x="1228" y="869" on="1"/>
        <pt x="1344" y="780" on="0"/>
        <pt x="1463" y="544" on="0"/>
        <pt x="1463" y="405" on="1"/>
        <pt x="1463" y="202" on="0"/>
        <pt x="1264" y="-26" on="0"/>
        <pt x="1092" y="-26" on="1"/>
        <pt x="973" y="-26" on="0"/>
        <pt x="825" y="61" on="0"/>
        <pt x="768" y="150" on="1"/>
        <pt x="706" y="62" on="0"/>
        <pt x="553" y="-26" on="0"/>
        <pt x="420" y="-26" on="1"/>
        <pt x="262" y="-26" on="0"/>
        <pt x="84" y="139" on="0"/>
        <pt x="84" y="267" on="1"/>
        <pt x="84" y="383" on="0"/>
        <pt x="224" y="533" on="0"/>
        <pt x="388" y="591" on="1"/>
        <pt x="500" y="631" on="0"/>
        <pt x="570" y="707" on="0"/>
        <pt x="570" y="759" on="1"/>
        <pt x="570" y="815" on="0"/>
        <pt x="492" y="874" on="0"/>
        <pt x="415" y="874" on="1"/>
        <pt x="327" y="874" on="0"/>
        <pt x="241" y="807" on="0"/>
        <pt x="241" y="748" on="1"/>
        <pt x="241" y="709" on="0"/>
        <pt x="262" y="662" on="1"/>
        <pt x="109" y="618" on="1"/>
        <pt x="73" y="683" on="0"/>
        <pt x="73" y="767" on="1"/>
        <pt x="73" y="880" on="0"/>
        <pt x="252" y="1023" on="0"/>
        <pt x="415" y="1023" on="1"/>
        <pt x="570" y="1023" on="0"/>
        <pt x="737" y="874" on="0"/>
        <pt x="737" y="758" on="1"/>
        <pt x="737" y="653" on="0"/>
        <pt x="617" y="516" on="0"/>
        <pt x="465" y="460" on="1"/>
        <pt x="339" y="413" on="0"/>
        <pt x="252" y="327" on="0"/>
        <pt x="252" y="268" on="1"/>
        <pt x="252" y="205" on="0"/>
        <pt x="340" y="135" on="0"/>
        <pt x="423" y="135" on="1"/>
        <pt x="540" y="135" on="0"/>
        <pt x="677" y="256" on="0"/>
        <pt x="688" y="376" on="1"/>
        <pt x="847" y="376" on="1"/>
        <pt x="856" y="262" on="0"/>
        <pt x="979" y="135" on="0"/>
        <pt x="1075" y="135" on="1"/>
        <pt x="1184" y="135" on="0"/>
        <pt x="1293" y="264" on="0"/>
        <pt x="1293" y="394" on="1"/>
        <pt x="1293" y="543" on="0"/>
        <pt x="1121" y="781" on="0"/>
        <pt x="949" y="869" on="1"/>
        <pt x="806" y="869" on="1"/>
        <pt x="806" y="1023" on="1"/>
      </contour>
      <contour>
        <pt x="1797" y="869" on="1"/>
        <pt x="1745" y="800" on="0"/>
        <pt x="1745" y="720" on="1"/>
        <pt x="1745" y="658" on="0"/>
        <pt x="1820" y="583" on="0"/>
        <pt x="1883" y="583" on="1"/>
        <pt x="1945" y="583" on="0"/>
        <pt x="2015" y="655" on="0"/>
        <pt x="2015" y="715" on="1"/>
        <pt x="2015" y="793" on="0"/>
        <pt x="1923" y="869" on="0"/>
        <pt x="1824" y="869" on="1"/>
      </contour>
      <contour>
        <pt x="768" y="-50" on="1"/>
      </contour>
      <contour>
        <pt x="1536" y="-50" on="1"/>
      </contour>
    </TTGlyph>
    <TTGlyph name="glyph00161" xMin="73" yMin="-257" xMax="2165" yMax="1023">
      <contour>
        <pt x="1731" y="1023" on="1"/>
        <pt x="1848" y="1023" on="0"/>
        <pt x="1989" y="998" on="0"/>
        <pt x="2103" y="924" on="0"/>
        <pt x="2165" y="805" on="0"/>
        <pt x="2165" y="717" on="1"/>
        <pt x="2165" y="594" on="0"/>
        <pt x="2008" y="448" on="0"/>
        <pt x="1876" y="448" on="1"/>
        <pt x="1745" y="448" on="0"/>
        <pt x="1595" y="595" on="0"/>
        <pt x="1595" y="704" on="1"/>
        <pt x="1595" y="793" on="0"/>
        <pt x="1639" y="869" on="1"/>
        <pt x="1228" y="869" on="1"/>
        <pt x="1344" y="780" on="0"/>
        <pt x="1463" y="544" on="0"/>
        <pt x="1463" y="405" on="1"/>
        <pt x="1463" y="202" on="0"/>
        <pt x="1264" y="-26" on="0"/>
        <pt x="1092" y="-26" on="1"/>
        <pt x="973" y="-26" on="0"/>
        <pt x="825" y="61" on="0"/>
        <pt x="768" y="150" on="1"/>
        <pt x="706" y="62" on="0"/>
        <pt x="553" y="-26" on="0"/>
        <pt x="420" y="-26" on="1"/>
        <pt x="262" y="-26" on="0"/>
        <pt x="84" y="139" on="0"/>
        <pt x="84" y="267" on="1"/>
        <pt x="84" y="383" on="0"/>
        <pt x="224" y="533" on="0"/>
        <pt x="388" y="591" on="1"/>
        <pt x="500" y="631" on="0"/>
        <pt x="570" y="707" on="0"/>
        <pt x="570" y="759" on="1"/>
        <pt x="570" y="815" on="0"/>
        <pt x="492" y="874" on="0"/>
        <pt x="415" y="874" on="1"/>
        <pt x="327" y="874" on="0"/>
        <pt x="241" y="807" on="0"/>
        <pt x="241" y="748" on="1"/>
        <pt x="241" y="709" on="0"/>
        <pt x="262" y="662" on="1"/>
        <pt x="109" y="618" on="1"/>
        <pt x="73" y="683" on="0"/>
        <pt x="73" y="767" on="1"/>
        <pt x="73" y="880" on="0"/>
        <pt x="252" y="1023" on="0"/>
        <pt x="415" y="1023" on="1"/>
        <pt x="570" y="1023" on="0"/>
        <pt x="737" y="874" on="0"/>
        <pt x="737" y="758" on="1"/>
        <pt x="737" y="653" on="0"/>
        <pt x="617" y="516" on="0"/>
        <pt x="465" y="460" on="1"/>
        <pt x="339" y="413" on="0"/>
        <pt x="252" y="327" on="0"/>
        <pt x="252" y="268" on="1"/>
        <pt x="252" y="205" on="0"/>
        <pt x="340" y="135" on="0"/>
        <pt x="423" y="135" on="1"/>
        <pt x="540" y="135" on="0"/>
        <pt x="677" y="256" on="0"/>
        <pt x="688" y="376" on="1"/>
        <pt x="847" y="376" on="1"/>
        <pt x="856" y="262" on="0"/>
        <pt x="979" y="135" on="0"/>
        <pt x="1075" y="135" on="1"/>
        <pt x="1184" y="135" on="0"/>
        <pt x="1293" y="264" on="0"/>
        <pt x="1293" y="394" on="1"/>
        <pt x="1293" y="543" on="0"/>
        <pt x="1121" y="781" on="0"/>
        <pt x="949" y="869" on="1"/>
        <pt x="806" y="869" on="1"/>
        <pt x="806" y="1023" on="1"/>
      </contour>
      <contour>
        <pt x="1797" y="869" on="1"/>
        <pt x="1745" y="800" on="0"/>
        <pt x="1745" y="720" on="1"/>
        <pt x="1745" y="658" on="0"/>
        <pt x="1820" y="583" on="0"/>
        <pt x="1883" y="583" on="1"/>
        <pt x="1945" y="583" on="0"/>
        <pt x="2015" y="655" on="0"/>
        <pt x="2015" y="715" on="1"/>
        <pt x="2015" y="793" on="0"/>
        <pt x="1923" y="869" on="0"/>
        <pt x="1824" y="869" on="1"/>
      </contour>
      <contour>
        <pt x="674" y="-257" on="1"/>
        <pt x="689" y="33" on="1"/>
        <pt x="843" y="33" on="1"/>
        <pt x="858" y="-257" on="1"/>
      </contour>
      <contour>
        <pt x="768" y="-50" on="1"/>
      </contour>
      <contour>
        <pt x="1536" y="-50" on="1"/>
      </contour>
    </TTGlyph>
    <TTGlyph name="glyph00162" xMin="60" yMin="-50" xMax="2795" yMax="1485">
      <component glyphName="glyph00703" x="0" y="0" flags="0x200"/>
      <component glyphName="glyph00724" x="241" y="0" flags="0x0"/>
    </TTGlyph>
    <TTGlyph name="glyph00163" xMin="72" yMin="-50" xMax="3262" yMax="1485">
      <component glyphName="glyph00709" x="0" y="0" flags="0x200"/>
      <component glyphName="glyph00724" x="1053" y="0" flags="0x0"/>
    </TTGlyph>
    <TTGlyph name="glyph00164" xMin="72" yMin="-50" xMax="1875" yMax="1023">
      <contour>
        <pt x="1441" y="1023" on="1"/>
        <pt x="1558" y="1023" on="0"/>
        <pt x="1699" y="998" on="0"/>
        <pt x="1813" y="924" on="0"/>
        <pt x="1875" y="805" on="0"/>
        <pt x="1875" y="717" on="1"/>
        <pt x="1875" y="594" on="0"/>
        <pt x="1718" y="448" on="0"/>
        <pt x="1586" y="448" on="1"/>
        <pt x="1455" y="448" on="0"/>
        <pt x="1305" y="595" on="0"/>
        <pt x="1305" y="704" on="1"/>
        <pt x="1305" y="793" on="0"/>
        <pt x="1349" y="869" on="1"/>
        <pt x="987" y="869" on="1"/>
        <pt x="1142" y="729" on="0"/>
        <pt x="1142" y="486" on="1"/>
        <pt x="1142" y="335" on="0"/>
        <pt x="1010" y="102" on="0"/>
        <pt x="767" y="-26" on="0"/>
        <pt x="607" y="-26" on="1"/>
        <pt x="363" y="-26" on="0"/>
        <pt x="72" y="254" on="0"/>
        <pt x="72" y="483" on="1"/>
        <pt x="72" y="728" on="0"/>
        <pt x="231" y="869" on="1"/>
        <pt x="75" y="869" on="1"/>
        <pt x="75" y="1023" on="1"/>
      </contour>
      <contour>
        <pt x="606" y="135" on="1"/>
        <pt x="779" y="135" on="0"/>
        <pt x="973" y="330" on="0"/>
        <pt x="973" y="494" on="1"/>
        <pt x="973" y="663" on="0"/>
        <pt x="778" y="869" on="0"/>
        <pt x="606" y="869" on="1"/>
        <pt x="435" y="869" on="0"/>
        <pt x="240" y="666" on="0"/>
        <pt x="240" y="505" on="1"/>
        <pt x="240" y="335" on="0"/>
        <pt x="433" y="135" on="0"/>
      </contour>
      <contour>
        <pt x="1507" y="869" on="1"/>
        <pt x="1455" y="800" on="0"/>
        <pt x="1455" y="720" on="1"/>
        <pt x="1455" y="658" on="0"/>
        <pt x="1530" y="583" on="0"/>
        <pt x="1593" y="583" on="1"/>
        <pt x="1655" y="583" on="0"/>
        <pt x="1725" y="655" on="0"/>
        <pt x="1725" y="715" on="1"/>
        <pt x="1725" y="793" on="0"/>
        <pt x="1633" y="869" on="0"/>
        <pt x="1534" y="869" on="1"/>
      </contour>
      <contour>
        <pt x="607" y="-50" on="1"/>
      </contour>
      <contour>
        <pt x="1215" y="-50" on="1"/>
      </contour>
    </TTGlyph>
    <TTGlyph name="glyph00165" xMin="73" yMin="-50" xMax="2346" yMax="1023">
      <contour>
        <pt x="670" y="576" on="1"/>
        <pt x="1047" y="576" on="1"/>
        <pt x="989" y="617" on="0"/>
        <pt x="940" y="715" on="0"/>
        <pt x="940" y="780" on="1"/>
        <pt x="940" y="829" on="0"/>
        <pt x="962" y="869" on="1"/>
        <pt x="775" y="869" on="1"/>
        <pt x="775" y="1023" on="1"/>
        <pt x="1912" y="1023" on="1"/>
        <pt x="2029" y="1023" on="0"/>
        <pt x="2170" y="998" on="0"/>
        <pt x="2284" y="924" on="0"/>
        <pt x="2346" y="805" on="0"/>
        <pt x="2346" y="717" on="1"/>
        <pt x="2346" y="594" on="0"/>
        <pt x="2189" y="448" on="0"/>
        <pt x="2057" y="448" on="1"/>
        <pt x="1926" y="448" on="0"/>
        <pt x="1776" y="595" on="0"/>
        <pt x="1776" y="704" on="1"/>
        <pt x="1776" y="793" on="0"/>
        <pt x="1820" y="869" on="1"/>
        <pt x="1501" y="869" on="1"/>
        <pt x="1606" y="741" on="0"/>
        <pt x="1606" y="522" on="1"/>
        <pt x="1606" y="271" on="0"/>
        <pt x="1363" y="-26" on="0"/>
        <pt x="1165" y="-26" on="1"/>
        <pt x="1048" y="-26" on="0"/>
        <pt x="900" y="55" on="0"/>
        <pt x="842" y="150" on="1"/>
        <pt x="794" y="65" on="0"/>
        <pt x="647" y="-26" on="0"/>
        <pt x="518" y="-26" on="1"/>
        <pt x="382" y="-26" on="0"/>
        <pt x="180" y="107" on="0"/>
        <pt x="73" y="354" on="0"/>
        <pt x="73" y="511" on="1"/>
        <pt x="73" y="748" on="0"/>
        <pt x="289" y="1023" on="0"/>
        <pt x="461" y="1023" on="1"/>
        <pt x="584" y="1023" on="0"/>
        <pt x="731" y="883" on="0"/>
        <pt x="731" y="764" on="1"/>
        <pt x="731" y="647" on="0"/>
      </contour>
      <contour>
        <pt x="247" y="670" on="1"/>
        <pt x="315" y="625" on="0"/>
        <pt x="403" y="625" on="1"/>
        <pt x="486" y="625" on="0"/>
        <pt x="569" y="693" on="0"/>
        <pt x="569" y="756" on="1"/>
        <pt x="569" y="813" on="0"/>
        <pt x="504" y="878" on="0"/>
        <pt x="451" y="878" on="1"/>
        <pt x="376" y="878" on="0"/>
        <pt x="269" y="771" on="0"/>
      </contour>
      <contour>
        <pt x="594" y="424" on="1"/>
        <pt x="594" y="517" on="1"/>
        <pt x="521" y="481" on="0"/>
        <pt x="413" y="481" on="1"/>
        <pt x="319" y="481" on="0"/>
        <pt x="234" y="528" on="1"/>
        <pt x="234" y="509" on="1"/>
        <pt x="234" y="339" on="0"/>
        <pt x="377" y="135" on="0"/>
        <pt x="513" y="135" on="1"/>
        <pt x="616" y="135" on="0"/>
        <pt x="739" y="236" on="0"/>
        <pt x="763" y="346" on="1"/>
        <pt x="922" y="346" on="1"/>
        <pt x="966" y="135" on="0"/>
        <pt x="1163" y="135" on="1"/>
        <pt x="1290" y="135" on="0"/>
        <pt x="1437" y="343" on="0"/>
        <pt x="1437" y="518" on="1"/>
        <pt x="1437" y="679" on="0"/>
        <pt x="1327" y="871" on="0"/>
        <pt x="1227" y="871" on="1"/>
        <pt x="1174" y="871" on="0"/>
        <pt x="1102" y="806" on="0"/>
        <pt x="1102" y="748" on="1"/>
        <pt x="1102" y="606" on="0"/>
        <pt x="1293" y="572" on="1"/>
        <pt x="1293" y="424" on="1"/>
      </contour>
      <contour>
        <pt x="1978" y="869" on="1"/>
        <pt x="1926" y="800" on="0"/>
        <pt x="1926" y="720" on="1"/>
        <pt x="1926" y="658" on="0"/>
        <pt x="2001" y="583" on="0"/>
        <pt x="2064" y="583" on="1"/>
        <pt x="2126" y="583" on="0"/>
        <pt x="2196" y="655" on="0"/>
        <pt x="2196" y="715" on="1"/>
        <pt x="2196" y="793" on="0"/>
        <pt x="2104" y="869" on="0"/>
        <pt x="2005" y="869" on="1"/>
      </contour>
      <contour>
        <pt x="839" y="-50" on="1"/>
      </contour>
      <contour>
        <pt x="1679" y="-50" on="1"/>
      </contour>
    </TTGlyph>
    <TTGlyph name="glyph00166" xMin="72" yMin="-50" xMax="2115" yMax="1023">
      <contour>
        <pt x="1681" y="1023" on="1"/>
        <pt x="1798" y="1023" on="0"/>
        <pt x="1939" y="998" on="0"/>
        <pt x="2053" y="924" on="0"/>
        <pt x="2115" y="805" on="0"/>
        <pt x="2115" y="717" on="1"/>
        <pt x="2115" y="594" on="0"/>
        <pt x="1958" y="448" on="0"/>
        <pt x="1826" y="448" on="1"/>
        <pt x="1695" y="448" on="0"/>
        <pt x="1545" y="595" on="0"/>
        <pt x="1545" y="704" on="1"/>
        <pt x="1545" y="793" on="0"/>
        <pt x="1589" y="869" on="1"/>
        <pt x="1236" y="869" on="1"/>
        <pt x="1307" y="798" on="0"/>
        <pt x="1380" y="615" on="0"/>
        <pt x="1380" y="513" on="1"/>
        <pt x="1380" y="257" on="0"/>
        <pt x="1047" y="-26" on="0"/>
        <pt x="729" y="-26" on="1"/>
        <pt x="422" y="-26" on="0"/>
        <pt x="72" y="287" on="0"/>
        <pt x="72" y="550" on="1"/>
        <pt x="72" y="767" on="0"/>
        <pt x="289" y="1023" on="0"/>
        <pt x="460" y="1023" on="1"/>
        <pt x="583" y="1023" on="0"/>
        <pt x="731" y="882" on="0"/>
        <pt x="731" y="764" on="1"/>
        <pt x="731" y="631" on="0"/>
        <pt x="565" y="481" on="0"/>
        <pt x="412" y="481" on="1"/>
        <pt x="319" y="481" on="0"/>
        <pt x="233" y="528" on="1"/>
        <pt x="242" y="346" on="0"/>
        <pt x="503" y="135" on="0"/>
        <pt x="723" y="135" on="1"/>
        <pt x="953" y="135" on="0"/>
        <pt x="1209" y="330" on="0"/>
        <pt x="1209" y="509" on="1"/>
        <pt x="1209" y="624" on="0"/>
        <pt x="1087" y="815" on="0"/>
        <pt x="975" y="869" on="1"/>
        <pt x="812" y="869" on="1"/>
        <pt x="812" y="1023" on="1"/>
      </contour>
      <contour>
        <pt x="241" y="674" on="1"/>
        <pt x="312" y="625" on="0"/>
        <pt x="402" y="625" on="1"/>
        <pt x="485" y="625" on="0"/>
        <pt x="569" y="693" on="0"/>
        <pt x="569" y="756" on="1"/>
        <pt x="569" y="812" on="0"/>
        <pt x="504" y="878" on="0"/>
        <pt x="450" y="878" on="1"/>
        <pt x="372" y="878" on="0"/>
        <pt x="261" y="773" on="0"/>
      </contour>
      <contour>
        <pt x="1747" y="869" on="1"/>
        <pt x="1695" y="800" on="0"/>
        <pt x="1695" y="720" on="1"/>
        <pt x="1695" y="658" on="0"/>
        <pt x="1770" y="583" on="0"/>
        <pt x="1833" y="583" on="1"/>
        <pt x="1895" y="583" on="0"/>
        <pt x="1965" y="655" on="0"/>
        <pt x="1965" y="715" on="1"/>
        <pt x="1965" y="793" on="0"/>
        <pt x="1873" y="869" on="0"/>
        <pt x="1774" y="869" on="1"/>
      </contour>
      <contour>
        <pt x="726" y="-50" on="1"/>
      </contour>
      <contour>
        <pt x="1452" y="-50" on="1"/>
      </contour>
    </TTGlyph>
    <TTGlyph name="glyph00167" xMin="60" yMin="-50" xMax="2014" yMax="1023">
      <contour>
        <pt x="1580" y="1023" on="1"/>
        <pt x="1697" y="1023" on="0"/>
        <pt x="1838" y="998" on="0"/>
        <pt x="1952" y="924" on="0"/>
        <pt x="2014" y="805" on="0"/>
        <pt x="2014" y="717" on="1"/>
        <pt x="2014" y="594" on="0"/>
        <pt x="1857" y="448" on="0"/>
        <pt x="1725" y="448" on="1"/>
        <pt x="1594" y="448" on="0"/>
        <pt x="1444" y="595" on="0"/>
        <pt x="1444" y="704" on="1"/>
        <pt x="1444" y="793" on="0"/>
        <pt x="1488" y="869" on="1"/>
        <pt x="1172" y="869" on="1"/>
        <pt x="1257" y="795" on="0"/>
        <pt x="1257" y="663" on="1"/>
        <pt x="1257" y="533" on="0"/>
        <pt x="1085" y="364" on="0"/>
        <pt x="916" y="331" on="1"/>
        <pt x="989" y="270" on="0"/>
        <pt x="989" y="193" on="1"/>
        <pt x="989" y="86" on="0"/>
        <pt x="822" y="-26" on="0"/>
        <pt x="673" y="-26" on="1"/>
        <pt x="534" y="-26" on="0"/>
        <pt x="366" y="84" on="0"/>
        <pt x="366" y="189" on="1"/>
        <pt x="366" y="281" on="0"/>
        <pt x="450" y="338" on="1"/>
        <pt x="260" y="366" on="0"/>
        <pt x="60" y="529" on="0"/>
        <pt x="60" y="657" on="1"/>
        <pt x="60" y="761" on="0"/>
        <pt x="232" y="905" on="0"/>
        <pt x="374" y="905" on="1"/>
        <pt x="519" y="905" on="0"/>
        <pt x="680" y="766" on="0"/>
        <pt x="680" y="661" on="1"/>
        <pt x="680" y="539" on="0"/>
        <pt x="545" y="461" on="1"/>
        <pt x="567" y="458" on="0"/>
        <pt x="631" y="454" on="1"/>
        <pt x="695" y="449" on="0"/>
        <pt x="739" y="440" on="1"/>
        <pt x="911" y="453" on="0"/>
        <pt x="1088" y="567" on="0"/>
        <pt x="1088" y="662" on="1"/>
        <pt x="1088" y="801" on="0"/>
        <pt x="913" y="869" on="1"/>
        <pt x="606" y="869" on="1"/>
        <pt x="606" y="1023" on="1"/>
      </contour>
      <contour>
        <pt x="1646" y="869" on="1"/>
        <pt x="1594" y="800" on="0"/>
        <pt x="1594" y="720" on="1"/>
        <pt x="1594" y="658" on="0"/>
        <pt x="1669" y="583" on="0"/>
        <pt x="1732" y="583" on="1"/>
        <pt x="1794" y="583" on="0"/>
        <pt x="1864" y="655" on="0"/>
        <pt x="1864" y="715" on="1"/>
        <pt x="1864" y="793" on="0"/>
        <pt x="1772" y="869" on="0"/>
        <pt x="1673" y="869" on="1"/>
      </contour>
      <contour>
        <pt x="354" y="499" on="1"/>
        <pt x="432" y="521" on="0"/>
        <pt x="518" y="597" on="0"/>
        <pt x="518" y="647" on="1"/>
        <pt x="518" y="699" on="0"/>
        <pt x="443" y="759" on="0"/>
        <pt x="371" y="759" on="1"/>
        <pt x="303" y="759" on="0"/>
        <pt x="223" y="695" on="0"/>
        <pt x="223" y="646" on="1"/>
        <pt x="223" y="609" on="0"/>
        <pt x="245" y="560" on="0"/>
        <pt x="303" y="515" on="0"/>
      </contour>
      <contour>
        <pt x="674" y="311" on="1"/>
        <pt x="526" y="283" on="0"/>
        <pt x="526" y="199" on="1"/>
        <pt x="526" y="157" on="0"/>
        <pt x="607" y="112" on="0"/>
        <pt x="680" y="112" on="1"/>
        <pt x="752" y="112" on="0"/>
        <pt x="829" y="157" on="0"/>
        <pt x="829" y="199" on="1"/>
        <pt x="829" y="242" on="0"/>
        <pt x="749" y="300" on="0"/>
      </contour>
      <contour>
        <pt x="660" y="-50" on="1"/>
      </contour>
      <contour>
        <pt x="1321" y="-50" on="1"/>
      </contour>
    </TTGlyph>
    <TTGlyph name="glyph00168" xMin="60" yMin="-50" xMax="2110" yMax="1023">
      <contour>
        <pt x="658" y="145" on="1"/>
        <pt x="587" y="48" on="0"/>
        <pt x="451" y="-26" on="0"/>
        <pt x="359" y="-26" on="1"/>
        <pt x="218" y="-26" on="0"/>
        <pt x="60" y="143" on="0"/>
        <pt x="60" y="280" on="1"/>
        <pt x="60" y="410" on="0"/>
        <pt x="224" y="576" on="0"/>
        <pt x="349" y="576" on="1"/>
        <pt x="441" y="576" on="0"/>
        <pt x="590" y="487" on="0"/>
        <pt x="713" y="328" on="1"/>
        <pt x="803" y="210" on="0"/>
        <pt x="920" y="135" on="0"/>
        <pt x="998" y="135" on="1"/>
        <pt x="1103" y="135" on="0"/>
        <pt x="1214" y="269" on="0"/>
        <pt x="1214" y="394" on="1"/>
        <pt x="1214" y="564" on="0"/>
        <pt x="992" y="810" on="0"/>
        <pt x="788" y="869" on="1"/>
        <pt x="199" y="869" on="1"/>
        <pt x="199" y="1023" on="1"/>
        <pt x="1676" y="1023" on="1"/>
        <pt x="1793" y="1023" on="0"/>
        <pt x="1934" y="998" on="0"/>
        <pt x="2048" y="924" on="0"/>
        <pt x="2110" y="805" on="0"/>
        <pt x="2110" y="717" on="1"/>
        <pt x="2110" y="594" on="0"/>
        <pt x="1953" y="448" on="0"/>
        <pt x="1821" y="448" on="1"/>
        <pt x="1690" y="448" on="0"/>
        <pt x="1540" y="595" on="0"/>
        <pt x="1540" y="704" on="1"/>
        <pt x="1540" y="793" on="0"/>
        <pt x="1584" y="869" on="1"/>
        <pt x="1142" y="869" on="1"/>
        <pt x="1253" y="795" on="0"/>
        <pt x="1384" y="542" on="0"/>
        <pt x="1384" y="397" on="1"/>
        <pt x="1384" y="200" on="0"/>
        <pt x="1175" y="-26" on="0"/>
        <pt x="986" y="-26" on="1"/>
        <pt x="891" y="-26" on="0"/>
        <pt x="737" y="54" on="0"/>
      </contour>
      <contour>
        <pt x="1742" y="869" on="1"/>
        <pt x="1690" y="800" on="0"/>
        <pt x="1690" y="720" on="1"/>
        <pt x="1690" y="658" on="0"/>
        <pt x="1765" y="583" on="0"/>
        <pt x="1828" y="583" on="1"/>
        <pt x="1890" y="583" on="0"/>
        <pt x="1960" y="655" on="0"/>
        <pt x="1960" y="715" on="1"/>
        <pt x="1960" y="793" on="0"/>
        <pt x="1868" y="869" on="0"/>
        <pt x="1769" y="869" on="1"/>
      </contour>
      <contour>
        <pt x="556" y="272" on="1"/>
        <pt x="484" y="367" on="0"/>
        <pt x="404" y="423" on="0"/>
        <pt x="353" y="423" on="1"/>
        <pt x="293" y="423" on="0"/>
        <pt x="220" y="344" on="0"/>
        <pt x="220" y="277" on="1"/>
        <pt x="220" y="211" on="0"/>
        <pt x="300" y="127" on="0"/>
        <pt x="368" y="127" on="1"/>
        <pt x="434" y="127" on="0"/>
        <pt x="525" y="202" on="0"/>
      </contour>
      <contour>
        <pt x="728" y="-50" on="1"/>
      </contour>
      <contour>
        <pt x="1457" y="-50" on="1"/>
      </contour>
    </TTGlyph>
    <TTGlyph name="glyph00169" xMin="60" yMin="-50" xMax="1776" yMax="1023">
      <contour>
        <pt x="775" y="658" on="1"/>
        <pt x="806" y="688" on="0"/>
        <pt x="833" y="739" on="0"/>
        <pt x="833" y="769" on="1"/>
        <pt x="833" y="838" on="0"/>
        <pt x="777" y="869" on="1"/>
        <pt x="188" y="869" on="1"/>
        <pt x="188" y="1023" on="1"/>
        <pt x="1342" y="1023" on="1"/>
        <pt x="1459" y="1023" on="0"/>
        <pt x="1600" y="998" on="0"/>
        <pt x="1714" y="924" on="0"/>
        <pt x="1776" y="805" on="0"/>
        <pt x="1776" y="717" on="1"/>
        <pt x="1776" y="594" on="0"/>
        <pt x="1619" y="448" on="0"/>
        <pt x="1487" y="448" on="1"/>
        <pt x="1356" y="448" on="0"/>
        <pt x="1206" y="595" on="0"/>
        <pt x="1206" y="704" on="1"/>
        <pt x="1206" y="793" on="0"/>
        <pt x="1250" y="869" on="1"/>
        <pt x="980" y="869" on="1"/>
        <pt x="997" y="837" on="0"/>
        <pt x="997" y="798" on="1"/>
        <pt x="997" y="677" on="0"/>
        <pt x="898" y="582" on="1"/>
        <pt x="981" y="519" on="0"/>
        <pt x="1064" y="356" on="0"/>
        <pt x="1064" y="255" on="1"/>
        <pt x="1064" y="124" on="0"/>
        <pt x="890" y="-26" on="0"/>
        <pt x="739" y="-26" on="1"/>
        <pt x="590" y="-26" on="0"/>
        <pt x="425" y="123" on="0"/>
        <pt x="425" y="243" on="1"/>
        <pt x="425" y="325" on="0"/>
        <pt x="523" y="469" on="0"/>
        <pt x="649" y="556" on="1"/>
        <pt x="605" y="570" on="0"/>
        <pt x="509" y="585" on="0"/>
        <pt x="458" y="585" on="1"/>
        <pt x="339" y="585" on="0"/>
        <pt x="228" y="506" on="0"/>
        <pt x="228" y="418" on="1"/>
        <pt x="228" y="360" on="0"/>
        <pt x="261" y="288" on="1"/>
        <pt x="104" y="244" on="1"/>
        <pt x="84" y="287" on="0"/>
        <pt x="60" y="393" on="0"/>
        <pt x="60" y="436" on="1"/>
        <pt x="60" y="575" on="0"/>
        <pt x="256" y="734" on="0"/>
        <pt x="445" y="734" on="1"/>
        <pt x="537" y="734" on="0"/>
        <pt x="702" y="696" on="0"/>
      </contour>
      <contour>
        <pt x="1408" y="869" on="1"/>
        <pt x="1356" y="800" on="0"/>
        <pt x="1356" y="720" on="1"/>
        <pt x="1356" y="658" on="0"/>
        <pt x="1431" y="583" on="0"/>
        <pt x="1494" y="583" on="1"/>
        <pt x="1556" y="583" on="0"/>
        <pt x="1626" y="655" on="0"/>
        <pt x="1626" y="715" on="1"/>
        <pt x="1626" y="793" on="0"/>
        <pt x="1534" y="869" on="0"/>
        <pt x="1435" y="869" on="1"/>
      </contour>
      <contour>
        <pt x="781" y="488" on="1"/>
        <pt x="669" y="408" on="0"/>
        <pt x="590" y="304" on="0"/>
        <pt x="590" y="250" on="1"/>
        <pt x="590" y="193" on="0"/>
        <pt x="668" y="128" on="0"/>
        <pt x="742" y="128" on="1"/>
        <pt x="818" y="128" on="0"/>
        <pt x="899" y="199" on="0"/>
        <pt x="899" y="266" on="1"/>
        <pt x="899" y="331" on="0"/>
        <pt x="840" y="442" on="0"/>
      </contour>
      <contour>
        <pt x="563" y="-50" on="1"/>
      </contour>
      <contour>
        <pt x="1126" y="-50" on="1"/>
      </contour>
    </TTGlyph>
    <TTGlyph name="glyph00170" xMin="60" yMin="-257" xMax="2110" yMax="1459">
      <component glyphName="glyph00718" x="0" y="0" flags="0x0"/>
      <component glyphName="glyph00726" x="0" y="0" flags="0x0"/>
    </TTGlyph>
    <TTGlyph name="glyph00171" xMin="60" yMin="-50" xMax="2110" yMax="1459">
      <component glyphName="glyph00721" x="0" y="0" flags="0x0"/>
      <component glyphName="glyph00726" x="0" y="0" flags="0x0"/>
    </TTGlyph>
    <TTGlyph name="glyph00172" xMin="60" yMin="-50" xMax="2174" yMax="1485">
      <contour>
        <pt x="283" y="1211" on="1"/>
        <pt x="303" y="1134" on="0"/>
        <pt x="341" y="1054" on="0"/>
        <pt x="384" y="1023" on="0"/>
        <pt x="416" y="1023" on="1"/>
        <pt x="456" y="1023" on="0"/>
        <pt x="528" y="1073" on="0"/>
        <pt x="594" y="1158" on="1"/>
        <pt x="657" y="1240" on="1"/>
        <pt x="763" y="1379" on="0"/>
        <pt x="937" y="1484" on="0"/>
        <pt x="1066" y="1485" on="1"/>
        <pt x="1077" y="1327" on="1"/>
        <pt x="1006" y="1323" on="0"/>
        <pt x="918" y="1289" on="0"/>
        <pt x="843" y="1224" on="0"/>
        <pt x="777" y="1139" on="1"/>
        <pt x="730" y="1078" on="1"/>
        <pt x="646" y="969" on="0"/>
        <pt x="497" y="869" on="0"/>
        <pt x="404" y="869" on="1"/>
        <pt x="287" y="869" on="0"/>
        <pt x="150" y="1020" on="0"/>
        <pt x="113" y="1156" on="1"/>
      </contour>
      <contour>
        <pt x="1593" y="1023" on="1"/>
        <pt x="1583" y="1055" on="0"/>
        <pt x="1583" y="1099" on="1"/>
        <pt x="1583" y="1203" on="0"/>
        <pt x="1744" y="1329" on="0"/>
        <pt x="1872" y="1329" on="1"/>
        <pt x="1985" y="1329" on="0"/>
        <pt x="2134" y="1236" on="0"/>
        <pt x="2174" y="1133" on="1"/>
        <pt x="2018" y="1093" on="1"/>
        <pt x="1981" y="1194" on="0"/>
        <pt x="1875" y="1194" on="1"/>
        <pt x="1814" y="1194" on="0"/>
        <pt x="1737" y="1133" on="0"/>
        <pt x="1737" y="1082" on="1"/>
        <pt x="1737" y="1045" on="0"/>
        <pt x="1753" y="1020" on="1"/>
        <pt x="1914" y="1013" on="0"/>
        <pt x="2086" y="858" on="0"/>
        <pt x="2086" y="717" on="1"/>
        <pt x="2086" y="594" on="0"/>
        <pt x="1929" y="448" on="0"/>
        <pt x="1797" y="448" on="1"/>
        <pt x="1666" y="448" on="0"/>
        <pt x="1516" y="595" on="0"/>
        <pt x="1516" y="704" on="1"/>
        <pt x="1516" y="793" on="0"/>
        <pt x="1560" y="869" on="1"/>
        <pt x="1132" y="869" on="1"/>
        <pt x="1254" y="777" on="0"/>
        <pt x="1384" y="531" on="0"/>
        <pt x="1384" y="396" on="1"/>
        <pt x="1384" y="197" on="0"/>
        <pt x="1179" y="-26" on="0"/>
        <pt x="993" y="-26" on="1"/>
        <pt x="895" y="-26" on="0"/>
        <pt x="738" y="53" on="0"/>
        <pt x="658" y="145" on="1"/>
        <pt x="587" y="48" on="0"/>
        <pt x="451" y="-26" on="0"/>
        <pt x="359" y="-26" on="1"/>
        <pt x="218" y="-26" on="0"/>
        <pt x="60" y="143" on="0"/>
        <pt x="60" y="280" on="1"/>
        <pt x="60" y="410" on="0"/>
        <pt x="224" y="576" on="0"/>
        <pt x="349" y="576" on="1"/>
        <pt x="441" y="576" on="0"/>
        <pt x="590" y="487" on="0"/>
        <pt x="713" y="328" on="1"/>
        <pt x="804" y="208" on="0"/>
        <pt x="920" y="135" on="0"/>
        <pt x="1003" y="135" on="1"/>
        <pt x="1104" y="135" on="0"/>
        <pt x="1214" y="266" on="0"/>
        <pt x="1214" y="386" on="1"/>
        <pt x="1214" y="532" on="0"/>
        <pt x="1033" y="776" on="0"/>
        <pt x="856" y="868" on="1"/>
        <pt x="857" y="869" on="1"/>
        <pt x="856" y="869" on="1"/>
        <pt x="930" y="1023" on="1"/>
      </contour>
      <contour>
        <pt x="1718" y="869" on="1"/>
        <pt x="1666" y="800" on="0"/>
        <pt x="1666" y="720" on="1"/>
        <pt x="1666" y="658" on="0"/>
        <pt x="1741" y="583" on="0"/>
        <pt x="1804" y="583" on="1"/>
        <pt x="1866" y="583" on="0"/>
        <pt x="1936" y="655" on="0"/>
        <pt x="1936" y="715" on="1"/>
        <pt x="1936" y="793" on="0"/>
        <pt x="1844" y="869" on="0"/>
        <pt x="1745" y="869" on="1"/>
      </contour>
      <contour>
        <pt x="556" y="272" on="1"/>
        <pt x="484" y="367" on="0"/>
        <pt x="404" y="423" on="0"/>
        <pt x="353" y="423" on="1"/>
        <pt x="293" y="423" on="0"/>
        <pt x="220" y="344" on="0"/>
        <pt x="220" y="277" on="1"/>
        <pt x="220" y="211" on="0"/>
        <pt x="300" y="127" on="0"/>
        <pt x="368" y="127" on="1"/>
        <pt x="434" y="127" on="0"/>
        <pt x="525" y="202" on="0"/>
      </contour>
      <contour>
        <pt x="1058" y="-50" on="1"/>
      </contour>
    </TTGlyph>
    <TTGlyph name="glyph00173" xMin="34" yMin="-541" xMax="1743" yMax="1023">
      <component glyphName="glyph00138" x="0" y="0" flags="0x200"/>
      <component glyphName="glyph00762" x="0" y="0" flags="0x0"/>
    </TTGlyph>
    <TTGlyph name="glyph00174" xMin="34" yMin="-50" xMax="1065" yMax="1583">
      <component glyphName="glyph00666" x="0" y="0" flags="0x200"/>
      <component glyphName="uni0C3F" x="1050" y="0" flags="0x0"/>
    </TTGlyph>
    <TTGlyph name="glyph00175" xMin="60" yMin="-257" xMax="1532" yMax="1435">
      <contour>
        <pt x="662" y="310" on="1"/>
        <pt x="696" y="390" on="0"/>
        <pt x="696" y="499" on="1"/>
        <pt x="696" y="682" on="0"/>
        <pt x="623" y="782" on="1"/>
        <pt x="626" y="761" on="0"/>
        <pt x="626" y="740" on="1"/>
        <pt x="626" y="626" on="0"/>
        <pt x="476" y="489" on="0"/>
        <pt x="352" y="489" on="1"/>
        <pt x="232" y="489" on="0"/>
        <pt x="73" y="635" on="0"/>
        <pt x="73" y="754" on="1"/>
        <pt x="73" y="870" on="0"/>
        <pt x="249" y="1023" on="0"/>
        <pt x="392" y="1023" on="1"/>
        <pt x="414" y="1023" on="0"/>
        <pt x="454" y="1019" on="1"/>
        <pt x="428" y="1051" on="0"/>
        <pt x="403" y="1128" on="0"/>
        <pt x="403" y="1172" on="1"/>
        <pt x="403" y="1294" on="0"/>
        <pt x="581" y="1435" on="0"/>
        <pt x="729" y="1435" on="1"/>
        <pt x="952" y="1435" on="0"/>
        <pt x="1322" y="1176" on="0"/>
        <pt x="1532" y="731" on="0"/>
        <pt x="1532" y="479" on="1"/>
        <pt x="1532" y="231" on="0"/>
        <pt x="1279" y="-26" on="0"/>
        <pt x="1053" y="-26" on="1"/>
        <pt x="962" y="-26" on="0"/>
        <pt x="795" y="33" on="0"/>
        <pt x="694" y="103" on="1"/>
        <pt x="551" y="-26" on="0"/>
        <pt x="359" y="-26" on="1"/>
        <pt x="214" y="-26" on="0"/>
        <pt x="60" y="101" on="0"/>
        <pt x="60" y="207" on="1"/>
        <pt x="60" y="305" on="0"/>
        <pt x="210" y="427" on="0"/>
        <pt x="338" y="427" on="1"/>
        <pt x="414" y="427" on="0"/>
        <pt x="567" y="372" on="0"/>
      </contour>
      <contour>
        <pt x="779" y="1288" on="1"/>
        <pt x="746" y="1294" on="0"/>
        <pt x="712" y="1294" on="1"/>
        <pt x="638" y="1294" on="0"/>
        <pt x="555" y="1231" on="0"/>
        <pt x="555" y="1180" on="1"/>
        <pt x="555" y="1127" on="0"/>
        <pt x="615" y="1067" on="0"/>
        <pt x="671" y="1067" on="1"/>
        <pt x="799" y="1067" on="0"/>
        <pt x="799" y="1197" on="1"/>
        <pt x="799" y="1241" on="0"/>
      </contour>
      <contour>
        <pt x="936" y="1242" on="1"/>
        <pt x="943" y="1205" on="0"/>
        <pt x="943" y="1177" on="1"/>
        <pt x="943" y="1063" on="0"/>
        <pt x="807" y="930" on="0"/>
        <pt x="686" y="926" on="1"/>
        <pt x="770" y="856" on="0"/>
        <pt x="862" y="633" on="0"/>
        <pt x="862" y="510" on="1"/>
        <pt x="862" y="352" on="0"/>
        <pt x="790" y="224" on="1"/>
        <pt x="855" y="179" on="0"/>
        <pt x="986" y="135" on="0"/>
        <pt x="1064" y="135" on="1"/>
        <pt x="1219" y="135" on="0"/>
        <pt x="1362" y="309" on="0"/>
        <pt x="1362" y="479" on="1"/>
        <pt x="1362" y="717" on="0"/>
        <pt x="1132" y="1143" on="0"/>
      </contour>
      <contour>
        <pt x="466" y="873" on="1"/>
        <pt x="428" y="884" on="0"/>
        <pt x="384" y="884" on="1"/>
        <pt x="312" y="884" on="0"/>
        <pt x="229" y="813" on="0"/>
        <pt x="229" y="756" on="1"/>
        <pt x="229" y="696" on="0"/>
        <pt x="296" y="630" on="0"/>
        <pt x="357" y="630" on="1"/>
        <pt x="425" y="630" on="0"/>
        <pt x="498" y="697" on="0"/>
        <pt x="498" y="760" on="1"/>
        <pt x="498" y="819" on="0"/>
      </contour>
      <contour>
        <pt x="574" y="191" on="1"/>
        <pt x="505" y="240" on="0"/>
        <pt x="393" y="282" on="0"/>
        <pt x="335" y="282" on="1"/>
        <pt x="277" y="282" on="0"/>
        <pt x="215" y="240" on="0"/>
        <pt x="215" y="205" on="1"/>
        <pt x="215" y="170" on="0"/>
        <pt x="293" y="127" on="0"/>
        <pt x="361" y="127" on="1"/>
        <pt x="492" y="127" on="0"/>
      </contour>
      <contour>
        <pt x="610" y="-257" on="1"/>
        <pt x="625" y="33" on="1"/>
        <pt x="779" y="33" on="1"/>
        <pt x="794" y="-257" on="1"/>
      </contour>
      <contour>
        <pt x="802" y="-50" on="1"/>
      </contour>
    </TTGlyph>
    <TTGlyph name="glyph00176" xMin="82" yMin="-50" xMax="1111" yMax="1398">
      <contour>
        <pt x="781" y="59" on="1"/>
        <pt x="880" y="199" on="0"/>
        <pt x="941" y="392" on="0"/>
        <pt x="941" y="499" on="1"/>
        <pt x="941" y="679" on="0"/>
        <pt x="763" y="869" on="0"/>
        <pt x="591" y="869" on="1"/>
        <pt x="434" y="869" on="0"/>
        <pt x="252" y="673" on="0"/>
        <pt x="252" y="501" on="1"/>
        <pt x="252" y="383" on="0"/>
        <pt x="327" y="173" on="0"/>
        <pt x="412" y="59" on="1"/>
        <pt x="241" y="-16" on="1"/>
        <pt x="82" y="232" on="0"/>
        <pt x="82" y="501" on="1"/>
        <pt x="82" y="636" on="0"/>
        <pt x="187" y="860" on="0"/>
        <pt x="283" y="929" on="1"/>
        <pt x="215" y="1009" on="0"/>
        <pt x="215" y="1110" on="1"/>
        <pt x="215" y="1242" on="0"/>
        <pt x="394" y="1398" on="0"/>
        <pt x="558" y="1398" on="1"/>
        <pt x="760" y="1398" on="0"/>
        <pt x="998" y="1152" on="0"/>
        <pt x="998" y="960" on="1"/>
        <pt x="998" y="920" on="0"/>
        <pt x="991" y="874" on="1"/>
        <pt x="1051" y="808" on="0"/>
        <pt x="1111" y="633" on="0"/>
        <pt x="1111" y="523" on="1"/>
        <pt x="1111" y="380" on="0"/>
        <pt x="1041" y="128" on="0"/>
        <pt x="951" y="-16" on="1"/>
      </contour>
      <contour>
        <pt x="838" y="980" on="1"/>
        <pt x="821" y="1105" on="0"/>
        <pt x="678" y="1243" on="0"/>
        <pt x="559" y="1243" on="1"/>
        <pt x="471" y="1243" on="0"/>
        <pt x="377" y="1168" on="0"/>
        <pt x="377" y="1105" on="1"/>
        <pt x="377" y="1041" on="0"/>
        <pt x="421" y="997" on="1"/>
        <pt x="502" y="1023" on="0"/>
        <pt x="603" y="1023" on="1"/>
        <pt x="733" y="1023" on="0"/>
      </contour>
      <contour>
        <pt x="596" y="-50" on="1"/>
      </contour>
    </TTGlyph>
    <TTGlyph name="glyph00177" xMin="60" yMin="-257" xMax="2166" yMax="1583">
      <component glyphName="glyph00669" x="0" y="0" flags="0x200"/>
      <component glyphName="uni0C3F" x="1007" y="0" flags="0x0"/>
    </TTGlyph>
    <TTGlyph name="glyph00178" xMin="73" yMin="-50" xMax="1497" yMax="1583">
      <component glyphName="uni0C19" x="0" y="0" flags="0x200"/>
      <component glyphName="uni0C3F" x="1558" y="0" flags="0x0"/>
    </TTGlyph>
    <TTGlyph name="glyph00179" xMin="52" yMin="-50" xMax="1495" yMax="1435">
      <contour>
        <pt x="788" y="150" on="1"/>
        <pt x="734" y="63" on="0"/>
        <pt x="586" y="-26" on="0"/>
        <pt x="467" y="-26" on="1"/>
        <pt x="320" y="-26" on="0"/>
        <pt x="136" y="152" on="0"/>
        <pt x="136" y="295" on="1"/>
        <pt x="136" y="358" on="0"/>
        <pt x="197" y="484" on="0"/>
        <pt x="254" y="528" on="1"/>
        <pt x="52" y="528" on="1"/>
        <pt x="52" y="680" on="1"/>
        <pt x="531" y="680" on="1"/>
        <pt x="531" y="535" on="1"/>
        <pt x="301" y="481" on="0"/>
        <pt x="301" y="305" on="1"/>
        <pt x="301" y="227" on="0"/>
        <pt x="395" y="135" on="0"/>
        <pt x="478" y="135" on="1"/>
        <pt x="575" y="135" on="0"/>
        <pt x="698" y="261" on="0"/>
        <pt x="708" y="376" on="1"/>
        <pt x="867" y="376" on="1"/>
        <pt x="875" y="263" on="0"/>
        <pt x="1002" y="135" on="0"/>
        <pt x="1096" y="135" on="1"/>
        <pt x="1219" y="135" on="0"/>
        <pt x="1325" y="302" on="0"/>
        <pt x="1325" y="464" on="1"/>
        <pt x="1325" y="694" on="0"/>
        <pt x="1066" y="1140" on="0"/>
        <pt x="861" y="1241" on="1"/>
        <pt x="868" y="1204" on="0"/>
        <pt x="868" y="1177" on="1"/>
        <pt x="868" y="1062" on="0"/>
        <pt x="721" y="926" on="0"/>
        <pt x="593" y="926" on="1"/>
        <pt x="468" y="926" on="0"/>
        <pt x="326" y="1069" on="0"/>
        <pt x="326" y="1172" on="1"/>
        <pt x="326" y="1296" on="0"/>
        <pt x="506" y="1435" on="0"/>
        <pt x="662" y="1435" on="1"/>
        <pt x="875" y="1435" on="0"/>
        <pt x="1265" y="1171" on="0"/>
        <pt x="1495" y="722" on="0"/>
        <pt x="1495" y="466" on="1"/>
        <pt x="1495" y="223" on="0"/>
        <pt x="1301" y="-26" on="0"/>
        <pt x="1113" y="-26" on="1"/>
        <pt x="998" y="-26" on="0"/>
        <pt x="855" y="51" on="0"/>
      </contour>
      <contour>
        <pt x="701" y="1289" on="1"/>
        <pt x="668" y="1294" on="0"/>
        <pt x="635" y="1294" on="1"/>
        <pt x="562" y="1294" on="0"/>
        <pt x="478" y="1231" on="0"/>
        <pt x="478" y="1179" on="1"/>
        <pt x="478" y="1126" on="0"/>
        <pt x="537" y="1067" on="0"/>
        <pt x="594" y="1067" on="1"/>
        <pt x="722" y="1067" on="0"/>
        <pt x="722" y="1197" on="1"/>
        <pt x="722" y="1246" on="0"/>
      </contour>
      <contour>
        <pt x="784" y="-50" on="1"/>
      </contour>
    </TTGlyph>
    <TTGlyph name="glyph00180" xMin="52" yMin="-257" xMax="1495" yMax="1435">
      <contour>
        <pt x="788" y="150" on="1"/>
        <pt x="734" y="63" on="0"/>
        <pt x="586" y="-26" on="0"/>
        <pt x="467" y="-26" on="1"/>
        <pt x="320" y="-26" on="0"/>
        <pt x="136" y="152" on="0"/>
        <pt x="136" y="295" on="1"/>
        <pt x="136" y="358" on="0"/>
        <pt x="197" y="484" on="0"/>
        <pt x="254" y="528" on="1"/>
        <pt x="52" y="528" on="1"/>
        <pt x="52" y="680" on="1"/>
        <pt x="531" y="680" on="1"/>
        <pt x="531" y="535" on="1"/>
        <pt x="301" y="481" on="0"/>
        <pt x="301" y="305" on="1"/>
        <pt x="301" y="227" on="0"/>
        <pt x="395" y="135" on="0"/>
        <pt x="478" y="135" on="1"/>
        <pt x="575" y="135" on="0"/>
        <pt x="698" y="261" on="0"/>
        <pt x="708" y="376" on="1"/>
        <pt x="867" y="376" on="1"/>
        <pt x="875" y="263" on="0"/>
        <pt x="1002" y="135" on="0"/>
        <pt x="1096" y="135" on="1"/>
        <pt x="1219" y="135" on="0"/>
        <pt x="1325" y="302" on="0"/>
        <pt x="1325" y="464" on="1"/>
        <pt x="1325" y="694" on="0"/>
        <pt x="1066" y="1140" on="0"/>
        <pt x="861" y="1241" on="1"/>
        <pt x="868" y="1204" on="0"/>
        <pt x="868" y="1177" on="1"/>
        <pt x="868" y="1062" on="0"/>
        <pt x="721" y="926" on="0"/>
        <pt x="593" y="926" on="1"/>
        <pt x="468" y="926" on="0"/>
        <pt x="326" y="1069" on="0"/>
        <pt x="326" y="1172" on="1"/>
        <pt x="326" y="1296" on="0"/>
        <pt x="506" y="1435" on="0"/>
        <pt x="662" y="1435" on="1"/>
        <pt x="875" y="1435" on="0"/>
        <pt x="1265" y="1171" on="0"/>
        <pt x="1495" y="722" on="0"/>
        <pt x="1495" y="466" on="1"/>
        <pt x="1495" y="223" on="0"/>
        <pt x="1301" y="-26" on="0"/>
        <pt x="1113" y="-26" on="1"/>
        <pt x="998" y="-26" on="0"/>
        <pt x="855" y="51" on="0"/>
      </contour>
      <contour>
        <pt x="701" y="1289" on="1"/>
        <pt x="668" y="1294" on="0"/>
        <pt x="635" y="1294" on="1"/>
        <pt x="562" y="1294" on="0"/>
        <pt x="478" y="1231" on="0"/>
        <pt x="478" y="1179" on="1"/>
        <pt x="478" y="1126" on="0"/>
        <pt x="537" y="1067" on="0"/>
        <pt x="594" y="1067" on="1"/>
        <pt x="722" y="1067" on="0"/>
        <pt x="722" y="1197" on="1"/>
        <pt x="722" y="1246" on="0"/>
      </contour>
      <contour>
        <pt x="696" y="-257" on="1"/>
        <pt x="711" y="33" on="1"/>
        <pt x="865" y="33" on="1"/>
        <pt x="880" y="-257" on="1"/>
      </contour>
      <contour>
        <pt x="784" y="-50" on="1"/>
      </contour>
    </TTGlyph>
    <TTGlyph name="glyph00181" xMin="73" yMin="-50" xMax="1437" yMax="1253">
      <contour>
        <pt x="706" y="627" on="1"/>
        <pt x="657" y="530" on="0"/>
        <pt x="465" y="460" on="1"/>
        <pt x="339" y="413" on="0"/>
        <pt x="252" y="327" on="0"/>
        <pt x="252" y="268" on="1"/>
        <pt x="252" y="205" on="0"/>
        <pt x="340" y="135" on="0"/>
        <pt x="423" y="135" on="1"/>
        <pt x="540" y="135" on="0"/>
        <pt x="677" y="256" on="0"/>
        <pt x="688" y="376" on="1"/>
        <pt x="847" y="376" on="1"/>
        <pt x="855" y="260" on="0"/>
        <pt x="978" y="135" on="0"/>
        <pt x="1080" y="135" on="1"/>
        <pt x="1171" y="135" on="0"/>
        <pt x="1267" y="215" on="0"/>
        <pt x="1267" y="291" on="1"/>
        <pt x="1267" y="368" on="0"/>
        <pt x="1217" y="453" on="1"/>
        <pt x="1368" y="516" on="1"/>
        <pt x="1401" y="465" on="0"/>
        <pt x="1437" y="337" on="0"/>
        <pt x="1437" y="276" on="1"/>
        <pt x="1437" y="134" on="0"/>
        <pt x="1250" y="-26" on="0"/>
        <pt x="1086" y="-26" on="1"/>
        <pt x="972" y="-26" on="0"/>
        <pt x="822" y="60" on="0"/>
        <pt x="768" y="150" on="1"/>
        <pt x="706" y="62" on="0"/>
        <pt x="553" y="-26" on="0"/>
        <pt x="420" y="-26" on="1"/>
        <pt x="262" y="-26" on="0"/>
        <pt x="84" y="139" on="0"/>
        <pt x="84" y="267" on="1"/>
        <pt x="84" y="383" on="0"/>
        <pt x="224" y="533" on="0"/>
        <pt x="388" y="591" on="1"/>
        <pt x="500" y="631" on="0"/>
        <pt x="570" y="707" on="0"/>
        <pt x="570" y="759" on="1"/>
        <pt x="570" y="815" on="0"/>
        <pt x="492" y="874" on="0"/>
        <pt x="415" y="874" on="1"/>
        <pt x="327" y="874" on="0"/>
        <pt x="241" y="807" on="0"/>
        <pt x="241" y="748" on="1"/>
        <pt x="241" y="709" on="0"/>
        <pt x="262" y="662" on="1"/>
        <pt x="109" y="618" on="1"/>
        <pt x="73" y="683" on="0"/>
        <pt x="73" y="767" on="1"/>
        <pt x="73" y="880" on="0"/>
        <pt x="252" y="1023" on="0"/>
        <pt x="415" y="1023" on="1"/>
        <pt x="552" y="1023" on="0"/>
        <pt x="720" y="902" on="0"/>
        <pt x="735" y="790" on="1"/>
        <pt x="792" y="734" on="0"/>
        <pt x="961" y="670" on="0"/>
        <pt x="1052" y="670" on="1"/>
        <pt x="1154" y="670" on="0"/>
        <pt x="1260" y="770" on="0"/>
        <pt x="1260" y="867" on="1"/>
        <pt x="1260" y="878" on="1"/>
        <pt x="1260" y="883" on="0"/>
        <pt x="1259" y="888" on="1"/>
        <pt x="1169" y="801" on="0"/>
        <pt x="1023" y="801" on="1"/>
        <pt x="903" y="801" on="0"/>
        <pt x="762" y="915" on="0"/>
        <pt x="762" y="1021" on="1"/>
        <pt x="762" y="1125" on="0"/>
        <pt x="914" y="1253" on="0"/>
        <pt x="1040" y="1253" on="1"/>
        <pt x="1150" y="1253" on="0"/>
        <pt x="1320" y="1152" on="0"/>
        <pt x="1412" y="971" on="0"/>
        <pt x="1412" y="867" on="1"/>
        <pt x="1412" y="704" on="0"/>
        <pt x="1221" y="516" on="0"/>
        <pt x="1048" y="516" on="1"/>
        <pt x="846" y="516" on="0"/>
      </contour>
      <contour>
        <pt x="1215" y="1026" on="1"/>
        <pt x="1183" y="1072" on="0"/>
        <pt x="1095" y="1119" on="0"/>
        <pt x="1039" y="1119" on="1"/>
        <pt x="974" y="1119" on="0"/>
        <pt x="907" y="1068" on="0"/>
        <pt x="907" y="1021" on="1"/>
        <pt x="907" y="979" on="0"/>
        <pt x="971" y="935" on="0"/>
        <pt x="1021" y="935" on="1"/>
        <pt x="1084" y="935" on="0"/>
        <pt x="1175" y="979" on="0"/>
      </contour>
      <contour>
        <pt x="748" y="-50" on="1"/>
      </contour>
    </TTGlyph>
    <TTGlyph name="glyph00182" xMin="72" yMin="-257" xMax="2560" yMax="1398">
      <contour>
        <pt x="1057" y="188" on="1"/>
        <pt x="987" y="84" on="0"/>
        <pt x="755" y="-26" on="0"/>
        <pt x="607" y="-26" on="1"/>
        <pt x="363" y="-26" on="0"/>
        <pt x="72" y="254" on="0"/>
        <pt x="72" y="483" on="1"/>
        <pt x="72" y="627" on="0"/>
        <pt x="186" y="861" on="0"/>
        <pt x="292" y="933" on="1"/>
        <pt x="263" y="967" on="0"/>
        <pt x="228" y="1062" on="0"/>
        <pt x="228" y="1110" on="1"/>
        <pt x="228" y="1242" on="0"/>
        <pt x="407" y="1398" on="0"/>
        <pt x="571" y="1398" on="1"/>
        <pt x="773" y="1398" on="0"/>
        <pt x="1011" y="1152" on="0"/>
        <pt x="1011" y="960" on="1"/>
        <pt x="1011" y="909" on="0"/>
        <pt x="1003" y="867" on="1"/>
        <pt x="1072" y="793" on="0"/>
        <pt x="1142" y="602" on="0"/>
        <pt x="1142" y="486" on="1"/>
        <pt x="1142" y="409" on="0"/>
        <pt x="1124" y="340" on="1"/>
        <pt x="1205" y="236" on="0"/>
        <pt x="1369" y="135" on="0"/>
        <pt x="1466" y="135" on="1"/>
        <pt x="1571" y="135" on="0"/>
        <pt x="1681" y="268" on="0"/>
        <pt x="1681" y="394" on="1"/>
        <pt x="1681" y="546" on="0"/>
        <pt x="1506" y="780" on="0"/>
        <pt x="1322" y="865" on="1"/>
        <pt x="1398" y="1023" on="1"/>
        <pt x="1609" y="931" on="0"/>
        <pt x="1851" y="603" on="0"/>
        <pt x="1851" y="405" on="1"/>
        <pt x="1851" y="363" on="0"/>
        <pt x="1846" y="324" on="1"/>
        <pt x="1926" y="226" on="0"/>
        <pt x="2084" y="135" on="0"/>
        <pt x="2175" y="135" on="1"/>
        <pt x="2280" y="135" on="0"/>
        <pt x="2390" y="268" on="0"/>
        <pt x="2390" y="394" on="1"/>
        <pt x="2390" y="546" on="0"/>
        <pt x="2215" y="780" on="0"/>
        <pt x="2031" y="865" on="1"/>
        <pt x="2107" y="1023" on="1"/>
        <pt x="2318" y="931" on="0"/>
        <pt x="2560" y="603" on="0"/>
        <pt x="2560" y="405" on="1"/>
        <pt x="2560" y="199" on="0"/>
        <pt x="2354" y="-26" on="0"/>
        <pt x="2162" y="-26" on="1"/>
        <pt x="1954" y="-26" on="0"/>
        <pt x="1795" y="153" on="1"/>
        <pt x="1745" y="63" on="0"/>
        <pt x="1574" y="-26" on="0"/>
        <pt x="1453" y="-26" on="1"/>
        <pt x="1225" y="-26" on="0"/>
      </contour>
      <contour>
        <pt x="851" y="974" on="1"/>
        <pt x="836" y="1103" on="0"/>
        <pt x="691" y="1243" on="0"/>
        <pt x="572" y="1243" on="1"/>
        <pt x="484" y="1243" on="0"/>
        <pt x="390" y="1168" on="0"/>
        <pt x="390" y="1105" on="1"/>
        <pt x="390" y="1041" on="0"/>
        <pt x="432" y="998" on="1"/>
        <pt x="516" y="1023" on="0"/>
        <pt x="607" y="1023" on="1"/>
        <pt x="741" y="1023" on="0"/>
      </contour>
      <contour>
        <pt x="606" y="135" on="1"/>
        <pt x="779" y="135" on="0"/>
        <pt x="973" y="330" on="0"/>
        <pt x="973" y="494" on="1"/>
        <pt x="973" y="663" on="0"/>
        <pt x="778" y="869" on="0"/>
        <pt x="606" y="869" on="1"/>
        <pt x="435" y="869" on="0"/>
        <pt x="240" y="666" on="0"/>
        <pt x="240" y="505" on="1"/>
        <pt x="240" y="335" on="0"/>
        <pt x="433" y="135" on="0"/>
      </contour>
      <contour>
        <pt x="1715" y="-257" on="1"/>
        <pt x="1730" y="33" on="1"/>
        <pt x="1884" y="33" on="1"/>
        <pt x="1899" y="-257" on="1"/>
      </contour>
      <contour>
        <pt x="1316" y="-50" on="1"/>
      </contour>
    </TTGlyph>
    <TTGlyph name="glyph00183" xMin="60" yMin="-199" xMax="2004" yMax="1583">
      <component glyphName="uni0C1E" x="0" y="0" flags="0x200"/>
      <component glyphName="uni0C3F" x="2138" y="0" flags="0x0"/>
    </TTGlyph>
    <TTGlyph name="glyph00184" xMin="78" yMin="-50" xMax="1578" yMax="1583">
      <component glyphName="glyph00682" x="0" y="0" flags="0x200"/>
      <component glyphName="uni0C3F" x="1668" y="0" flags="0x0"/>
    </TTGlyph>
    <TTGlyph name="glyph00185" xMin="72" yMin="-50" xMax="1142" yMax="1398">
      <contour>
        <pt x="292" y="933" on="1"/>
        <pt x="263" y="967" on="0"/>
        <pt x="228" y="1062" on="0"/>
        <pt x="228" y="1110" on="1"/>
        <pt x="228" y="1242" on="0"/>
        <pt x="407" y="1398" on="0"/>
        <pt x="571" y="1398" on="1"/>
        <pt x="773" y="1398" on="0"/>
        <pt x="1011" y="1152" on="0"/>
        <pt x="1011" y="960" on="1"/>
        <pt x="1011" y="909" on="0"/>
        <pt x="1003" y="867" on="1"/>
        <pt x="1072" y="793" on="0"/>
        <pt x="1142" y="602" on="0"/>
        <pt x="1142" y="486" on="1"/>
        <pt x="1142" y="335" on="0"/>
        <pt x="1010" y="102" on="0"/>
        <pt x="767" y="-26" on="0"/>
        <pt x="607" y="-26" on="1"/>
        <pt x="363" y="-26" on="0"/>
        <pt x="72" y="254" on="0"/>
        <pt x="72" y="483" on="1"/>
        <pt x="72" y="627" on="0"/>
        <pt x="186" y="861" on="0"/>
      </contour>
      <contour>
        <pt x="851" y="974" on="1"/>
        <pt x="836" y="1103" on="0"/>
        <pt x="691" y="1243" on="0"/>
        <pt x="572" y="1243" on="1"/>
        <pt x="484" y="1243" on="0"/>
        <pt x="390" y="1168" on="0"/>
        <pt x="390" y="1105" on="1"/>
        <pt x="390" y="1041" on="0"/>
        <pt x="432" y="998" on="1"/>
        <pt x="516" y="1023" on="0"/>
        <pt x="607" y="1023" on="1"/>
        <pt x="741" y="1023" on="0"/>
      </contour>
      <contour>
        <pt x="606" y="135" on="1"/>
        <pt x="779" y="135" on="0"/>
        <pt x="973" y="330" on="0"/>
        <pt x="973" y="494" on="1"/>
        <pt x="973" y="663" on="0"/>
        <pt x="778" y="869" on="0"/>
        <pt x="606" y="869" on="1"/>
        <pt x="435" y="869" on="0"/>
        <pt x="240" y="666" on="0"/>
        <pt x="240" y="505" on="1"/>
        <pt x="240" y="335" on="0"/>
        <pt x="433" y="135" on="0"/>
      </contour>
      <contour>
        <pt x="608" y="622" on="1"/>
        <pt x="660" y="622" on="0"/>
        <pt x="717" y="560" on="0"/>
        <pt x="717" y="503" on="1"/>
        <pt x="717" y="444" on="0"/>
        <pt x="659" y="381" on="0"/>
        <pt x="608" y="381" on="1"/>
        <pt x="554" y="381" on="0"/>
        <pt x="497" y="444" on="0"/>
        <pt x="497" y="503" on="1"/>
        <pt x="497" y="622" on="0"/>
      </contour>
      <contour>
        <pt x="607" y="-50" on="1"/>
      </contour>
    </TTGlyph>
    <TTGlyph name="glyph00186" xMin="72" yMin="-50" xMax="1516" yMax="1583">
      <component glyphName="glyph00684" x="0" y="0" flags="0x200"/>
      <component glyphName="uni0C3F" x="1321" y="0" flags="0x0"/>
    </TTGlyph>
    <TTGlyph name="glyph00187" xMin="72" yMin="-257" xMax="1516" yMax="1583">
      <component glyphName="glyph00685" x="0" y="0" flags="0x200"/>
      <component glyphName="uni0C3F" x="1321" y="0" flags="0x0"/>
    </TTGlyph>
    <TTGlyph name="glyph00188" xMin="68" yMin="-50" xMax="1692" yMax="1583">
      <component glyphName="uni0C23" x="0" y="0" flags="0x200"/>
      <component glyphName="uni0C3F" x="1751" y="0" flags="0x0"/>
    </TTGlyph>
    <TTGlyph name="glyph00189" xMin="73" yMin="-50" xMax="1537" yMax="1375">
      <contour>
        <pt x="234" y="401" on="1"/>
        <pt x="277" y="272" on="0"/>
        <pt x="568" y="135" on="0"/>
        <pt x="796" y="135" on="1"/>
        <pt x="1045" y="135" on="0"/>
        <pt x="1335" y="296" on="0"/>
        <pt x="1368" y="450" on="1"/>
        <pt x="1279" y="367" on="0"/>
        <pt x="1152" y="367" on="1"/>
        <pt x="1030" y="367" on="0"/>
        <pt x="882" y="508" on="0"/>
        <pt x="882" y="629" on="1"/>
        <pt x="882" y="751" on="0"/>
        <pt x="1041" y="894" on="0"/>
        <pt x="1181" y="894" on="1"/>
        <pt x="1255" y="894" on="0"/>
        <pt x="1332" y="858" on="1"/>
        <pt x="1324" y="983" on="0"/>
        <pt x="1125" y="1175" on="0"/>
        <pt x="960" y="1212" on="1"/>
        <pt x="976" y="1164" on="0"/>
        <pt x="976" y="1117" on="1"/>
        <pt x="976" y="1002" on="0"/>
        <pt x="829" y="866" on="0"/>
        <pt x="701" y="866" on="1"/>
        <pt x="576" y="866" on="0"/>
        <pt x="434" y="1010" on="0"/>
        <pt x="434" y="1113" on="1"/>
        <pt x="434" y="1235" on="0"/>
        <pt x="621" y="1375" on="0"/>
        <pt x="790" y="1375" on="1"/>
        <pt x="1004" y="1375" on="0"/>
        <pt x="1331" y="1233" on="0"/>
        <pt x="1501" y="969" on="0"/>
        <pt x="1501" y="790" on="1"/>
        <pt x="1501" y="755" on="0"/>
        <pt x="1493" y="711" on="1"/>
        <pt x="1537" y="631" on="0"/>
        <pt x="1537" y="525" on="1"/>
        <pt x="1537" y="258" on="0"/>
        <pt x="1164" y="-26" on="0"/>
        <pt x="807" y="-26" on="1"/>
        <pt x="457" y="-26" on="0"/>
        <pt x="73" y="251" on="0"/>
        <pt x="73" y="486" on="1"/>
        <pt x="73" y="665" on="0"/>
        <pt x="283" y="894" on="0"/>
        <pt x="447" y="894" on="1"/>
        <pt x="574" y="894" on="0"/>
        <pt x="721" y="756" on="0"/>
        <pt x="721" y="642" on="1"/>
        <pt x="721" y="515" on="0"/>
        <pt x="548" y="367" on="0"/>
        <pt x="397" y="367" on="1"/>
        <pt x="303" y="367" on="0"/>
      </contour>
      <contour>
        <pt x="808" y="1232" on="1"/>
        <pt x="781" y="1234" on="0"/>
        <pt x="754" y="1234" on="1"/>
        <pt x="675" y="1234" on="0"/>
        <pt x="586" y="1172" on="0"/>
        <pt x="586" y="1119" on="1"/>
        <pt x="586" y="1066" on="0"/>
        <pt x="645" y="1007" on="0"/>
        <pt x="702" y="1007" on="1"/>
        <pt x="830" y="1007" on="0"/>
        <pt x="830" y="1137" on="1"/>
        <pt x="830" y="1185" on="0"/>
      </contour>
      <contour>
        <pt x="224" y="551" on="1"/>
        <pt x="290" y="510" on="0"/>
        <pt x="372" y="510" on="1"/>
        <pt x="558" y="510" on="0"/>
        <pt x="558" y="641" on="1"/>
        <pt x="558" y="694" on="0"/>
        <pt x="494" y="749" on="0"/>
        <pt x="437" y="749" on="1"/>
        <pt x="355" y="749" on="0"/>
        <pt x="242" y="645" on="0"/>
      </contour>
      <contour>
        <pt x="1359" y="635" on="1"/>
        <pt x="1331" y="689" on="0"/>
        <pt x="1237" y="749" on="0"/>
        <pt x="1180" y="749" on="1"/>
        <pt x="1120" y="749" on="0"/>
        <pt x="1044" y="686" on="0"/>
        <pt x="1044" y="629" on="1"/>
        <pt x="1044" y="574" on="0"/>
        <pt x="1115" y="510" on="0"/>
        <pt x="1179" y="510" on="1"/>
        <pt x="1244" y="510" on="0"/>
        <pt x="1340" y="576" on="0"/>
      </contour>
      <contour>
        <pt x="805" y="-50" on="1"/>
      </contour>
    </TTGlyph>
    <TTGlyph name="glyph00190" xMin="72" yMin="-257" xMax="1373" yMax="1398">
      <contour>
        <pt x="356" y="933" on="1"/>
        <pt x="292" y="1013" on="0"/>
        <pt x="292" y="1110" on="1"/>
        <pt x="292" y="1241" on="0"/>
        <pt x="492" y="1398" on="0"/>
        <pt x="674" y="1398" on="1"/>
        <pt x="820" y="1398" on="0"/>
        <pt x="1042" y="1287" on="0"/>
        <pt x="1165" y="1085" on="0"/>
        <pt x="1165" y="960" on="1"/>
        <pt x="1165" y="935" on="0"/>
        <pt x="1161" y="889" on="1"/>
        <pt x="1263" y="807" on="0"/>
        <pt x="1373" y="561" on="0"/>
        <pt x="1373" y="410" on="1"/>
        <pt x="1373" y="204" on="0"/>
        <pt x="1192" y="-26" on="0"/>
        <pt x="1033" y="-26" on="1"/>
        <pt x="924" y="-26" on="0"/>
        <pt x="780" y="56" on="0"/>
        <pt x="722" y="150" on="1"/>
        <pt x="674" y="65" on="0"/>
        <pt x="528" y="-26" on="0"/>
        <pt x="406" y="-26" on="1"/>
        <pt x="254" y="-26" on="0"/>
        <pt x="72" y="208" on="0"/>
        <pt x="72" y="410" on="1"/>
        <pt x="72" y="585" on="0"/>
        <pt x="219" y="856" on="0"/>
      </contour>
      <contour>
        <pt x="1004" y="977" on="1"/>
        <pt x="985" y="1100" on="0"/>
        <pt x="812" y="1243" on="0"/>
        <pt x="671" y="1243" on="1"/>
        <pt x="567" y="1243" on="0"/>
        <pt x="454" y="1166" on="0"/>
        <pt x="454" y="1105" on="1"/>
        <pt x="454" y="1039" on="0"/>
        <pt x="501" y="993" on="1"/>
        <pt x="606" y="1023" on="0"/>
        <pt x="731" y="1023" on="1"/>
        <pt x="882" y="1023" on="0"/>
      </contour>
      <contour>
        <pt x="643" y="346" on="1"/>
        <pt x="802" y="346" on="1"/>
        <pt x="820" y="245" on="0"/>
        <pt x="933" y="135" on="0"/>
        <pt x="1015" y="135" on="1"/>
        <pt x="1112" y="135" on="0"/>
        <pt x="1204" y="273" on="0"/>
        <pt x="1204" y="412" on="1"/>
        <pt x="1204" y="623" on="0"/>
        <pt x="963" y="869" on="0"/>
        <pt x="745" y="869" on="1"/>
        <pt x="714" y="869" on="1"/>
        <pt x="493" y="869" on="0"/>
        <pt x="241" y="627" on="0"/>
        <pt x="241" y="417" on="1"/>
        <pt x="241" y="274" on="0"/>
        <pt x="333" y="135" on="0"/>
        <pt x="430" y="135" on="1"/>
        <pt x="594" y="135" on="0"/>
      </contour>
      <contour>
        <pt x="725" y="667" on="1"/>
        <pt x="777" y="667" on="0"/>
        <pt x="834" y="605" on="0"/>
        <pt x="834" y="548" on="1"/>
        <pt x="834" y="489" on="0"/>
        <pt x="776" y="426" on="0"/>
        <pt x="725" y="426" on="1"/>
        <pt x="671" y="426" on="0"/>
        <pt x="614" y="489" on="0"/>
        <pt x="614" y="548" on="1"/>
        <pt x="614" y="667" on="0"/>
      </contour>
      <contour>
        <pt x="631" y="-257" on="1"/>
        <pt x="646" y="33" on="1"/>
        <pt x="800" y="33" on="1"/>
        <pt x="815" y="-257" on="1"/>
      </contour>
      <contour>
        <pt x="723" y="-50" on="1"/>
      </contour>
    </TTGlyph>
    <TTGlyph name="glyph00191" xMin="72" yMin="-50" xMax="1373" yMax="1398">
      <contour>
        <pt x="356" y="933" on="1"/>
        <pt x="292" y="1013" on="0"/>
        <pt x="292" y="1110" on="1"/>
        <pt x="292" y="1241" on="0"/>
        <pt x="492" y="1398" on="0"/>
        <pt x="674" y="1398" on="1"/>
        <pt x="820" y="1398" on="0"/>
        <pt x="1042" y="1287" on="0"/>
        <pt x="1165" y="1085" on="0"/>
        <pt x="1165" y="960" on="1"/>
        <pt x="1165" y="935" on="0"/>
        <pt x="1161" y="889" on="1"/>
        <pt x="1263" y="807" on="0"/>
        <pt x="1373" y="561" on="0"/>
        <pt x="1373" y="410" on="1"/>
        <pt x="1373" y="204" on="0"/>
        <pt x="1192" y="-26" on="0"/>
        <pt x="1033" y="-26" on="1"/>
        <pt x="924" y="-26" on="0"/>
        <pt x="780" y="56" on="0"/>
        <pt x="722" y="150" on="1"/>
        <pt x="674" y="65" on="0"/>
        <pt x="528" y="-26" on="0"/>
        <pt x="406" y="-26" on="1"/>
        <pt x="254" y="-26" on="0"/>
        <pt x="72" y="208" on="0"/>
        <pt x="72" y="410" on="1"/>
        <pt x="72" y="585" on="0"/>
        <pt x="219" y="856" on="0"/>
      </contour>
      <contour>
        <pt x="1004" y="977" on="1"/>
        <pt x="985" y="1100" on="0"/>
        <pt x="812" y="1243" on="0"/>
        <pt x="671" y="1243" on="1"/>
        <pt x="567" y="1243" on="0"/>
        <pt x="454" y="1166" on="0"/>
        <pt x="454" y="1105" on="1"/>
        <pt x="454" y="1039" on="0"/>
        <pt x="501" y="993" on="1"/>
        <pt x="606" y="1023" on="0"/>
        <pt x="731" y="1023" on="1"/>
        <pt x="882" y="1023" on="0"/>
      </contour>
      <contour>
        <pt x="643" y="376" on="1"/>
        <pt x="802" y="376" on="1"/>
        <pt x="810" y="262" on="0"/>
        <pt x="929" y="135" on="0"/>
        <pt x="1015" y="135" on="1"/>
        <pt x="1112" y="135" on="0"/>
        <pt x="1204" y="273" on="0"/>
        <pt x="1204" y="412" on="1"/>
        <pt x="1204" y="623" on="0"/>
        <pt x="963" y="869" on="0"/>
        <pt x="745" y="869" on="1"/>
        <pt x="714" y="869" on="1"/>
        <pt x="493" y="869" on="0"/>
        <pt x="241" y="627" on="0"/>
        <pt x="241" y="417" on="1"/>
        <pt x="241" y="274" on="0"/>
        <pt x="333" y="135" on="0"/>
        <pt x="430" y="135" on="1"/>
        <pt x="518" y="135" on="0"/>
        <pt x="633" y="262" on="0"/>
      </contour>
      <contour>
        <pt x="723" y="-50" on="1"/>
      </contour>
    </TTGlyph>
    <TTGlyph name="glyph00192" xMin="72" yMin="-257" xMax="1373" yMax="1398">
      <contour>
        <pt x="356" y="933" on="1"/>
        <pt x="292" y="1013" on="0"/>
        <pt x="292" y="1110" on="1"/>
        <pt x="292" y="1241" on="0"/>
        <pt x="492" y="1398" on="0"/>
        <pt x="674" y="1398" on="1"/>
        <pt x="820" y="1398" on="0"/>
        <pt x="1042" y="1287" on="0"/>
        <pt x="1165" y="1085" on="0"/>
        <pt x="1165" y="960" on="1"/>
        <pt x="1165" y="935" on="0"/>
        <pt x="1161" y="889" on="1"/>
        <pt x="1263" y="807" on="0"/>
        <pt x="1373" y="561" on="0"/>
        <pt x="1373" y="410" on="1"/>
        <pt x="1373" y="204" on="0"/>
        <pt x="1192" y="-26" on="0"/>
        <pt x="1033" y="-26" on="1"/>
        <pt x="924" y="-26" on="0"/>
        <pt x="780" y="56" on="0"/>
        <pt x="722" y="150" on="1"/>
        <pt x="674" y="65" on="0"/>
        <pt x="528" y="-26" on="0"/>
        <pt x="406" y="-26" on="1"/>
        <pt x="254" y="-26" on="0"/>
        <pt x="72" y="208" on="0"/>
        <pt x="72" y="410" on="1"/>
        <pt x="72" y="585" on="0"/>
        <pt x="219" y="856" on="0"/>
      </contour>
      <contour>
        <pt x="1004" y="977" on="1"/>
        <pt x="985" y="1100" on="0"/>
        <pt x="812" y="1243" on="0"/>
        <pt x="671" y="1243" on="1"/>
        <pt x="567" y="1243" on="0"/>
        <pt x="454" y="1166" on="0"/>
        <pt x="454" y="1105" on="1"/>
        <pt x="454" y="1039" on="0"/>
        <pt x="501" y="993" on="1"/>
        <pt x="606" y="1023" on="0"/>
        <pt x="731" y="1023" on="1"/>
        <pt x="882" y="1023" on="0"/>
      </contour>
      <contour>
        <pt x="643" y="376" on="1"/>
        <pt x="802" y="376" on="1"/>
        <pt x="810" y="262" on="0"/>
        <pt x="929" y="135" on="0"/>
        <pt x="1015" y="135" on="1"/>
        <pt x="1112" y="135" on="0"/>
        <pt x="1204" y="273" on="0"/>
        <pt x="1204" y="412" on="1"/>
        <pt x="1204" y="623" on="0"/>
        <pt x="963" y="869" on="0"/>
        <pt x="745" y="869" on="1"/>
        <pt x="714" y="869" on="1"/>
        <pt x="493" y="869" on="0"/>
        <pt x="241" y="627" on="0"/>
        <pt x="241" y="417" on="1"/>
        <pt x="241" y="274" on="0"/>
        <pt x="333" y="135" on="0"/>
        <pt x="430" y="135" on="1"/>
        <pt x="518" y="135" on="0"/>
        <pt x="633" y="262" on="0"/>
      </contour>
      <contour>
        <pt x="631" y="-257" on="1"/>
        <pt x="646" y="33" on="1"/>
        <pt x="800" y="33" on="1"/>
        <pt x="815" y="-257" on="1"/>
      </contour>
      <contour>
        <pt x="723" y="-50" on="1"/>
      </contour>
    </TTGlyph>
</ttFont>
